<?xml version="1.0" standalone="no"?>
<!DOCTYPE svg PUBLIC "-//W3C//DTD SVG 1.1//EN" "http://www.w3.org/Graphics/SVG/1.1/DTD/svg11.dtd" >
<svg>
<metadata>
Created by FontForge 20100429 at Thu Nov 20 15:11:36 2014
 By fontface
Digitized data copyright (c) 2012-2014, The Mozilla Foundation and Telefonica S.A.
</metadata>
<defs>
<font id="FiraSans-LightItalic" horiz-adv-x="560" >
  <font-face 
    font-family="Fira Sans Light"
    font-weight="300"
    font-style="italic"
    font-stretch="normal"
    units-per-em="1000"
    panose-1="2 11 4 3 5 0 0 2 0 4"
    ascent="785"
    descent="-215"
    x-height="523"
    cap-height="685"
    bbox="-211 -500 1360 1050"
    underline-thickness="0"
    underline-position="0"
    slope="-8"
    unicode-range="U+000D-1F310"
  />
<missing-glyph horiz-adv-x="663" 
d="M16 -500l218 1550h418l-218 -1550h-418zM78 -448h309l203 1446h-309zM422 426q23 -25 23 -66q0 -9 -2 -27q-7 -52 -32.5 -80t-76.5 -35l-8 -47q-1 -10 -9 -16t-16 -6q-11 0 -18 7.5t-6 18.5l10 82q53 3 75.5 21t28.5 59q1 8 1 20q0 23 -11 34.5t-39 11.5q-17 0 -29 -2.5
t-25 -9.5l-13 -2q-12 0 -18.5 7.5t-4.5 18.5q2 18 31.5 27t62.5 9q53 0 76 -25zM315 111q9 -9 9 -23q0 -17 -11 -28.5t-26 -11.5q-16 0 -25 11.5t-7 28.5q1 14 11.5 23t24.5 9q15 0 24 -9z" />
    <glyph glyph-name="fi" unicode="fi" horiz-adv-x="565" 
d="M423 0h-58l67 476h-234l-64 -459q-9 -68 -29 -108t-51.5 -64t-87.5 -49l-17 45q41 19 65 37.5t39.5 51.5t23.5 89l64 457h-91l7 47h91l12 87q8 63 53 98t120 35t137 -42l-24 -39q-25 16 -54.5 25t-58.5 9q-53 0 -81.5 -22t-35.5 -68l-11 -83h292z" />
    <glyph glyph-name="fl" unicode="fl" horiz-adv-x="600" 
d="M506 46l13 -43q-31 -14 -63 -14q-38 0 -58.5 20t-20.5 59q0 6 2 24l81 580q-33 12 -63 17.5t-67 5.5q-51 0 -79 -22t-35 -67l-11 -83h137l-13 -47h-131l-64 -459q-9 -68 -29 -108t-51.5 -64t-87.5 -49l-17 45q41 19 65 37.5t39.5 51.5t23.5 89l64 457h-91l7 47h91l12 87
q8 63 53 98t118 35t139 -25l54 6l-89 -636q-1 -6 -1 -16q0 -17 8 -25.5t26 -8.5q19 0 38 8z" />
    <glyph glyph-name=".notdef" horiz-adv-x="663" 
d="M16 -500l218 1550h418l-218 -1550h-418zM78 -448h309l203 1446h-309zM422 426q23 -25 23 -66q0 -9 -2 -27q-7 -52 -32.5 -80t-76.5 -35l-8 -47q-1 -10 -9 -16t-16 -6q-11 0 -18 7.5t-6 18.5l10 82q53 3 75.5 21t28.5 59q1 8 1 20q0 23 -11 34.5t-39 11.5q-17 0 -29 -2.5
t-25 -9.5l-13 -2q-12 0 -18.5 7.5t-4.5 18.5q2 18 31.5 27t62.5 9q53 0 76 -25zM315 111q9 -9 9 -23q0 -17 -11 -28.5t-26 -11.5q-16 0 -25 11.5t-7 28.5q1 14 11.5 23t24.5 9q15 0 24 -9z" />
    <glyph glyph-name="null" horiz-adv-x="-3" 
 />
    <glyph glyph-name="CR" unicode="&#xd;" horiz-adv-x="276" 
 />
    <glyph glyph-name="space" unicode=" " horiz-adv-x="276" 
 />
    <glyph glyph-name="A" unicode="A" horiz-adv-x="562" 
d="M127 187l-87 -187h-61l324 685h75l131 -685h-62l-33 187h-287zM334 636l-184 -398h255z" />
    <glyph glyph-name="Aacute" unicode="&#xc1;" horiz-adv-x="562" 
d="M127 187l-87 -187h-61l324 685h75l131 -685h-62l-33 187h-287zM334 636l-184 -398h255zM261 758l-11 34l199 96l20 -52z" />
    <glyph glyph-name="Abreve" unicode="&#x102;" horiz-adv-x="562" 
d="M127 187l-87 -187h-61l324 685h75l131 -685h-62l-33 187h-287zM334 636l-184 -398h255zM263.5 794q-32.5 29 -33.5 73l39 5q6 -28 26.5 -44t53.5 -16q35 0 61 17t40 46l39 -12q-12 -43 -51.5 -70.5t-89.5 -27.5q-52 0 -84.5 29z" />
    <glyph glyph-name="Acircumflex" unicode="&#xc2;" horiz-adv-x="562" 
d="M127 187l-87 -187h-61l324 685h75l131 -685h-62l-33 187h-287zM334 636l-184 -398h255zM238 762l-25 30l143 102h36l115 -102l-27 -30l-111 80z" />
    <glyph glyph-name="Adieresis" unicode="&#xc4;" horiz-adv-x="562" 
d="M127 187l-87 -187h-61l324 685h75l131 -685h-62l-33 187h-287zM334 636l-184 -398h255zM296 857.5q10 -10.5 10 -25.5q0 -19 -11.5 -31t-30.5 -12q-16 0 -26.5 10.5t-10.5 25.5q0 19 12.5 31t30.5 12q16 0 26 -10.5zM484.5 857.5q10.5 -10.5 10.5 -25.5q0 -18 -12 -30.5
t-30 -12.5q-16 0 -26.5 10.5t-10.5 25.5q0 19 12 31t30 12q16 0 26.5 -10.5z" />
    <glyph glyph-name="Agrave" unicode="&#xc0;" horiz-adv-x="562" 
d="M127 187l-87 -187h-61l324 685h75l131 -685h-62l-33 187h-287zM334 636l-184 -398h255zM443 758l-187 78l33 52l174 -96z" />
    <glyph glyph-name="Amacron" unicode="&#x100;" horiz-adv-x="562" 
d="M127 187l-87 -187h-61l324 685h75l131 -685h-62l-33 187h-287zM334 636l-184 -398h255zM244 849h240l-7 -47h-240z" />
    <glyph glyph-name="Aogonek" unicode="&#x104;" horiz-adv-x="562" 
d="M384 -61q-32 -29 -32 -64q0 -44 55 -44q24 0 59 6l-10 -49q-30 -6 -57 -6q-49 0 -75 23t-26 59q0 48 34 83.5t113 65.5l-31 174h-287l-87 -187h-61l324 685h75l131 -685h-17q-76 -32 -108 -61zM334 636l-184 -398h255z" />
    <glyph glyph-name="Aring" unicode="&#xc5;" horiz-adv-x="562" 
d="M127 187l-87 -187h-61l324 685h75l131 -685h-62l-33 187h-287zM334 636l-184 -398h255zM439 924q24 -23 24 -60q0 -46 -31 -75.5t-78 -29.5q-40 0 -64.5 23.5t-24.5 59.5q0 45 31.5 75t78.5 30q40 0 64 -23zM330.5 895q-16.5 -16 -21.5 -45v-10q0 -21 12.5 -33t34.5 -12
q26 0 42 16t21 45q1 4 1 12q0 20 -12.5 31.5t-34.5 11.5q-26 0 -42.5 -16z" />
    <glyph glyph-name="Atilde" unicode="&#xc3;" horiz-adv-x="562" 
d="M127 187l-87 -187h-61l324 685h75l131 -685h-62l-33 187h-287zM334 636l-184 -398h255zM383 800q-16 7 -34 20q-15 10 -23.5 14t-18.5 4q-20 0 -33 -9t-31 -32l-33 21q45 66 98 66q17 0 30.5 -6t31.5 -18q14 -10 25 -15.5t23 -5.5q16 0 30.5 10.5t32.5 34.5l34 -22
q-44 -69 -94 -69q-22 0 -38 7z" />
    <glyph glyph-name="AE" unicode="&#xc6;" horiz-adv-x="780" 
d="M439 379h257l-7 -49h-245l33 -280h228l-8 -50h-272l-20 184h-284l-95 -184h-63l362 685h421l-14 -50h-323zM356 637l-209 -403h252z" />
    <glyph glyph-name="AEacute" unicode="&#x1fc;" horiz-adv-x="780" 
d="M439 379h257l-7 -49h-245l33 -280h228l-8 -50h-272l-20 184h-284l-95 -184h-63l362 685h421l-14 -50h-323zM356 637l-209 -403h252zM435 758l-11 34l199 96l20 -52z" />
    <glyph glyph-name="B" unicode="B" horiz-adv-x="595" 
d="M495.5 319.5q38.5 -34.5 38.5 -101.5q0 -93 -64 -155.5t-209 -62.5h-187l96 685h170q96 0 151.5 -38t55.5 -112q0 -66 -39.5 -112.5t-114.5 -60.5q64 -8 102.5 -42.5zM187 384h132q54 0 92 20.5t57 54.5t19 74q0 102 -145 102h-120zM425 98q47 48 47 121q0 60 -39.5 88.5
t-108.5 28.5h-143l-40 -286h124q113 0 160 48z" />
    <glyph glyph-name="C" unicode="C" horiz-adv-x="548" 
d="M494 680q40 -16 75 -48l-37 -38q-30 27 -60 39t-69 12q-94 0 -155 -59.5t-88 -148t-27 -177.5q0 -109 48 -163.5t128 -54.5q49 0 84.5 15t75.5 44l28 -43q-85 -69 -192 -69t-170.5 71.5t-63.5 202.5q0 100 34.5 199.5t108.5 166.5t185 67q55 0 95 -16z" />
    <glyph glyph-name="Cacute" unicode="&#x106;" horiz-adv-x="548" 
d="M494 680q40 -16 75 -48l-37 -38q-30 27 -60 39t-69 12q-94 0 -155 -59.5t-88 -148t-27 -177.5q0 -109 48 -163.5t128 -54.5q49 0 84.5 15t75.5 44l28 -43q-85 -69 -192 -69t-170.5 71.5t-63.5 202.5q0 100 34.5 199.5t108.5 166.5t185 67q55 0 95 -16zM323 758l-11 34
l199 96l20 -52z" />
    <glyph glyph-name="Ccaron" unicode="&#x10c;" horiz-adv-x="548" 
d="M494 680q40 -16 75 -48l-37 -38q-30 27 -60 39t-69 12q-94 0 -155 -59.5t-88 -148t-27 -177.5q0 -109 48 -163.5t128 -54.5q49 0 84.5 15t75.5 44l28 -43q-85 -69 -192 -69t-170.5 71.5t-63.5 202.5q0 100 34.5 199.5t108.5 166.5t185 67q55 0 95 -16zM425 756h-35
l-116 101l28 30l110 -79l132 80l23 -31z" />
    <glyph glyph-name="Ccedilla" unicode="&#xc7;" horiz-adv-x="548" 
d="M248 585.5q-61 -59.5 -88 -148t-27 -177.5q0 -109 48 -163.5t128 -54.5q49 0 84.5 15t75.5 44l28 -43q-85 -69 -192 -69h-1l-9 -53q83 -6 83 -69q0 -39 -32 -66.5t-83 -27.5q-48 0 -78 23l22 34q22 -15 55 -15q26 -1 45.5 12.5t19.5 36.5q0 21 -18 30.5t-64 10.5l19 87
q-89 14 -141 84t-52 187q0 100 34.5 199.5t108.5 166.5t185 67q55 0 95 -16t75 -48l-37 -38q-30 27 -60 39t-69 12q-94 0 -155 -59.5z" />
    <glyph glyph-name="Ccircumflex" unicode="&#x108;" horiz-adv-x="548" 
d="M494 680q40 -16 75 -48l-37 -38q-30 27 -60 39t-69 12q-94 0 -155 -59.5t-88 -148t-27 -177.5q0 -109 48 -163.5t128 -54.5q49 0 84.5 15t75.5 44l28 -43q-85 -69 -192 -69t-170.5 71.5t-63.5 202.5q0 100 34.5 199.5t108.5 166.5t185 67q55 0 95 -16zM300 762l-25 30
l143 102h36l115 -102l-27 -30l-111 80z" />
    <glyph glyph-name="Cdotaccent" unicode="&#x10a;" horiz-adv-x="548" 
d="M494 680q40 -16 75 -48l-37 -38q-30 27 -60 39t-69 12q-94 0 -155 -59.5t-88 -148t-27 -177.5q0 -109 48 -163.5t128 -54.5q49 0 84.5 15t75.5 44l28 -43q-85 -69 -192 -69t-170.5 71.5t-63.5 202.5q0 100 34.5 199.5t108.5 166.5t185 67q55 0 95 -16zM456 868.5
q11 -10.5 11 -27.5q0 -20 -12.5 -32.5t-33.5 -12.5q-18 0 -29 11t-11 28q0 19 13 31.5t33 12.5q18 0 29 -10.5z" />
    <glyph glyph-name="D" unicode="D" horiz-adv-x="630" 
d="M505 629.5q76 -55.5 76 -200.5q0 -115 -36.5 -212t-117 -157t-206.5 -60h-147l96 685h134q125 0 201 -55.5zM141 50h89q104 0 169 55t93.5 141t28.5 184q0 121 -58.5 163t-155.5 42h-85z" />
    <glyph glyph-name="Eth" unicode="&#xd0;" horiz-adv-x="629" 
d="M505 629.5q76 -55.5 76 -201.5q0 -114 -36.5 -211t-117 -157t-206.5 -60h-148l46 330h-86l6 46h87l44 309h134q125 0 201 -55.5zM399 105q65 55 93.5 141t28.5 184q0 121 -58.5 163t-155.5 42h-85l-36 -259h178l-7 -46h-178l-38 -280h89q104 0 169 55z" />
    <glyph glyph-name="Dcaron" unicode="&#x10e;" horiz-adv-x="630" 
d="M505 629.5q76 -55.5 76 -200.5q0 -115 -36.5 -212t-117 -157t-206.5 -60h-147l96 685h134q125 0 201 -55.5zM141 50h89q104 0 169 55t93.5 141t28.5 184q0 121 -58.5 163t-155.5 42h-85zM381 756h-35l-116 101l28 30l110 -79l132 80l23 -31z" />
    <glyph glyph-name="Dcroat" unicode="&#x110;" horiz-adv-x="629" 
d="M505 629.5q76 -55.5 76 -201.5q0 -114 -36.5 -211t-117 -157t-206.5 -60h-148l46 330h-86l6 46h87l44 309h134q125 0 201 -55.5zM399 105q65 55 93.5 141t28.5 184q0 121 -58.5 163t-155.5 42h-85l-36 -259h178l-7 -46h-178l-38 -280h89q104 0 169 55z" />
    <glyph glyph-name="E" unicode="E" horiz-adv-x="509" 
d="M222 635l-36 -255h242l-6 -50h-242l-39 -280h293l-8 -50h-352l96 685h346l-14 -50h-280z" />
    <glyph glyph-name="Eacute" unicode="&#xc9;" horiz-adv-x="509" 
d="M222 635l-36 -255h242l-6 -50h-242l-39 -280h293l-8 -50h-352l96 685h346l-14 -50h-280zM268 758l-11 34l199 96l20 -52z" />
    <glyph glyph-name="Ebreve" unicode="&#x114;" horiz-adv-x="509" 
d="M222 635l-36 -255h242l-6 -50h-242l-39 -280h293l-8 -50h-352l96 685h346l-14 -50h-280zM269.5 794q-32.5 29 -33.5 73l39 5q6 -28 26.5 -44t53.5 -16q35 0 61 17t40 46l39 -12q-12 -43 -51.5 -70.5t-89.5 -27.5q-52 0 -84.5 29z" />
    <glyph glyph-name="Ecaron" unicode="&#x11a;" horiz-adv-x="509" 
d="M222 635l-36 -255h242l-6 -50h-242l-39 -280h293l-8 -50h-352l96 685h346l-14 -50h-280zM370 756h-35l-116 101l28 30l110 -79l132 80l23 -31z" />
    <glyph glyph-name="Ecircumflex" unicode="&#xca;" horiz-adv-x="509" 
d="M222 635l-36 -255h242l-6 -50h-242l-39 -280h293l-8 -50h-352l96 685h346l-14 -50h-280zM245 762l-25 30l143 102h36l115 -102l-27 -30l-111 80z" />
    <glyph glyph-name="Edieresis" unicode="&#xcb;" horiz-adv-x="509" 
d="M222 635l-36 -255h242l-6 -50h-242l-39 -280h293l-8 -50h-352l96 685h346l-14 -50h-280zM302 857.5q10 -10.5 10 -25.5q0 -19 -11.5 -31t-30.5 -12q-16 0 -26.5 10.5t-10.5 25.5q0 19 12.5 31t30.5 12q16 0 26 -10.5zM490.5 857.5q10.5 -10.5 10.5 -25.5q0 -18 -12 -30.5
t-30 -12.5q-16 0 -26.5 10.5t-10.5 25.5q0 19 12 31t30 12q16 0 26.5 -10.5z" />
    <glyph glyph-name="Edotaccent" unicode="&#x116;" horiz-adv-x="509" 
d="M222 635l-36 -255h242l-6 -50h-242l-39 -280h293l-8 -50h-352l96 685h346l-14 -50h-280zM400 868.5q11 -10.5 11 -27.5q0 -20 -12.5 -32.5t-33.5 -12.5q-18 0 -29 11t-11 28q0 19 13 31.5t33 12.5q18 0 29 -10.5z" />
    <glyph glyph-name="Egrave" unicode="&#xc8;" horiz-adv-x="509" 
d="M222 635l-36 -255h242l-6 -50h-242l-39 -280h293l-8 -50h-352l96 685h346l-14 -50h-280zM450 758l-187 78l33 52l174 -96z" />
    <glyph glyph-name="Emacron" unicode="&#x112;" horiz-adv-x="509" 
d="M222 635l-36 -255h242l-6 -50h-242l-39 -280h293l-8 -50h-352l96 685h346l-14 -50h-280zM250 849h240l-7 -47h-240z" />
    <glyph glyph-name="Eogonek" unicode="&#x118;" horiz-adv-x="509" 
d="M186 380h242l-6 -50h-242l-39 -280h293l-8 -50h-30q-76 -32 -108.5 -61t-32.5 -64q0 -44 56 -44q23 0 58 6l-10 -49q-30 -6 -57 -6q-48 0 -74.5 23t-26.5 59q0 42 27 75t89 61h-243l96 685h346l-14 -50h-280z" />
    <glyph glyph-name="F" unicode="F" horiz-adv-x="478" 
d="M222 635l-37 -267h237l-7 -50h-237l-45 -318h-59l96 685h340l-14 -50h-274z" />
    <glyph glyph-name="G" unicode="G" horiz-adv-x="615" 
d="M506 679q44 -17 83 -52l-40 -36q-32 29 -65 41.5t-78 12.5q-90 0 -151.5 -58t-91.5 -148t-30 -186q0 -107 47.5 -160t135.5 -53q79 0 147 37l35 242h-132l-1 50h199l-44 -322q-98 -58 -210 -58t-175.5 69.5t-63.5 201.5q0 106 37.5 206.5t113.5 165t184 64.5
q56 0 100 -17z" />
    <glyph glyph-name="Gbreve" unicode="&#x11e;" horiz-adv-x="616" 
d="M506 679q44 -17 83 -52l-40 -36q-32 29 -65 41.5t-78 12.5q-90 0 -151.5 -58t-91.5 -148t-30 -186q0 -107 47.5 -160t135.5 -53q79 0 147 37l35 242h-132l-1 50h199l-44 -322q-98 -58 -210 -58t-175.5 69.5t-63.5 201.5q0 106 37.5 206.5t113.5 165t184 64.5
q56 0 100 -17zM331.5 794q-32.5 29 -33.5 73l39 5q6 -28 26.5 -44t53.5 -16q35 0 61 17t40 46l39 -12q-12 -43 -51.5 -70.5t-89.5 -27.5q-52 0 -84.5 29z" />
    <glyph glyph-name="Gcircumflex" unicode="&#x11c;" horiz-adv-x="616" 
d="M506 679q44 -17 83 -52l-40 -36q-32 29 -65 41.5t-78 12.5q-90 0 -151.5 -58t-91.5 -148t-30 -186q0 -107 47.5 -160t135.5 -53q79 0 147 37l35 242h-132l-1 50h199l-44 -322q-98 -58 -210 -58t-175.5 69.5t-63.5 201.5q0 106 37.5 206.5t113.5 165t184 64.5
q56 0 100 -17zM307 762l-25 30l143 102h36l115 -102l-27 -30l-111 80z" />
    <glyph glyph-name="Gcommaaccent" unicode="&#x122;" horiz-adv-x="616" 
d="M506 679q44 -17 83 -52l-40 -36q-32 29 -65 41.5t-78 12.5q-90 0 -151.5 -58t-91.5 -148t-30 -186q0 -107 47.5 -160t135.5 -53q79 0 147 37l35 242h-132l-1 50h199l-44 -322q-98 -58 -210 -58t-175.5 69.5t-63.5 201.5q0 106 37.5 206.5t113.5 165t184 64.5
q56 0 100 -17zM316 -96.5q11 -11.5 11 -27.5q0 -15 -6 -28.5t-25 -43.5l-52 -83h-36l50 115q-8 6 -13 15t-5 19q0 19 13.5 32t33.5 13q18 0 29 -11.5z" />
    <glyph glyph-name="Gdotaccent" unicode="&#x120;" horiz-adv-x="616" 
d="M506 679q44 -17 83 -52l-40 -36q-32 29 -65 41.5t-78 12.5q-90 0 -151.5 -58t-91.5 -148t-30 -186q0 -107 47.5 -160t135.5 -53q79 0 147 37l35 242h-132l-1 50h199l-44 -322q-98 -58 -210 -58t-175.5 69.5t-63.5 201.5q0 106 37.5 206.5t113.5 165t184 64.5
q56 0 100 -17zM463 868.5q11 -10.5 11 -27.5q0 -20 -12.5 -32.5t-33.5 -12.5q-18 0 -29 11t-11 28q0 19 13 31.5t33 12.5q18 0 29 -10.5z" />
    <glyph glyph-name="H" unicode="H" horiz-adv-x="667" 
d="M180 335l-47 -335h-59l96 685h59l-42 -299h328l42 299h59l-96 -685h-60l48 335h-328z" />
    <glyph glyph-name="Hbar" unicode="&#x126;" horiz-adv-x="666" 
d="M593 513l-72 -513h-59l47 335h-328l-47 -335h-59l72 513h-64l6 45h65l17 127h60l-18 -127h327l18 127h59l-17 -127h63l-7 -45h-63zM207 513l-19 -127h328l18 127h-327z" />
    <glyph glyph-name="Hcircumflex" unicode="&#x124;" horiz-adv-x="667" 
d="M180 335l-47 -335h-59l96 685h59l-42 -299h328l42 299h59l-96 -685h-60l48 335h-328zM290 762l-25 30l143 102h36l115 -102l-27 -30l-111 80z" />
    <glyph glyph-name="I" unicode="I" horiz-adv-x="281" 
d="M74 0l96 685h60l-96 -685h-60z" />
    <glyph glyph-name="IJ" unicode="&#x132;" horiz-adv-x="570" 
d="M74 0l96 685h60l-96 -685h-60zM411.5 -9q-20.5 -38 -56.5 -62.5t-97 -47.5l-13 45q49 20 76 41.5t40.5 51.5t20.5 78l83 588h59l-83 -595q-9 -61 -29.5 -99z" />
    <glyph glyph-name="Iacute" unicode="&#xcd;" horiz-adv-x="281" 
d="M74 0l96 685h60l-96 -685h-60zM121 758l-11 34l199 96l20 -52z" />
    <glyph glyph-name="Ibreve" unicode="&#x12c;" horiz-adv-x="281" 
d="M74 0l96 685h60l-96 -685h-60zM123.5 794q-32.5 29 -33.5 73l39 5q6 -28 26.5 -44t53.5 -16q35 0 61 17t40 46l39 -12q-12 -43 -51.5 -70.5t-89.5 -27.5q-52 0 -84.5 29z" />
    <glyph glyph-name="Icircumflex" unicode="&#xce;" horiz-adv-x="281" 
d="M74 0l96 685h60l-96 -685h-60zM98 762l-25 30l143 102h36l115 -102l-27 -30l-111 80z" />
    <glyph glyph-name="Idieresis" unicode="&#xcf;" horiz-adv-x="281" 
d="M74 0l96 685h60l-96 -685h-60zM155 857.5q10 -10.5 10 -25.5q0 -19 -11.5 -31t-30.5 -12q-16 0 -26.5 10.5t-10.5 25.5q0 19 12.5 31t30.5 12q16 0 26 -10.5zM343.5 857.5q10.5 -10.5 10.5 -25.5q0 -18 -12 -30.5t-30 -12.5q-16 0 -26.5 10.5t-10.5 25.5q0 19 12 31
t30 12q16 0 26.5 -10.5z" />
    <glyph glyph-name="Idotaccent" unicode="&#x130;" horiz-adv-x="281" 
d="M74 0l96 685h60l-96 -685h-60zM253 868.5q11 -10.5 11 -27.5q0 -20 -12.5 -32.5t-33.5 -12.5q-18 0 -29 11t-11 28q0 19 13 31.5t33 12.5q18 0 29 -10.5z" />
    <glyph glyph-name="Igrave" unicode="&#xcc;" horiz-adv-x="281" 
d="M74 0l96 685h60l-96 -685h-60zM303 758l-187 78l33 52l174 -96z" />
    <glyph glyph-name="Imacron" unicode="&#x12a;" horiz-adv-x="281" 
d="M74 0l96 685h60l-96 -685h-60zM103 849h240l-7 -47h-240z" />
    <glyph glyph-name="Iogonek" unicode="&#x12e;" horiz-adv-x="281" 
d="M27 -61q-32 -29 -32 -64q0 -44 55 -44q24 0 59 6l-10 -49q-30 -6 -57 -6q-49 0 -75 23t-26 59q0 45 31 80t103 64l95 677h60l-96 -683l1 -2q-76 -32 -108 -61z" />
    <glyph glyph-name="Itilde" unicode="&#x128;" horiz-adv-x="281" 
d="M74 0l96 685h60l-96 -685h-60zM243 800q-16 7 -34 20q-15 10 -23.5 14t-18.5 4q-20 0 -33 -9t-31 -32l-33 21q45 66 98 66q17 0 30.5 -6t31.5 -18q14 -10 25 -15.5t23 -5.5q16 0 30.5 10.5t32.5 34.5l34 -22q-44 -69 -94 -69q-22 0 -38 7z" />
    <glyph glyph-name="J" unicode="J" horiz-adv-x="289" 
d="M130.5 -9q-20.5 -38 -56.5 -62.5t-97 -47.5l-13 45q49 20 76 41.5t40.5 51.5t20.5 78l83 588h59l-83 -595q-9 -61 -29.5 -99z" />
    <glyph glyph-name="Jcircumflex" unicode="&#x134;" horiz-adv-x="289" 
d="M130.5 -9q-20.5 -38 -56.5 -62.5t-97 -47.5l-13 45q49 20 76 41.5t40.5 51.5t20.5 78l83 588h59l-83 -595q-9 -61 -29.5 -99zM110 762l-25 30l143 102h36l115 -102l-27 -30l-111 80z" />
    <glyph glyph-name="K" unicode="K" horiz-adv-x="545" 
d="M74 0l96 685h59l-96 -685h-59zM508 0h-71l-248 367l327 318h72l-330 -320z" />
    <glyph glyph-name="Kcommaaccent" unicode="&#x136;" horiz-adv-x="545" 
d="M74 0l96 685h59l-96 -685h-59zM508 0h-71l-248 367l327 318h72l-330 -320zM283 -96.5q11 -11.5 11 -27.5q0 -15 -6 -28.5t-25 -43.5l-52 -83h-36l50 115q-8 6 -13 15t-5 19q0 19 13.5 32t33.5 13q18 0 29 -11.5z" />
    <glyph glyph-name="L" unicode="L" horiz-adv-x="472" 
d="M426 54l-16 -54h-336l96 685h59l-88 -631h285z" />
    <glyph glyph-name="Lacute" unicode="&#x139;" horiz-adv-x="472" 
d="M426 54l-16 -54h-336l96 685h59l-88 -631h285zM121 758l-11 34l199 96l20 -52z" />
    <glyph glyph-name="Lcaron" unicode="&#x13d;" horiz-adv-x="472" 
d="M426 54l-16 -54h-336l96 685h59l-88 -631h285zM312 521l-35 5l40 165l55 -6z" />
    <glyph glyph-name="Lcommaaccent" unicode="&#x13b;" horiz-adv-x="472" 
d="M426 54l-16 -54h-336l96 685h59l-88 -631h285zM259 -96.5q11 -11.5 11 -27.5q0 -15 -6 -28.5t-25 -43.5l-52 -83h-36l50 115q-8 6 -13 15t-5 19q0 19 13.5 32t33.5 13q18 0 29 -11.5z" />
    <glyph glyph-name="Ldot" unicode="&#x13f;" horiz-adv-x="472" 
d="M426 54l-16 -54h-336l96 685h59l-88 -631h285zM414.5 400.5q10.5 -10.5 10.5 -27.5q0 -19 -12.5 -32t-33.5 -14q-18 1 -29 11.5t-11 27.5q0 20 13 32.5t33 12.5q19 0 29.5 -10.5z" />
    <glyph glyph-name="Lslash" unicode="&#x141;" horiz-adv-x="482" 
d="M84 0l40 280l-67 -39l-19 39l94 55l49 350h59l-44 -313l197 113l19 -39l-223 -129l-37 -263h285l-16 -54h-337z" />
    <glyph glyph-name="M" unicode="M" horiz-adv-x="776" 
d="M604 0l15 330q7 182 17 298l-249 -547h-57l-101 545q-10 -64 -64 -298l-76 -328h-57l161 685h79l96 -534l238 534h86l-31 -685h-57z" />
    <glyph glyph-name="N" unicode="N" horiz-adv-x="670" 
d="M446 0l-237 631q-1 -45 -6.5 -100t-18.5 -150l-54 -381h-56l96 685h77l237 -630q3 89 20 215l58 415h57l-97 -685h-76z" />
    <glyph glyph-name="Nacute" unicode="&#x143;" horiz-adv-x="670" 
d="M446 0l-237 631q-1 -45 -6.5 -100t-18.5 -150l-54 -381h-56l96 685h77l237 -630q3 89 20 215l58 415h57l-97 -685h-76zM324 758l-11 34l199 96l20 -52z" />
    <glyph glyph-name="Ncaron" unicode="&#x147;" horiz-adv-x="670" 
d="M446 0l-237 631q-1 -45 -6.5 -100t-18.5 -150l-54 -381h-56l96 685h77l237 -630q3 89 20 215l58 415h57l-97 -685h-76zM427 756h-35l-116 101l28 30l110 -79l132 80l23 -31z" />
    <glyph glyph-name="Ncommaaccent" unicode="&#x145;" horiz-adv-x="670" 
d="M446 0l-237 631q-1 -45 -6.5 -100t-18.5 -150l-54 -381h-56l96 685h77l237 -630q3 89 20 215l58 415h57l-97 -685h-76zM314 -96.5q11 -11.5 11 -27.5q0 -15 -6 -28.5t-25 -43.5l-52 -83h-36l50 115q-8 6 -13 15t-5 19q0 19 13.5 32t33.5 13q18 0 29 -11.5z" />
    <glyph glyph-name="Eng" unicode="&#x14a;" horiz-adv-x="670" 
d="M493.5 -98q-19.5 -37 -51 -60t-86.5 -46l-15 44q41 19 65 36t40 46t25 78h-25l-237 631q-1 -45 -6.5 -100t-18.5 -150l-54 -381h-56l96 685h77l237 -630q3 89 20 215l58 415h57l-97 -685q-9 -61 -28.5 -98z" />
    <glyph glyph-name="Ntilde" unicode="&#xd1;" horiz-adv-x="670" 
d="M446 0l-237 631q-1 -45 -6.5 -100t-18.5 -150l-54 -381h-56l96 685h77l237 -630q3 89 20 215l58 415h57l-97 -685h-76zM446 800q-16 7 -34 20q-15 10 -23.5 14t-18.5 4q-20 0 -33 -9t-31 -32l-33 21q45 66 98 66q17 0 30.5 -6t31.5 -18q14 -10 25 -15.5t23 -5.5
q16 0 30.5 10.5t32.5 34.5l34 -22q-44 -69 -94 -69q-22 0 -38 7z" />
    <glyph glyph-name="O" unicode="O" horiz-adv-x="688" 
d="M577 625.5q63 -70.5 63 -201.5q0 -100 -33 -200t-107.5 -167.5t-190.5 -67.5q-110 0 -174 71t-64 202q0 97 34 197t109 168.5t190 68.5q110 0 173 -70.5zM245 583.5q-60 -61.5 -86 -150.5t-26 -177q0 -107 47 -161.5t130 -54.5q98 0 158 62t85 151.5t25 178.5
q0 106 -46 159.5t-131 53.5q-96 0 -156 -61.5z" />
    <glyph glyph-name="Oacute" unicode="&#xd3;" horiz-adv-x="688" 
d="M577 625.5q63 -70.5 63 -201.5q0 -100 -33 -200t-107.5 -167.5t-190.5 -67.5q-110 0 -174 71t-64 202q0 97 34 197t109 168.5t190 68.5q110 0 173 -70.5zM245 583.5q-60 -61.5 -86 -150.5t-26 -177q0 -107 47 -161.5t130 -54.5q98 0 158 62t85 151.5t25 178.5
q0 106 -46 159.5t-131 53.5q-96 0 -156 -61.5zM318 758l-11 34l199 96l20 -52z" />
    <glyph glyph-name="Obreve" unicode="&#x14e;" horiz-adv-x="688" 
d="M577 625.5q63 -70.5 63 -201.5q0 -100 -33 -200t-107.5 -167.5t-190.5 -67.5q-110 0 -174 71t-64 202q0 97 34 197t109 168.5t190 68.5q110 0 173 -70.5zM245 583.5q-60 -61.5 -86 -150.5t-26 -177q0 -107 47 -161.5t130 -54.5q98 0 158 62t85 151.5t25 178.5
q0 106 -46 159.5t-131 53.5q-96 0 -156 -61.5zM319.5 794q-32.5 29 -33.5 73l39 5q6 -28 26.5 -44t53.5 -16q35 0 61 17t40 46l39 -12q-12 -43 -51.5 -70.5t-89.5 -27.5q-52 0 -84.5 29z" />
    <glyph glyph-name="Ocircumflex" unicode="&#xd4;" horiz-adv-x="688" 
d="M577 625.5q63 -70.5 63 -201.5q0 -100 -33 -200t-107.5 -167.5t-190.5 -67.5q-110 0 -174 71t-64 202q0 97 34 197t109 168.5t190 68.5q110 0 173 -70.5zM245 583.5q-60 -61.5 -86 -150.5t-26 -177q0 -107 47 -161.5t130 -54.5q98 0 158 62t85 151.5t25 178.5
q0 106 -46 159.5t-131 53.5q-96 0 -156 -61.5zM295 762l-25 30l143 102h36l115 -102l-27 -30l-111 80z" />
    <glyph glyph-name="Odieresis" unicode="&#xd6;" horiz-adv-x="688" 
d="M577 625.5q63 -70.5 63 -201.5q0 -100 -33 -200t-107.5 -167.5t-190.5 -67.5q-110 0 -174 71t-64 202q0 97 34 197t109 168.5t190 68.5q110 0 173 -70.5zM245 583.5q-60 -61.5 -86 -150.5t-26 -177q0 -107 47 -161.5t130 -54.5q98 0 158 62t85 151.5t25 178.5
q0 106 -46 159.5t-131 53.5q-96 0 -156 -61.5zM352 857.5q10 -10.5 10 -25.5q0 -19 -11.5 -31t-30.5 -12q-16 0 -26.5 10.5t-10.5 25.5q0 19 12.5 31t30.5 12q16 0 26 -10.5zM540.5 857.5q10.5 -10.5 10.5 -25.5q0 -18 -12 -30.5t-30 -12.5q-16 0 -26.5 10.5t-10.5 25.5
q0 19 12 31t30 12q16 0 26.5 -10.5z" />
    <glyph glyph-name="Ograve" unicode="&#xd2;" horiz-adv-x="688" 
d="M577 625.5q63 -70.5 63 -201.5q0 -100 -33 -200t-107.5 -167.5t-190.5 -67.5q-110 0 -174 71t-64 202q0 97 34 197t109 168.5t190 68.5q110 0 173 -70.5zM245 583.5q-60 -61.5 -86 -150.5t-26 -177q0 -107 47 -161.5t130 -54.5q98 0 158 62t85 151.5t25 178.5
q0 106 -46 159.5t-131 53.5q-96 0 -156 -61.5zM500 758l-187 78l33 52l174 -96z" />
    <glyph glyph-name="Ohungarumlaut" unicode="&#x150;" horiz-adv-x="688" 
d="M577 625.5q63 -70.5 63 -201.5q0 -100 -33 -200t-107.5 -167.5t-190.5 -67.5q-110 0 -174 71t-64 202q0 97 34 197t109 168.5t190 68.5q110 0 173 -70.5zM245 583.5q-60 -61.5 -86 -150.5t-26 -177q0 -107 47 -161.5t130 -54.5q98 0 158 62t85 151.5t25 178.5
q0 106 -46 159.5t-131 53.5q-96 0 -156 -61.5zM443 768l-36 18l99 151l49 -27zM323 773l-36 17l90 147l49 -27z" />
    <glyph glyph-name="Omacron" unicode="&#x14c;" horiz-adv-x="688" 
d="M577 625.5q63 -70.5 63 -201.5q0 -100 -33 -200t-107.5 -167.5t-190.5 -67.5q-110 0 -174 71t-64 202q0 97 34 197t109 168.5t190 68.5q110 0 173 -70.5zM245 583.5q-60 -61.5 -86 -150.5t-26 -177q0 -107 47 -161.5t130 -54.5q98 0 158 62t85 151.5t25 178.5
q0 106 -46 159.5t-131 53.5q-96 0 -156 -61.5zM300 849h240l-7 -47h-240z" />
    <glyph glyph-name="Oslash" unicode="&#xd8;" horiz-adv-x="688" 
d="M610 575q30 -62 30 -151q0 -100 -33 -200t-107.5 -167.5t-190.5 -67.5q-40 0 -78 11l-52 -120l-49 15l55 124q-55 31 -84.5 93t-29.5 150q0 97 34 197t109 168.5t190 68.5q42 0 75 -10l53 124l50 -14l-58 -128q56 -31 86 -93zM212 65l250 573q-25 7 -61 7
q-96 0 -156 -61.5t-86 -150.5t-26 -177q0 -140 79 -191zM468 102q60 62 85 151.5t25 178.5q0 143 -80 190l-250 -573q29 -9 62 -9q98 0 158 62z" />
    <glyph glyph-name="Oslashacute" unicode="&#x1fe;" horiz-adv-x="688" 
d="M610 575q30 -62 30 -151q0 -100 -33 -200t-107.5 -167.5t-190.5 -67.5q-40 0 -78 11l-52 -120l-49 15l55 124q-55 31 -84.5 93t-29.5 150q0 97 34 197t109 168.5t190 68.5q42 0 75 -10l53 124l50 -14l-58 -128q56 -31 86 -93zM212 65l250 573q-25 7 -61 7
q-96 0 -156 -61.5t-86 -150.5t-26 -177q0 -140 79 -191zM468 102q60 62 85 151.5t25 178.5q0 143 -80 190l-250 -573q29 -9 62 -9q98 0 158 62zM320 770l-11 34l199 96l20 -52z" />
    <glyph glyph-name="Otilde" unicode="&#xd5;" horiz-adv-x="688" 
d="M577 625.5q63 -70.5 63 -201.5q0 -100 -33 -200t-107.5 -167.5t-190.5 -67.5q-110 0 -174 71t-64 202q0 97 34 197t109 168.5t190 68.5q110 0 173 -70.5zM245 583.5q-60 -61.5 -86 -150.5t-26 -177q0 -107 47 -161.5t130 -54.5q98 0 158 62t85 151.5t25 178.5
q0 106 -46 159.5t-131 53.5q-96 0 -156 -61.5zM440 800q-16 7 -34 20q-15 10 -23.5 14t-18.5 4q-20 0 -33 -9t-31 -32l-33 21q45 66 98 66q17 0 30.5 -6t31.5 -18q14 -10 25 -15.5t23 -5.5q16 0 30.5 10.5t32.5 34.5l34 -22q-44 -69 -94 -69q-22 0 -38 7z" />
    <glyph glyph-name="OE" unicode="&#x152;" horiz-adv-x="872" 
d="M540 635q38 -32 58.5 -86t20.5 -126q0 -28 -1 -43h167l-6 -50h-167q-13 -85 -50 -159.5t-100 -120.5h329l-8 -50h-415q-36 -11 -71 -11q-67 0 -118 31.5t-79.5 93t-28.5 147.5q0 95 34 196t106 170t180 69q36 0 69 -11h413l-14 -50h-319zM514.5 592q-44.5 53 -123.5 53
q-90 0 -148 -62.5t-84 -152.5t-26 -175q0 -106 45 -160.5t122 -54.5q92 0 150.5 63.5t83.5 154t25 177.5q0 104 -44.5 157z" />
    <glyph glyph-name="P" unicode="P" horiz-adv-x="567" 
d="M497 642q59 -43 59 -130q0 -105 -67.5 -175t-217.5 -70h-101l-37 -267h-59l96 685h158q110 0 169 -43zM444 371q50 55 50 141q0 66 -43 95t-127 29h-102l-45 -320h97q120 0 170 55z" />
    <glyph glyph-name="Thorn" unicode="&#xde;" horiz-adv-x="567" 
d="M539 385q0 -64 -27 -120.5t-91 -92.5t-169 -36h-100l-19 -136h-59l96 685h59l-17 -122h99q228 0 228 -178zM425.5 242.5q51.5 56.5 51.5 141.5q0 71 -42 100t-127 29h-103l-46 -327h97q118 0 169.5 56.5z" />
    <glyph glyph-name="Q" unicode="Q" horiz-adv-x="678" 
d="M618.5 261q-21.5 -82 -70 -147.5t-123.5 -92.5q53 -2 99.5 -18.5t80.5 -47.5l-44 -48q-47 47 -102.5 64.5t-149.5 17.5q-110 0 -174 71t-64 202q0 97 34 197t109 168.5t190 68.5q110 0 173 -70.5t63 -201.5q0 -81 -21.5 -163zM180 94.5q47 -54.5 130 -54.5q98 0 158 62
t85 151.5t25 178.5q0 106 -46 159.5t-131 53.5q-96 0 -156 -61.5t-86 -150.5t-26 -177q0 -107 47 -161.5z" />
    <glyph glyph-name="R" unicode="R" horiz-adv-x="587" 
d="M510.5 397q-42.5 -58 -137.5 -81l144 -316h-66l-136 307h-139l-43 -307h-59l96 685h164q112 0 165.5 -39t53.5 -118q0 -73 -42.5 -131zM446.5 407.5q44.5 51.5 44.5 122.5q0 55 -37 80.5t-120 25.5h-112l-39 -280h118q101 0 145.5 51.5z" />
    <glyph glyph-name="Racute" unicode="&#x154;" horiz-adv-x="587" 
d="M510.5 397q-42.5 -58 -137.5 -81l144 -316h-66l-136 307h-139l-43 -307h-59l96 685h164q112 0 165.5 -39t53.5 -118q0 -73 -42.5 -131zM446.5 407.5q44.5 51.5 44.5 122.5q0 55 -37 80.5t-120 25.5h-112l-39 -280h118q101 0 145.5 51.5zM273 758l-11 34l199 96l20 -52z
" />
    <glyph glyph-name="Rcaron" unicode="&#x158;" horiz-adv-x="587" 
d="M510.5 397q-42.5 -58 -137.5 -81l144 -316h-66l-136 307h-139l-43 -307h-59l96 685h164q112 0 165.5 -39t53.5 -118q0 -73 -42.5 -131zM446.5 407.5q44.5 51.5 44.5 122.5q0 55 -37 80.5t-120 25.5h-112l-39 -280h118q101 0 145.5 51.5zM375 756h-35l-116 101l28 30
l110 -79l132 80l23 -31z" />
    <glyph glyph-name="Rcommaaccent" unicode="&#x156;" horiz-adv-x="587" 
d="M510.5 397q-42.5 -58 -137.5 -81l144 -316h-66l-136 307h-139l-43 -307h-59l96 685h164q112 0 165.5 -39t53.5 -118q0 -73 -42.5 -131zM446.5 407.5q44.5 51.5 44.5 122.5q0 55 -37 80.5t-120 25.5h-112l-39 -280h118q101 0 145.5 51.5zM283 -96.5q11 -11.5 11 -27.5
q0 -15 -6 -28.5t-25 -43.5l-52 -83h-36l50 115q-8 6 -13 15t-5 19q0 19 13.5 32t33.5 13q18 0 29 -11.5z" />
    <glyph glyph-name="S" unicode="S" horiz-adv-x="536" 
d="M429 676.5q45 -19.5 82 -57.5l-38 -36q-32 33 -67.5 47.5t-81.5 14.5q-70 0 -116 -35.5t-46 -92.5q0 -46 30.5 -74t107.5 -54q87 -27 131 -69t44 -116q0 -50 -26 -99.5t-83 -82.5t-145 -33q-68 0 -118.5 23t-89.5 65l39 36q33 -36 73.5 -54.5t96.5 -18.5q61 0 104.5 22.5
t65.5 59.5t22 80q0 51 -32 82.5t-108 57.5q-91 28 -131.5 68t-40.5 105q0 42 24.5 84t74.5 69.5t123 27.5q60 0 105 -19.5z" />
    <glyph glyph-name="Sacute" unicode="&#x15a;" horiz-adv-x="536" 
d="M429 676.5q45 -19.5 82 -57.5l-38 -36q-32 33 -67.5 47.5t-81.5 14.5q-70 0 -116 -35.5t-46 -92.5q0 -46 30.5 -74t107.5 -54q87 -27 131 -69t44 -116q0 -50 -26 -99.5t-83 -82.5t-145 -33q-68 0 -118.5 23t-89.5 65l39 36q33 -36 73.5 -54.5t96.5 -18.5q61 0 104.5 22.5
t65.5 59.5t22 80q0 51 -32 82.5t-108 57.5q-91 28 -131.5 68t-40.5 105q0 42 24.5 84t74.5 69.5t123 27.5q60 0 105 -19.5zM250 758l-11 34l199 96l20 -52z" />
    <glyph glyph-name="Scaron" unicode="&#x160;" horiz-adv-x="536" 
d="M429 676.5q45 -19.5 82 -57.5l-38 -36q-32 33 -67.5 47.5t-81.5 14.5q-70 0 -116 -35.5t-46 -92.5q0 -46 30.5 -74t107.5 -54q87 -27 131 -69t44 -116q0 -50 -26 -99.5t-83 -82.5t-145 -33q-68 0 -118.5 23t-89.5 65l39 36q33 -36 73.5 -54.5t96.5 -18.5q61 0 104.5 22.5
t65.5 59.5t22 80q0 51 -32 82.5t-108 57.5q-91 28 -131.5 68t-40.5 105q0 42 24.5 84t74.5 69.5t123 27.5q60 0 105 -19.5zM353 756h-35l-116 101l28 30l110 -79l132 80l23 -31z" />
    <glyph glyph-name="Scedilla" unicode="&#x15e;" horiz-adv-x="536" 
d="M431 320q44 -42 44 -116q0 -50 -25.5 -99t-82 -82.5t-143.5 -33.5l-8 -53q42 -4 62.5 -22t20.5 -47q0 -39 -32 -67t-83 -28q-46 0 -79 23l22 35q25 -16 56 -16q26 0 45 13.5t19 36.5q0 21 -18 30t-64 10l19 87q-102 11 -171 86l39 36q33 -36 73.5 -54.5t96.5 -18.5
q61 0 104.5 22.5t65.5 59.5t22 80q0 51 -32 82.5t-108 57.5q-91 28 -131.5 68t-40.5 105q0 42 24.5 84t74.5 69.5t123 27.5q60 0 105 -19.5t82 -57.5l-38 -36q-32 33 -67.5 47.5t-81.5 14.5q-70 0 -116 -35.5t-46 -92.5q0 -46 30.5 -74t107.5 -54q87 -27 131 -69z" />
    <glyph glyph-name="Scircumflex" unicode="&#x15c;" horiz-adv-x="536" 
d="M429 676.5q45 -19.5 82 -57.5l-38 -36q-32 33 -67.5 47.5t-81.5 14.5q-70 0 -116 -35.5t-46 -92.5q0 -46 30.5 -74t107.5 -54q87 -27 131 -69t44 -116q0 -50 -26 -99.5t-83 -82.5t-145 -33q-68 0 -118.5 23t-89.5 65l39 36q33 -36 73.5 -54.5t96.5 -18.5q61 0 104.5 22.5
t65.5 59.5t22 80q0 51 -32 82.5t-108 57.5q-91 28 -131.5 68t-40.5 105q0 42 24.5 84t74.5 69.5t123 27.5q60 0 105 -19.5zM227 762l-25 30l143 102h36l115 -102l-27 -30l-111 80z" />
    <glyph glyph-name="Scommaaccent" unicode="&#x218;" horiz-adv-x="536" 
d="M429 676.5q45 -19.5 82 -57.5l-38 -36q-32 33 -67.5 47.5t-81.5 14.5q-70 0 -116 -35.5t-46 -92.5q0 -46 30.5 -74t107.5 -54q87 -27 131 -69t44 -116q0 -50 -26 -99.5t-83 -82.5t-145 -33q-68 0 -118.5 23t-89.5 65l39 36q33 -36 73.5 -54.5t96.5 -18.5q61 0 104.5 22.5
t65.5 59.5t22 80q0 51 -32 82.5t-108 57.5q-91 28 -131.5 68t-40.5 105q0 42 24.5 84t74.5 69.5t123 27.5q60 0 105 -19.5zM240 -96.5q11 -11.5 11 -27.5q0 -15 -6 -28.5t-25 -43.5l-52 -83h-36l50 115q-8 6 -13 15t-5 19q0 19 13.5 32t33.5 13q18 0 29 -11.5z" />
    <glyph glyph-name="T" unicode="T" horiz-adv-x="492" 
d="M328 632l-89 -632h-60l89 632h-202l8 53h468l-15 -53h-199z" />
    <glyph glyph-name="Tbar" unicode="&#x166;" horiz-adv-x="498" 
d="M418 385l-6 -47h-125l-48 -338h-60l48 338h-122l7 47h121l35 247h-202l8 53h468l-15 -53h-199l-35 -247h125z" />
    <glyph glyph-name="Tcaron" unicode="&#x164;" horiz-adv-x="492" 
d="M328 632l-89 -632h-60l89 632h-202l8 53h468l-15 -53h-199zM324 756h-35l-116 101l28 30l110 -79l132 80l23 -31z" />
    <glyph glyph-name="Tcedilla" unicode="&#x162;" horiz-adv-x="492" 
d="M527 632h-199l-89 -632l-10 -64q42 -4 62 -22t20 -47q0 -39 -32 -67t-82 -28q-46 0 -79 23l22 35q25 -16 56 -16q26 0 45.5 13.5t19.5 36.5q0 21 -18.5 30t-64.5 10l21 96h-20l89 632h-202l8 53h468z" />
    <glyph glyph-name="uni021A" unicode="&#x21a;" horiz-adv-x="492" 
d="M328 632l-89 -632h-60l89 632h-202l8 53h468l-15 -53h-199zM225 -96.5q11 -11.5 11 -27.5q0 -15 -6 -28.5t-25 -43.5l-52 -83h-36l50 115q-8 6 -13 15t-5 19q0 19 13.5 32t33.5 13q18 0 29 -11.5z" />
    <glyph glyph-name="U" unicode="U" horiz-adv-x="649" 
d="M462 49.5q-65 -60.5 -173 -60.5q-98 0 -148 49.5t-50 133.5q0 22 3 44l66 469h59l-65 -468q-3 -22 -3 -43q0 -133 139 -133q85 0 132.5 47.5t59.5 132.5l66 464h60l-66 -473q-15 -102 -80 -162.5z" />
    <glyph glyph-name="Uacute" unicode="&#xda;" horiz-adv-x="649" 
d="M462 49.5q-65 -60.5 -173 -60.5q-98 0 -148 49.5t-50 133.5q0 22 3 44l66 469h59l-65 -468q-3 -22 -3 -43q0 -133 139 -133q85 0 132.5 47.5t59.5 132.5l66 464h60l-66 -473q-15 -102 -80 -162.5zM307 758l-11 34l199 96l20 -52z" />
    <glyph glyph-name="Ubreve" unicode="&#x16c;" horiz-adv-x="649" 
d="M462 49.5q-65 -60.5 -173 -60.5q-98 0 -148 49.5t-50 133.5q0 22 3 44l66 469h59l-65 -468q-3 -22 -3 -43q0 -133 139 -133q85 0 132.5 47.5t59.5 132.5l66 464h60l-66 -473q-15 -102 -80 -162.5zM308.5 794q-32.5 29 -33.5 73l39 5q6 -28 26.5 -44t53.5 -16q35 0 61 17
t40 46l39 -12q-12 -43 -51.5 -70.5t-89.5 -27.5q-52 0 -84.5 29z" />
    <glyph glyph-name="Ucircumflex" unicode="&#xdb;" horiz-adv-x="649" 
d="M462 49.5q-65 -60.5 -173 -60.5q-98 0 -148 49.5t-50 133.5q0 22 3 44l66 469h59l-65 -468q-3 -22 -3 -43q0 -133 139 -133q85 0 132.5 47.5t59.5 132.5l66 464h60l-66 -473q-15 -102 -80 -162.5zM284 762l-25 30l143 102h36l115 -102l-27 -30l-111 80z" />
    <glyph glyph-name="Udieresis" unicode="&#xdc;" horiz-adv-x="649" 
d="M462 49.5q-65 -60.5 -173 -60.5q-98 0 -148 49.5t-50 133.5q0 22 3 44l66 469h59l-65 -468q-3 -22 -3 -43q0 -133 139 -133q85 0 132.5 47.5t59.5 132.5l66 464h60l-66 -473q-15 -102 -80 -162.5zM341 857.5q10 -10.5 10 -25.5q0 -19 -11.5 -31t-30.5 -12
q-16 0 -26.5 10.5t-10.5 25.5q0 19 12.5 31t30.5 12q16 0 26 -10.5zM529.5 857.5q10.5 -10.5 10.5 -25.5q0 -18 -12 -30.5t-30 -12.5q-16 0 -26.5 10.5t-10.5 25.5q0 19 12 31t30 12q16 0 26.5 -10.5z" />
    <glyph glyph-name="Ugrave" unicode="&#xd9;" horiz-adv-x="649" 
d="M462 49.5q-65 -60.5 -173 -60.5q-98 0 -148 49.5t-50 133.5q0 22 3 44l66 469h59l-65 -468q-3 -22 -3 -43q0 -133 139 -133q85 0 132.5 47.5t59.5 132.5l66 464h60l-66 -473q-15 -102 -80 -162.5zM489 758l-187 78l33 52l174 -96z" />
    <glyph glyph-name="Uhungarumlaut" unicode="&#x170;" horiz-adv-x="649" 
d="M462 49.5q-65 -60.5 -173 -60.5q-98 0 -148 49.5t-50 133.5q0 22 3 44l66 469h59l-65 -468q-3 -22 -3 -43q0 -133 139 -133q85 0 132.5 47.5t59.5 132.5l66 464h60l-66 -473q-15 -102 -80 -162.5zM432 768l-36 18l99 151l49 -27zM312 773l-36 17l90 147l49 -27z" />
    <glyph glyph-name="Umacron" unicode="&#x16a;" horiz-adv-x="649" 
d="M462 49.5q-65 -60.5 -173 -60.5q-98 0 -148 49.5t-50 133.5q0 22 3 44l66 469h59l-65 -468q-3 -22 -3 -43q0 -133 139 -133q85 0 132.5 47.5t59.5 132.5l66 464h60l-66 -473q-15 -102 -80 -162.5zM289 849h240l-7 -47h-240z" />
    <glyph glyph-name="Uogonek" unicode="&#x172;" horiz-adv-x="649" 
d="M542 212q-12 -83 -58 -139.5t-121 -74.5q-64 -29 -90.5 -55.5t-26.5 -60.5q0 -25 16 -38.5t48 -13.5q25 0 56 7l-5 -49q-30 -6 -58 -6q-53 0 -82.5 26t-29.5 66q0 73 94 115q-96 1 -145 50t-49 133q0 22 3 44l66 469h59l-65 -468q-3 -22 -3 -43q0 -133 139 -133
q85 0 132.5 47.5t59.5 132.5l66 464h60z" />
    <glyph glyph-name="Uring" unicode="&#x16e;" horiz-adv-x="649" 
d="M462 49.5q-65 -60.5 -173 -60.5q-98 0 -148 49.5t-50 133.5q0 22 3 44l66 469h59l-65 -468q-3 -22 -3 -43q0 -133 139 -133q85 0 132.5 47.5t59.5 132.5l66 464h60l-66 -473q-15 -102 -80 -162.5zM484 924q24 -23 24 -60q0 -46 -31 -75.5t-78 -29.5q-40 0 -64.5 23.5
t-24.5 59.5q0 45 31.5 75t78.5 30q40 0 64 -23zM375.5 895q-16.5 -16 -21.5 -45v-10q0 -21 12.5 -33t34.5 -12q26 0 42 16t21 45q1 4 1 12q0 20 -12.5 31.5t-34.5 11.5q-26 0 -42.5 -16z" />
    <glyph glyph-name="Utilde" unicode="&#x168;" horiz-adv-x="649" 
d="M462 49.5q-65 -60.5 -173 -60.5q-98 0 -148 49.5t-50 133.5q0 22 3 44l66 469h59l-65 -468q-3 -22 -3 -43q0 -133 139 -133q85 0 132.5 47.5t59.5 132.5l66 464h60l-66 -473q-15 -102 -80 -162.5zM428 800q-16 7 -34 20q-15 10 -23.5 14t-18.5 4q-20 0 -33 -9t-31 -32
l-33 21q45 66 98 66q17 0 30.5 -6t31.5 -18q14 -10 25 -15.5t23 -5.5q16 0 30.5 10.5t32.5 34.5l34 -22q-44 -69 -94 -69q-22 0 -38 7z" />
    <glyph glyph-name="V" unicode="V" horiz-adv-x="544" 
d="M201 0l-126 685h62l105 -623l282 623h62l-318 -685h-67z" />
    <glyph glyph-name="W" unicode="W" horiz-adv-x="807" 
d="M515 0l-62 618l-236 -618h-73l-54 685h59l41 -628l238 628h67l64 -629l220 629h57l-247 -685h-74z" />
    <glyph glyph-name="Wacute" unicode="&#x1e82;" horiz-adv-x="807" 
d="M515 0l-62 618l-236 -618h-73l-54 685h59l41 -628l238 628h67l64 -629l220 629h57l-247 -685h-74zM384 758l-11 34l199 96l20 -52z" />
    <glyph glyph-name="Wcircumflex" unicode="&#x174;" horiz-adv-x="807" 
d="M515 0l-62 618l-236 -618h-73l-54 685h59l41 -628l238 628h67l64 -629l220 629h57l-247 -685h-74zM361 762l-25 30l143 102h36l115 -102l-27 -30l-111 80z" />
    <glyph glyph-name="Wdieresis" unicode="&#x1e84;" horiz-adv-x="807" 
d="M515 0l-62 618l-236 -618h-73l-54 685h59l41 -628l238 628h67l64 -629l220 629h57l-247 -685h-74zM418 857.5q10 -10.5 10 -25.5q0 -19 -11.5 -31t-30.5 -12q-16 0 -26.5 10.5t-10.5 25.5q0 19 12.5 31t30.5 12q16 0 26 -10.5zM606.5 857.5q10.5 -10.5 10.5 -25.5
q0 -18 -12 -30.5t-30 -12.5q-16 0 -26.5 10.5t-10.5 25.5q0 19 12 31t30 12q16 0 26.5 -10.5z" />
    <glyph glyph-name="Wgrave" unicode="&#x1e80;" horiz-adv-x="807" 
d="M515 0l-62 618l-236 -618h-73l-54 685h59l41 -628l238 628h67l64 -629l220 629h57l-247 -685h-74zM566 758l-187 78l33 52l174 -96z" />
    <glyph glyph-name="X" unicode="X" horiz-adv-x="509" 
d="M464 0h-65l-135 327l-225 -327h-66l259 369l1 1l-143 315h65l116 -275l196 275h66l-228 -314l-2 -2z" />
    <glyph glyph-name="Y" unicode="Y" horiz-adv-x="520" 
d="M254 0h-60l38 267l-159 418h63l131 -363l233 363h67l-275 -417z" />
    <glyph glyph-name="Yacute" unicode="&#xdd;" horiz-adv-x="520" 
d="M254 0h-60l38 267l-159 418h63l131 -363l233 363h67l-275 -417zM239 758l-11 34l199 96l20 -52z" />
    <glyph glyph-name="Ycircumflex" unicode="&#x176;" horiz-adv-x="520" 
d="M254 0h-60l38 267l-159 418h63l131 -363l233 363h67l-275 -417zM216 762l-25 30l143 102h36l115 -102l-27 -30l-111 80z" />
    <glyph glyph-name="Ydieresis" unicode="&#x178;" horiz-adv-x="520" 
d="M254 0h-60l38 267l-159 418h63l131 -363l233 363h67l-275 -417zM274 857.5q10 -10.5 10 -25.5q0 -19 -11.5 -31t-30.5 -12q-16 0 -26.5 10.5t-10.5 25.5q0 19 12.5 31t30.5 12q16 0 26 -10.5zM462.5 857.5q10.5 -10.5 10.5 -25.5q0 -18 -12 -30.5t-30 -12.5
q-16 0 -26.5 10.5t-10.5 25.5q0 19 12 31t30 12q16 0 26.5 -10.5z" />
    <glyph glyph-name="Ygrave" unicode="&#x1ef2;" horiz-adv-x="520" 
d="M254 0h-60l38 267l-159 418h63l131 -363l233 363h67l-275 -417zM421 758l-187 78l33 52l174 -96z" />
    <glyph glyph-name="Z" unicode="Z" horiz-adv-x="513" 
d="M75 53h355l-15 -53h-417l7 50l445 583h-326l8 52h393l-6 -49z" />
    <glyph glyph-name="Zacute" unicode="&#x179;" horiz-adv-x="513" 
d="M75 53h355l-15 -53h-417l7 50l445 583h-326l8 52h393l-6 -49zM242 758l-11 34l199 96l20 -52z" />
    <glyph glyph-name="Zcaron" unicode="&#x17d;" horiz-adv-x="513" 
d="M75 53h355l-15 -53h-417l7 50l445 583h-326l8 52h393l-6 -49zM345 756h-35l-116 101l28 30l110 -79l132 80l23 -31z" />
    <glyph glyph-name="Zdotaccent" unicode="&#x17b;" horiz-adv-x="513" 
d="M75 53h355l-15 -53h-417l7 50l445 583h-326l8 52h393l-6 -49zM375 868.5q11 -10.5 11 -27.5q0 -20 -12.5 -32.5t-33.5 -12.5q-18 0 -29 11t-11 28q0 19 13 31.5t33 12.5q18 0 29 -10.5z" />
    <glyph glyph-name="Oslashacute.001" horiz-adv-x="688" 
d="M610 575q30 -62 30 -151q0 -100 -33 -200t-107.5 -167.5t-190.5 -67.5q-40 0 -78 11l-52 -120l-49 15l55 124q-55 31 -84.5 93t-29.5 150q0 97 34 197t109 168.5t190 68.5q42 0 75 -10l53 124l50 -14l-58 -128q56 -31 86 -93zM212 65l250 573q-25 7 -61 7
q-96 0 -156 -61.5t-86 -150.5t-26 -177q0 -140 79 -191zM468 102q60 62 85 151.5t25 178.5q0 143 -80 190l-250 -573q29 -9 62 -9q98 0 158 62zM320 770l-11 34l199 96l20 -52z" />
    <glyph glyph-name="Cacute.loclPLK" horiz-adv-x="548" 
d="M494 680q40 -16 75 -48l-37 -38q-30 27 -60 39t-69 12q-94 0 -155 -59.5t-88 -148t-27 -177.5q0 -109 48 -163.5t128 -54.5q49 0 84.5 15t75.5 44l28 -43q-85 -69 -192 -69t-170.5 71.5t-63.5 202.5q0 100 34.5 199.5t108.5 166.5t185 67q55 0 95 -16zM400 732l-29 19
l123 157l44 -31z" />
    <glyph glyph-name="Nacute.loclPLK" horiz-adv-x="670" 
d="M446 0l-237 631q-1 -45 -6.5 -100t-18.5 -150l-54 -381h-56l96 685h77l237 -630q3 89 20 215l58 415h57l-97 -685h-76zM401 732l-29 19l123 157l44 -31z" />
    <glyph glyph-name="Oacute.loclPLK" horiz-adv-x="688" 
d="M577 625.5q63 -70.5 63 -201.5q0 -100 -33 -200t-107.5 -167.5t-190.5 -67.5q-110 0 -174 71t-64 202q0 97 34 197t109 168.5t190 68.5q110 0 173 -70.5zM245 583.5q-60 -61.5 -86 -150.5t-26 -177q0 -107 47 -161.5t130 -54.5q98 0 158 62t85 151.5t25 178.5
q0 106 -46 159.5t-131 53.5q-96 0 -156 -61.5zM395 732l-29 19l123 157l44 -31z" />
    <glyph glyph-name="Sacute.loclPLK" horiz-adv-x="536" 
d="M429 676.5q45 -19.5 82 -57.5l-38 -36q-32 33 -67.5 47.5t-81.5 14.5q-70 0 -116 -35.5t-46 -92.5q0 -46 30.5 -74t107.5 -54q87 -27 131 -69t44 -116q0 -50 -26 -99.5t-83 -82.5t-145 -33q-68 0 -118.5 23t-89.5 65l39 36q33 -36 73.5 -54.5t96.5 -18.5q61 0 104.5 22.5
t65.5 59.5t22 80q0 51 -32 82.5t-108 57.5q-91 28 -131.5 68t-40.5 105q0 42 24.5 84t74.5 69.5t123 27.5q60 0 105 -19.5zM327 732l-29 19l123 157l44 -31z" />
    <glyph glyph-name="Zacute.loclPLK" horiz-adv-x="513" 
d="M75 53h355l-15 -53h-417l7 50l445 583h-326l8 52h393l-6 -49zM319 732l-29 19l123 157l44 -31z" />
    <glyph glyph-name="a" unicode="a" 
d="M414.5 523.5q38.5 -10.5 82.5 -32.5l-57 -377q-2 -24 -2 -31q0 -23 8 -34.5t25 -18.5l-17 -41q-35 7 -52.5 28.5t-17.5 66.5q-30 -44 -71.5 -69.5t-89.5 -25.5q-78 0 -121.5 54t-43.5 149q0 78 28 157t88.5 132t152.5 53q49 0 87.5 -10.5zM210 441q-47 -46 -69 -114
t-22 -135q0 -76 29.5 -115.5t84.5 -39.5q46 0 83.5 28.5t72.5 82.5l47 315q-50 24 -107 24q-72 0 -119 -46z" />
    <glyph glyph-name="aacute" unicode="&#xe1;" 
d="M414.5 523.5q38.5 -10.5 82.5 -32.5l-57 -377q-2 -24 -2 -31q0 -23 8 -34.5t25 -18.5l-17 -41q-35 7 -52.5 28.5t-17.5 66.5q-30 -44 -71.5 -69.5t-89.5 -25.5q-78 0 -121.5 54t-43.5 149q0 78 28 157t88.5 132t152.5 53q49 0 87.5 -10.5zM210 441q-47 -46 -69 -114
t-22 -135q0 -76 29.5 -115.5t84.5 -39.5q46 0 83.5 28.5t72.5 82.5l47 315q-50 24 -107 24q-72 0 -119 -46zM252 645l-14 34l201 103l19 -52z" />
    <glyph glyph-name="abreve" unicode="&#x103;" 
d="M414.5 523.5q38.5 -10.5 82.5 -32.5l-57 -377q-2 -24 -2 -31q0 -23 8 -34.5t25 -18.5l-17 -41q-35 7 -52.5 28.5t-17.5 66.5q-30 -44 -71.5 -69.5t-89.5 -25.5q-78 0 -121.5 54t-43.5 149q0 78 28 157t88.5 132t152.5 53q49 0 87.5 -10.5zM210 441q-47 -46 -69 -114
t-22 -135q0 -76 29.5 -115.5t84.5 -39.5q46 0 83.5 28.5t72.5 82.5l47 315q-50 24 -107 24q-72 0 -119 -46zM268 684q-32 31 -32 81l41 6q9 -71 76 -71q36 0 63 19t41 54l38 -12q-13 -49 -52.5 -78.5t-90.5 -29.5q-52 0 -84 31z" />
    <glyph glyph-name="acircumflex" unicode="&#xe2;" 
d="M414.5 523.5q38.5 -10.5 82.5 -32.5l-57 -377q-2 -24 -2 -31q0 -23 8 -34.5t25 -18.5l-17 -41q-35 7 -52.5 28.5t-17.5 66.5q-30 -44 -71.5 -69.5t-89.5 -25.5q-78 0 -121.5 54t-43.5 149q0 78 28 157t88.5 132t152.5 53q49 0 87.5 -10.5zM210 441q-47 -46 -69 -114
t-22 -135q0 -76 29.5 -115.5t84.5 -39.5q46 0 83.5 28.5t72.5 82.5l47 315q-50 24 -107 24q-72 0 -119 -46zM352 779h35l114 -105l-28 -31l-109 85l-131 -85l-25 31z" />
    <glyph glyph-name="adieresis" unicode="&#xe4;" 
d="M414.5 523.5q38.5 -10.5 82.5 -32.5l-57 -377q-2 -24 -2 -31q0 -23 8 -34.5t25 -18.5l-17 -41q-35 7 -52.5 28.5t-17.5 66.5q-30 -44 -71.5 -69.5t-89.5 -25.5q-78 0 -121.5 54t-43.5 149q0 78 28 157t88.5 132t152.5 53q49 0 87.5 -10.5zM210 441q-47 -46 -69 -114
t-22 -135q0 -76 29.5 -115.5t84.5 -39.5q46 0 83.5 28.5t72.5 82.5l47 315q-50 24 -107 24q-72 0 -119 -46zM285.5 731.5q10.5 -10.5 10.5 -25.5q0 -18 -12 -30.5t-30 -12.5q-17 0 -27 10.5t-10 25.5q0 18 12 30.5t30 12.5q16 0 26.5 -10.5zM474 731.5q10 -10.5 10 -25.5
q0 -18 -12 -30.5t-30 -12.5q-16 0 -26.5 10.5t-10.5 25.5q0 18 12 30.5t30 12.5q17 0 27 -10.5z" />
    <glyph glyph-name="agrave" unicode="&#xe0;" 
d="M414.5 523.5q38.5 -10.5 82.5 -32.5l-57 -377q-2 -24 -2 -31q0 -23 8 -34.5t25 -18.5l-17 -41q-35 7 -52.5 28.5t-17.5 66.5q-30 -44 -71.5 -69.5t-89.5 -25.5q-78 0 -121.5 54t-43.5 149q0 78 28 157t88.5 132t152.5 53q49 0 87.5 -10.5zM210 441q-47 -46 -69 -114
t-22 -135q0 -76 29.5 -115.5t84.5 -39.5q46 0 83.5 28.5t72.5 82.5l47 315q-50 24 -107 24q-72 0 -119 -46zM445 645l-183 85l33 52l172 -104z" />
    <glyph glyph-name="amacron" unicode="&#x101;" 
d="M414.5 523.5q38.5 -10.5 82.5 -32.5l-57 -377q-2 -24 -2 -31q0 -23 8 -34.5t25 -18.5l-17 -41q-35 7 -52.5 28.5t-17.5 66.5q-30 -44 -71.5 -69.5t-89.5 -25.5q-78 0 -121.5 54t-43.5 149q0 78 28 157t88.5 132t152.5 53q49 0 87.5 -10.5zM210 441q-47 -46 -69 -114
t-22 -135q0 -76 29.5 -115.5t84.5 -39.5q46 0 83.5 28.5t72.5 82.5l47 315q-50 24 -107 24q-72 0 -119 -46zM241 723h240l-7 -47h-240z" />
    <glyph glyph-name="aogonek" unicode="&#x105;" 
d="M446 48.5q8 -11.5 25 -18.5l-17 -41q-76 -32 -108 -61t-32 -64q0 -44 55 -44q25 0 59 6l-10 -49q-30 -6 -57 -6q-49 0 -75 23t-26 59q0 49 36 85.5t119 66.5q-31 22 -31 79q-30 -44 -71.5 -69.5t-89.5 -25.5q-78 0 -121.5 54t-43.5 149q0 78 28 157t88.5 132t152.5 53
q49 0 87.5 -10.5t82.5 -32.5l-57 -377q-2 -24 -2 -31q0 -23 8 -34.5zM329 487q-72 0 -119 -46t-69 -114t-22 -135q0 -76 29.5 -115.5t84.5 -39.5q46 0 83.5 28.5t72.5 82.5l47 315q-50 24 -107 24z" />
    <glyph glyph-name="aring" unicode="&#xe5;" 
d="M414.5 523.5q38.5 -10.5 82.5 -32.5l-57 -377q-2 -24 -2 -31q0 -23 8 -34.5t25 -18.5l-17 -41q-35 7 -52.5 28.5t-17.5 66.5q-30 -44 -71.5 -69.5t-89.5 -25.5q-78 0 -121.5 54t-43.5 149q0 78 28 157t88.5 132t152.5 53q49 0 87.5 -10.5zM210 441q-47 -46 -69 -114
t-22 -135q0 -76 29.5 -115.5t84.5 -39.5q46 0 83.5 28.5t72.5 82.5l47 315q-50 24 -107 24q-72 0 -119 -46zM435.5 797.5q24.5 -23.5 24.5 -59.5q0 -45 -31.5 -75t-78.5 -30q-39 0 -63.5 23.5t-24.5 59.5q0 45 31.5 75t77.5 30q40 0 64.5 -23.5zM326.5 769
q-16.5 -16 -20.5 -46q-1 -3 -1 -9q0 -21 12.5 -33t34.5 -12q26 0 42 16t21 45q2 8 2 12q0 20 -13 31.5t-35 11.5q-26 0 -42.5 -16z" />
    <glyph glyph-name="atilde" unicode="&#xe3;" 
d="M414.5 523.5q38.5 -10.5 82.5 -32.5l-57 -377q-2 -24 -2 -31q0 -23 8 -34.5t25 -18.5l-17 -41q-35 7 -52.5 28.5t-17.5 66.5q-30 -44 -71.5 -69.5t-89.5 -25.5q-78 0 -121.5 54t-43.5 149q0 78 28 157t88.5 132t152.5 53q49 0 87.5 -10.5zM210 441q-47 -46 -69 -114
t-22 -135q0 -76 29.5 -115.5t84.5 -39.5q46 0 83.5 28.5t72.5 82.5l47 315q-50 24 -107 24q-72 0 -119 -46zM381 674q-16 7 -35 20q-2 1 -10.5 7t-16 8.5t-14.5 2.5q-20 0 -32.5 -9t-32.5 -33l-33 22q45 66 98 66q17 0 30.5 -6t31.5 -18q15 -11 26 -16t22 -5q16 0 30.5 10.5
t32.5 34.5l34 -22q-44 -70 -94 -70q-21 1 -37 8z" />
    <glyph glyph-name="ae" unicode="&#xe6;" horiz-adv-x="847" 
d="M402 506.5q37 -27.5 49 -74.5q24 41 75 71.5t115 30.5q73 0 115 -35.5t42 -91.5q0 -95 -94.5 -140.5t-269.5 -59.5q0 -168 136 -168q41 0 75 13t72 40l27 -41q-42 -31 -85.5 -46.5t-92.5 -15.5q-62 0 -106 27t-65 77q-45 -56 -94 -80t-107 -24q-69 0 -108.5 37t-39.5 99
q0 77 58 128t183 51h102q12 49 24 78q-2 46 -35.5 74.5t-87.5 28.5q-61 0 -143 -29l-13 46q89 32 167 32q64 0 101 -27.5zM500 417.5q-51 -68.5 -63 -164.5q152 12 226 47.5t74 104.5q0 34 -24.5 57.5t-71.5 23.5q-90 0 -141 -68.5zM153 224q-45 -37 -45 -99q0 -43 25.5 -66
t70.5 -23q49 0 92.5 25.5t85.5 80.5q-5 25 -5 59q0 28 4 60h-88q-95 0 -140 -37z" />
    <glyph glyph-name="aeacute" unicode="&#x1fd;" horiz-adv-x="847" 
d="M402 506.5q37 -27.5 49 -74.5q24 41 75 71.5t115 30.5q73 0 115 -35.5t42 -91.5q0 -95 -94.5 -140.5t-269.5 -59.5q0 -168 136 -168q41 0 75 13t72 40l27 -41q-42 -31 -85.5 -46.5t-92.5 -15.5q-62 0 -106 27t-65 77q-45 -56 -94 -80t-107 -24q-69 0 -108.5 37t-39.5 99
q0 77 58 128t183 51h102q12 49 24 78q-2 46 -35.5 74.5t-87.5 28.5q-61 0 -143 -29l-13 46q89 32 167 32q64 0 101 -27.5zM500 417.5q-51 -68.5 -63 -164.5q152 12 226 47.5t74 104.5q0 34 -24.5 57.5t-71.5 23.5q-90 0 -141 -68.5zM153 224q-45 -37 -45 -99q0 -43 25.5 -66
t70.5 -23q49 0 92.5 25.5t85.5 80.5q-5 25 -5 59q0 28 4 60h-88q-95 0 -140 -37zM382 645l-14 34l201 103l19 -52z" />
    <glyph glyph-name="b" unicode="b" horiz-adv-x="571" 
d="M355 534q76 0 117 -51t41 -147q0 -80 -27 -159.5t-87.5 -133.5t-155.5 -54q-43 0 -81 8t-90 26l101 713l58 7l-40 -286q74 77 164 77zM259 463.5q-37 -22.5 -77 -65.5l-47 -340q27 -11 52 -16t59 -5q73 0 120 48t67.5 117.5t20.5 137.5q0 146 -112 146q-46 0 -83 -22.5z
" />
    <glyph glyph-name="c" unicode="c" horiz-adv-x="467" 
d="M461 480l-33 -36q-22 21 -47.5 31t-59.5 10q-71 0 -116 -45t-65 -111t-20 -132q0 -78 35 -117.5t96 -39.5q36 0 66.5 11t62.5 33l25 -41q-71 -54 -155 -54q-90 0 -140 55t-50 156q0 76 27 153t85.5 129t147.5 52q86 0 141 -54z" />
    <glyph glyph-name="cacute" unicode="&#x107;" horiz-adv-x="467" 
d="M461 480l-33 -36q-22 21 -47.5 31t-59.5 10q-71 0 -116 -45t-65 -111t-20 -132q0 -78 35 -117.5t96 -39.5q36 0 66.5 11t62.5 33l25 -41q-71 -54 -155 -54q-90 0 -140 55t-50 156q0 76 27 153t85.5 129t147.5 52q86 0 141 -54zM242 645l-14 34l201 103l19 -52z" />
    <glyph glyph-name="ccaron" unicode="&#x10d;" horiz-adv-x="467" 
d="M461 480l-33 -36q-22 21 -47.5 31t-59.5 10q-71 0 -116 -45t-65 -111t-20 -132q0 -78 35 -117.5t96 -39.5q36 0 66.5 11t62.5 33l25 -41q-71 -54 -155 -54q-90 0 -140 55t-50 156q0 76 27 153t85.5 129t147.5 52q86 0 141 -54zM360 634h-36l-114 106l27 30l110 -84
l133 84l23 -30z" />
    <glyph glyph-name="ccedilla" unicode="&#xe7;" horiz-adv-x="467" 
d="M205 440q-45 -45 -65 -111t-20 -132q0 -78 35 -117.5t96 -39.5q36 0 66.5 11t62.5 33l25 -41q-68 -51 -147 -54l-9 -53q83 -6 83 -69q0 -39 -31.5 -66.5t-82.5 -27.5q-49 0 -79 23l22 34q23 -15 56 -15q26 -1 45.5 12.5t19.5 36.5q0 21 -18.5 30.5t-64.5 10.5l19 86
q-75 9 -116.5 63t-41.5 146q0 76 27 153t85.5 129t147.5 52q86 0 141 -54l-33 -36q-22 21 -47.5 31t-59.5 10q-71 0 -116 -45z" />
    <glyph glyph-name="ccircumflex" unicode="&#x109;" horiz-adv-x="467" 
d="M461 480l-33 -36q-22 21 -47.5 31t-59.5 10q-71 0 -116 -45t-65 -111t-20 -132q0 -78 35 -117.5t96 -39.5q36 0 66.5 11t62.5 33l25 -41q-71 -54 -155 -54q-90 0 -140 55t-50 156q0 76 27 153t85.5 129t147.5 52q86 0 141 -54zM343 779h35l114 -105l-28 -31l-109 85
l-131 -85l-25 31z" />
    <glyph glyph-name="cdotaccent" unicode="&#x10b;" horiz-adv-x="467" 
d="M461 480l-33 -36q-22 21 -47.5 31t-59.5 10q-71 0 -116 -45t-65 -111t-20 -132q0 -78 35 -117.5t96 -39.5q36 0 66.5 11t62.5 33l25 -41q-71 -54 -155 -54q-90 0 -140 55t-50 156q0 76 27 153t85.5 129t147.5 52q86 0 141 -54zM381.5 742.5q10.5 -10.5 10.5 -27.5
q0 -19 -12.5 -32t-33.5 -14q-18 1 -29 11.5t-11 27.5q0 20 13 32.5t33 12.5q19 0 29.5 -10.5z" />
    <glyph glyph-name="d" unicode="d" horiz-adv-x="583" 
d="M441 0h-50l7 106q-68 -117 -173 -117q-76 0 -118.5 55t-42.5 151q0 76 25 154t80 131.5t140 53.5q90 0 139 -72l40 281l57 -7zM206.5 439.5q-43.5 -46.5 -62.5 -114t-19 -133.5q0 -76 28.5 -115.5t80.5 -39.5q54 0 93.5 36t81.5 108l32 228q-21 36 -50.5 56.5t-73.5 20.5
q-67 0 -110.5 -46.5z" />
    <glyph glyph-name="eth" unicode="&#xf0;" horiz-adv-x="559" 
d="M466 544.5q29 -67.5 29 -159.5q0 -47 -8 -109q-20 -139 -86.5 -213t-164.5 -74q-83 0 -131.5 51.5t-48.5 142.5q0 69 23.5 134t75 108t129.5 43q98 0 154 -77q-2 80 -24.5 136t-72.5 102l-88 -77l-40 20l91 82q-58 33 -114 44l16 46q80 -18 136 -56l80 74l32 -31l-76 -69
q59 -50 88 -117.5zM361 100.5q51 63.5 68 183.5q3 17 5 50q-54 87 -143 87q-93 0 -134.5 -71.5t-41.5 -167.5q0 -70 31.5 -107.5t90.5 -37.5q73 0 124 63.5z" />
    <glyph glyph-name="dcaron" unicode="&#x10f;" horiz-adv-x="604" 
d="M436 0h-50l7 106q-68 -117 -173 -117q-76 0 -118.5 55t-42.5 151q0 76 25 154t80 131.5t140 53.5q90 0 139 -72l40 281l57 -7zM201.5 439.5q-43.5 -46.5 -62.5 -114t-19 -133.5q0 -76 28.5 -115.5t80.5 -39.5q54 0 93.5 36t81.5 108l32 228q-21 36 -50.5 56.5t-73.5 20.5
q-67 0 -110.5 -46.5zM615 572l-35 5l40 165l55 -6z" />
    <glyph glyph-name="dcroat" unicode="&#x111;" horiz-adv-x="590" 
d="M528 616l-87 -616h-50l7 106q-68 -117 -173 -117q-76 0 -118.5 55t-42.5 151q0 76 25 154t80 131.5t140 53.5q90 0 139 -72l22 154h-161v47h167l12 80l57 -7l-11 -73h76l-7 -47h-75zM390.5 465.5q-29.5 20.5 -73.5 20.5q-67 0 -110.5 -46.5t-62.5 -114t-19 -133.5
q0 -76 28.5 -115.5t80.5 -39.5q54 0 93.5 36t81.5 108l32 228q-21 36 -50.5 56.5z" />
    <glyph glyph-name="e" unicode="e" horiz-adv-x="520" 
d="M386.5 266q-94.5 -47 -266.5 -60l-1 -6q0 -82 36 -121.5t98 -39.5q41 0 75.5 13t72.5 40l26 -41q-42 -31 -85.5 -46.5t-92.5 -15.5q-90 0 -140 55t-50 155q0 79 28 156t87.5 128t147.5 51q74 0 116.5 -35.5t42.5 -90.5q0 -95 -94.5 -142zM183.5 416.5
q-49.5 -69.5 -60.5 -165.5q150 12 224 49t74 106q0 34 -25 57t-75 23q-88 0 -137.5 -69.5z" />
    <glyph glyph-name="eacute" unicode="&#xe9;" horiz-adv-x="520" 
d="M386.5 266q-94.5 -47 -266.5 -60l-1 -6q0 -82 36 -121.5t98 -39.5q41 0 75.5 13t72.5 40l26 -41q-42 -31 -85.5 -46.5t-92.5 -15.5q-90 0 -140 55t-50 155q0 79 28 156t87.5 128t147.5 51q74 0 116.5 -35.5t42.5 -90.5q0 -95 -94.5 -142zM183.5 416.5
q-49.5 -69.5 -60.5 -165.5q150 12 224 49t74 106q0 34 -25 57t-75 23q-88 0 -137.5 -69.5zM231 645l-14 34l201 103l19 -52z" />
    <glyph glyph-name="ebreve" unicode="&#x115;" horiz-adv-x="520" 
d="M386.5 266q-94.5 -47 -266.5 -60l-1 -6q0 -82 36 -121.5t98 -39.5q41 0 75.5 13t72.5 40l26 -41q-42 -31 -85.5 -46.5t-92.5 -15.5q-90 0 -140 55t-50 155q0 79 28 156t87.5 128t147.5 51q74 0 116.5 -35.5t42.5 -90.5q0 -95 -94.5 -142zM183.5 416.5
q-49.5 -69.5 -60.5 -165.5q150 12 224 49t74 106q0 34 -25 57t-75 23q-88 0 -137.5 -69.5zM248 684q-32 31 -32 81l41 6q9 -71 76 -71q36 0 63 19t41 54l38 -12q-13 -49 -52.5 -78.5t-90.5 -29.5q-52 0 -84 31z" />
    <glyph glyph-name="ecaron" unicode="&#x11b;" horiz-adv-x="520" 
d="M386.5 266q-94.5 -47 -266.5 -60l-1 -6q0 -82 36 -121.5t98 -39.5q41 0 75.5 13t72.5 40l26 -41q-42 -31 -85.5 -46.5t-92.5 -15.5q-90 0 -140 55t-50 155q0 79 28 156t87.5 128t147.5 51q74 0 116.5 -35.5t42.5 -90.5q0 -95 -94.5 -142zM183.5 416.5
q-49.5 -69.5 -60.5 -165.5q150 12 224 49t74 106q0 34 -25 57t-75 23q-88 0 -137.5 -69.5zM349 634h-36l-114 106l27 30l110 -84l133 84l23 -30z" />
    <glyph glyph-name="ecircumflex" unicode="&#xea;" horiz-adv-x="520" 
d="M386.5 266q-94.5 -47 -266.5 -60l-1 -6q0 -82 36 -121.5t98 -39.5q41 0 75.5 13t72.5 40l26 -41q-42 -31 -85.5 -46.5t-92.5 -15.5q-90 0 -140 55t-50 155q0 79 28 156t87.5 128t147.5 51q74 0 116.5 -35.5t42.5 -90.5q0 -95 -94.5 -142zM183.5 416.5
q-49.5 -69.5 -60.5 -165.5q150 12 224 49t74 106q0 34 -25 57t-75 23q-88 0 -137.5 -69.5zM332 779h35l114 -105l-28 -31l-109 85l-131 -85l-25 31z" />
    <glyph glyph-name="edieresis" unicode="&#xeb;" horiz-adv-x="520" 
d="M386.5 266q-94.5 -47 -266.5 -60l-1 -6q0 -82 36 -121.5t98 -39.5q41 0 75.5 13t72.5 40l26 -41q-42 -31 -85.5 -46.5t-92.5 -15.5q-90 0 -140 55t-50 155q0 79 28 156t87.5 128t147.5 51q74 0 116.5 -35.5t42.5 -90.5q0 -95 -94.5 -142zM183.5 416.5
q-49.5 -69.5 -60.5 -165.5q150 12 224 49t74 106q0 34 -25 57t-75 23q-88 0 -137.5 -69.5zM264.5 731.5q10.5 -10.5 10.5 -25.5q0 -18 -12 -30.5t-30 -12.5q-17 0 -27 10.5t-10 25.5q0 18 12 30.5t30 12.5q16 0 26.5 -10.5zM453 731.5q10 -10.5 10 -25.5q0 -18 -12 -30.5
t-30 -12.5q-16 0 -26.5 10.5t-10.5 25.5q0 18 12 30.5t30 12.5q17 0 27 -10.5z" />
    <glyph glyph-name="edotaccent" unicode="&#x117;" horiz-adv-x="520" 
d="M386.5 266q-94.5 -47 -266.5 -60l-1 -6q0 -82 36 -121.5t98 -39.5q41 0 75.5 13t72.5 40l26 -41q-42 -31 -85.5 -46.5t-92.5 -15.5q-90 0 -140 55t-50 155q0 79 28 156t87.5 128t147.5 51q74 0 116.5 -35.5t42.5 -90.5q0 -95 -94.5 -142zM183.5 416.5
q-49.5 -69.5 -60.5 -165.5q150 12 224 49t74 106q0 34 -25 57t-75 23q-88 0 -137.5 -69.5zM370.5 742.5q10.5 -10.5 10.5 -27.5q0 -19 -12.5 -32t-33.5 -14q-18 1 -29 11.5t-11 27.5q0 20 13 32.5t33 12.5q19 0 29.5 -10.5z" />
    <glyph glyph-name="egrave" unicode="&#xe8;" horiz-adv-x="520" 
d="M386.5 266q-94.5 -47 -266.5 -60l-1 -6q0 -82 36 -121.5t98 -39.5q41 0 75.5 13t72.5 40l26 -41q-42 -31 -85.5 -46.5t-92.5 -15.5q-90 0 -140 55t-50 155q0 79 28 156t87.5 128t147.5 51q74 0 116.5 -35.5t42.5 -90.5q0 -95 -94.5 -142zM183.5 416.5
q-49.5 -69.5 -60.5 -165.5q150 12 224 49t74 106q0 34 -25 57t-75 23q-88 0 -137.5 -69.5zM424 645l-183 85l33 52l172 -104z" />
    <glyph glyph-name="emacron" unicode="&#x113;" horiz-adv-x="520" 
d="M386.5 266q-94.5 -47 -266.5 -60l-1 -6q0 -82 36 -121.5t98 -39.5q41 0 75.5 13t72.5 40l26 -41q-42 -31 -85.5 -46.5t-92.5 -15.5q-90 0 -140 55t-50 155q0 79 28 156t87.5 128t147.5 51q74 0 116.5 -35.5t42.5 -90.5q0 -95 -94.5 -142zM183.5 416.5
q-49.5 -69.5 -60.5 -165.5q150 12 224 49t74 106q0 34 -25 57t-75 23q-88 0 -137.5 -69.5zM220 723h240l-7 -47h-240z" />
    <glyph glyph-name="eogonek" unicode="&#x119;" horiz-adv-x="520" 
d="M386.5 266q-94.5 -47 -266.5 -60l-1 -6q0 -82 36 -121.5t98 -39.5q41 0 75.5 13t72.5 40l26 -41q-48 -36 -97 -50q-61 -29 -86.5 -54.5t-25.5 -58.5q0 -25 16 -38.5t48 -13.5q25 0 56 7l-5 -49q-30 -6 -58 -6q-53 0 -82.5 26t-29.5 66q0 66 82 109q-89 2 -137.5 56.5
t-48.5 153.5q0 79 28 156t87.5 128t147.5 51q74 0 116.5 -35.5t42.5 -90.5q0 -95 -94.5 -142zM183.5 416.5q-49.5 -69.5 -60.5 -165.5q150 12 224 49t74 106q0 34 -25 57t-75 23q-88 0 -137.5 -69.5z" />
    <glyph glyph-name="f" unicode="f" horiz-adv-x="319" 
d="M216 606l-11 -83h137l-13 -47h-131l-64 -459q-9 -68 -29 -108t-51.5 -64t-87.5 -49l-17 45q41 19 65 37.5t39.5 51.5t23.5 89l64 457h-91l7 47h91l12 87q8 62 51 97.5t110 35.5q33 0 60.5 -8.5t57.5 -26.5l-23 -40q-25 15 -47 21t-47 6q-93 0 -106 -89z" />
    <glyph glyph-name="g" unicode="g" horiz-adv-x="565" 
d="M415.5 523.5q38.5 -10.5 81.5 -32.5l-71 -487q-31 -211 -219 -211q-90 0 -173 49l23 44q78 -43 148 -43q142 0 164 160l12 87q-30 -42 -70.5 -66t-86.5 -24q-79 0 -122.5 54.5t-43.5 147.5q0 78 28.5 154t89 127t152.5 51q49 0 87.5 -10.5zM210.5 443.5
q-47.5 -43.5 -69.5 -109t-22 -132.5q0 -74 29.5 -113.5t83.5 -40.5q47 0 85.5 28.5t73.5 81.5l46 305q-50 24 -108 24q-71 0 -118.5 -43.5z" />
    <glyph glyph-name="gbreve" unicode="&#x11f;" horiz-adv-x="565" 
d="M415.5 523.5q38.5 -10.5 81.5 -32.5l-71 -487q-31 -211 -219 -211q-90 0 -173 49l23 44q78 -43 148 -43q142 0 164 160l12 87q-30 -42 -70.5 -66t-86.5 -24q-79 0 -122.5 54.5t-43.5 147.5q0 78 28.5 154t89 127t152.5 51q49 0 87.5 -10.5zM210.5 443.5
q-47.5 -43.5 -69.5 -109t-22 -132.5q0 -74 29.5 -113.5t83.5 -40.5q47 0 85.5 28.5t73.5 81.5l46 305q-50 24 -108 24q-71 0 -118.5 -43.5zM256 684q-32 31 -32 81l41 6q9 -71 76 -71q36 0 63 19t41 54l38 -12q-13 -49 -52.5 -78.5t-90.5 -29.5q-52 0 -84 31z" />
    <glyph glyph-name="gcircumflex" unicode="&#x11d;" horiz-adv-x="565" 
d="M415.5 523.5q38.5 -10.5 81.5 -32.5l-71 -487q-31 -211 -219 -211q-90 0 -173 49l23 44q78 -43 148 -43q142 0 164 160l12 87q-30 -42 -70.5 -66t-86.5 -24q-79 0 -122.5 54.5t-43.5 147.5q0 78 28.5 154t89 127t152.5 51q49 0 87.5 -10.5zM210.5 443.5
q-47.5 -43.5 -69.5 -109t-22 -132.5q0 -74 29.5 -113.5t83.5 -40.5q47 0 85.5 28.5t73.5 81.5l46 305q-50 24 -108 24q-71 0 -118.5 -43.5zM340 779h35l114 -105l-28 -31l-109 85l-131 -85l-25 31z" />
    <glyph glyph-name="gcommaaccent" unicode="&#x123;" horiz-adv-x="565" 
d="M415.5 523.5q38.5 -10.5 81.5 -32.5l-71 -487q-31 -211 -219 -211q-90 0 -173 49l23 44q78 -43 148 -43q142 0 164 160l12 87q-30 -42 -70.5 -66t-86.5 -24q-79 0 -122.5 54.5t-43.5 147.5q0 78 28.5 154t89 127t152.5 51q49 0 87.5 -10.5zM210.5 443.5
q-47.5 -43.5 -69.5 -109t-22 -132.5q0 -74 29.5 -113.5t83.5 -40.5q47 0 85.5 28.5t73.5 81.5l46 305q-50 24 -108 24q-71 0 -118.5 -43.5zM305 619.5q-11 11.5 -11 27.5q0 14 6 27.5t25 43.5l52 84h35l-49 -115q8 -6 13 -15t5 -19q0 -19 -13.5 -32t-33.5 -13
q-18 0 -29 11.5z" />
    <glyph glyph-name="gdotaccent" unicode="&#x121;" horiz-adv-x="565" 
d="M415.5 523.5q38.5 -10.5 81.5 -32.5l-71 -487q-31 -211 -219 -211q-90 0 -173 49l23 44q78 -43 148 -43q142 0 164 160l12 87q-30 -42 -70.5 -66t-86.5 -24q-79 0 -122.5 54.5t-43.5 147.5q0 78 28.5 154t89 127t152.5 51q49 0 87.5 -10.5zM210.5 443.5
q-47.5 -43.5 -69.5 -109t-22 -132.5q0 -74 29.5 -113.5t83.5 -40.5q47 0 85.5 28.5t73.5 81.5l46 305q-50 24 -108 24q-71 0 -118.5 -43.5zM378.5 742.5q10.5 -10.5 10.5 -27.5q0 -19 -12.5 -32t-33.5 -14q-18 1 -29 11.5t-11 27.5q0 20 13 32.5t33 12.5q19 0 29.5 -10.5z
" />
    <glyph glyph-name="h" unicode="h" horiz-adv-x="581" 
d="M467.5 501.5q31.5 -32.5 31.5 -92.5q0 -17 -3 -37l-52 -372h-58l52 367q3 21 3 36q0 44 -20.5 63t-61.5 19q-52 0 -99.5 -46.5t-89.5 -125.5l-44 -313h-57l104 736l58 7l-50 -348q37 65 88 102t107 37q60 0 91.5 -32.5z" />
    <glyph glyph-name="hbar" unicode="&#x127;" horiz-adv-x="587" 
d="M474.5 501.5q31.5 -32.5 31.5 -92.5q0 -17 -3 -37l-53 -372h-57l52 368q2 12 2 34q0 44 -20.5 63.5t-60.5 19.5q-97 0 -190 -172l-43 -313h-58l87 616h-75l7 47h75l10 73l58 7l-11 -80h170l-14 -47h-163l-31 -221q37 66 88 102.5t107 36.5q60 0 91.5 -32.5z" />
    <glyph glyph-name="hcircumflex" unicode="&#x125;" horiz-adv-x="581" 
d="M467.5 501.5q31.5 -32.5 31.5 -92.5q0 -17 -3 -37l-52 -372h-58l52 367q3 21 3 36q0 44 -20.5 63t-61.5 19q-52 0 -99.5 -46.5t-89.5 -125.5l-44 -313h-57l104 736l58 7l-50 -348q37 65 88 102t107 37q60 0 91.5 -32.5zM258 813l-25 30l143 102h36l115 -102l-27 -30
l-111 80z" />
    <glyph glyph-name="i" unicode="i" horiz-adv-x="269" 
d="M69 0l74 523h58l-74 -523h-58zM229.5 742.5q10.5 -10.5 10.5 -27.5q0 -19 -12.5 -32t-33.5 -14q-18 1 -29 11.5t-11 27.5q0 20 13 32.5t33 12.5q19 0 29.5 -10.5z" />
    <glyph glyph-name="dotlessi" unicode="&#x131;" horiz-adv-x="269" 
d="M69 0l74 523h58l-74 -523h-58z" />
    <glyph glyph-name="iacute" unicode="&#xed;" horiz-adv-x="269" 
d="M69 0l74 523h58l-74 -523h-58zM91 645l-14 34l201 103l19 -52z" />
    <glyph glyph-name="ibreve" unicode="&#x12d;" horiz-adv-x="269" 
d="M69 0l74 523h58l-74 -523h-58zM108 684q-32 31 -32 81l41 6q9 -71 76 -71q36 0 63 19t41 54l38 -12q-13 -49 -52.5 -78.5t-90.5 -29.5q-52 0 -84 31z" />
    <glyph glyph-name="icircumflex" unicode="&#xee;" horiz-adv-x="269" 
d="M69 0l74 523h58l-74 -523h-58zM191 779h35l114 -105l-28 -31l-109 85l-131 -85l-25 31z" />
    <glyph glyph-name="idieresis" unicode="&#xef;" horiz-adv-x="269" 
d="M69 0l74 523h58l-74 -523h-58zM124.5 731.5q10.5 -10.5 10.5 -25.5q0 -18 -12 -30.5t-30 -12.5q-17 0 -27 10.5t-10 25.5q0 18 12 30.5t30 12.5q16 0 26.5 -10.5zM313 731.5q10 -10.5 10 -25.5q0 -18 -12 -30.5t-30 -12.5q-16 0 -26.5 10.5t-10.5 25.5q0 18 12 30.5
t30 12.5q17 0 27 -10.5z" />
    <glyph glyph-name="i.loclTRK" horiz-adv-x="269" 
d="M69 0l74 523h58l-74 -523h-58zM229.5 742.5q10.5 -10.5 10.5 -27.5q0 -19 -12.5 -32t-33.5 -14q-18 1 -29 11.5t-11 27.5q0 20 13 32.5t33 12.5q19 0 29.5 -10.5z" />
    <glyph glyph-name="igrave" unicode="&#xec;" horiz-adv-x="269" 
d="M69 0l74 523h58l-74 -523h-58zM283 645l-183 85l33 52l172 -104z" />
    <glyph glyph-name="ij" unicode="&#x133;" horiz-adv-x="536" 
d="M166 680.5q-11 10.5 -11 27.5q0 20 13 32.5t33 12.5q18 0 29 -10.5t11 -27.5q0 -20 -12.5 -32.5t-33.5 -12.5q-18 0 -29 10.5zM201 523l-74 -523h-58l74 523h58zM396 17q-9 -68 -29 -108t-51.5 -64t-87.5 -49l-17 44q41 19 65 38t39.5 52t23.5 89l72 504h57z" />
    <glyph glyph-name="imacron" unicode="&#x12b;" horiz-adv-x="269" 
d="M69 0l74 523h58l-74 -523h-58zM80 723h240l-7 -47h-240z" />
    <glyph glyph-name="iogonek" unicode="&#x12f;" horiz-adv-x="269" 
d="M230 742.5q11 -10.5 11 -27.5q0 -20 -12.5 -32.5t-33.5 -12.5q-18 0 -29 10.5t-11 27.5q0 20 13 32.5t33 12.5q18 0 29 -10.5zM127 2l1 -2q-76 -32 -108.5 -61t-32.5 -63q0 -45 56 -45q26 0 58 7l-10 -49q-30 -6 -57 -6q-49 0 -75 22.5t-26 58.5q0 46 32 81t105 64
l73 514h58z" />
    <glyph glyph-name="itilde" unicode="&#x129;" horiz-adv-x="269" 
d="M69 0l74 523h58l-74 -523h-58zM220 674q-16 7 -35 20q-2 1 -10.5 7t-16 8.5t-14.5 2.5q-20 0 -32.5 -9t-32.5 -33l-33 22q45 66 98 66q17 0 30.5 -6t31.5 -18q15 -11 26 -16t22 -5q16 0 30.5 10.5t32.5 34.5l34 -22q-44 -70 -94 -70q-21 1 -37 8z" />
    <glyph glyph-name="j" unicode="j" horiz-adv-x="267" 
d="M98 -91q-20 -40 -51.5 -64t-87.5 -49l-17 44q41 19 65 38t39.5 52t23.5 89l71 504h58l-72 -506q-9 -68 -29 -108zM227.5 742.5q10.5 -10.5 10.5 -27.5q0 -19 -12.5 -32t-33.5 -14q-18 1 -29 11.5t-11 27.5q0 20 13 32.5t33 12.5q19 0 29.5 -10.5z" />
    <glyph glyph-name="jdotless" unicode="&#x237;" horiz-adv-x="267" 
d="M98 -91q-20 -40 -51.5 -64t-87.5 -49l-17 44q41 19 65 38t39.5 52t23.5 89l71 504h58l-72 -506q-9 -68 -29 -108z" />
    <glyph glyph-name="jcircumflex" unicode="&#x135;" horiz-adv-x="267" 
d="M98 -91q-20 -40 -51.5 -64t-87.5 -49l-17 44q41 19 65 38t39.5 52t23.5 89l71 504h58l-72 -506q-9 -68 -29 -108zM190 779h35l114 -105l-28 -31l-109 85l-131 -85l-25 31z" />
    <glyph glyph-name="k" unicode="k" horiz-adv-x="522" 
d="M272.5 500q49.5 34 104.5 34q53 0 86.5 -30t33.5 -80q0 -65 -44 -113t-129 -75l119 -236h-64l-125 254q92 26 137 66t45 97q0 33 -18 51.5t-54 18.5q-54 0 -104.5 -47.5t-90.5 -134.5l-43 -305h-57l104 736l58 7l-49 -348q41 71 90.5 105z" />
    <glyph glyph-name="kcommaaccent" unicode="&#x137;" horiz-adv-x="523" 
d="M272.5 500q49.5 34 104.5 34q53 0 86.5 -30t33.5 -80q0 -65 -44 -113t-129 -75l119 -236h-64l-125 254q92 26 137 66t45 97q0 33 -18 51.5t-54 18.5q-54 0 -104.5 -47.5t-90.5 -134.5l-43 -305h-57l104 736l58 7l-49 -348q41 71 90.5 105zM261 -96.5q11 -11.5 11 -27.5
q0 -14 -6 -27.5t-25 -43.5l-52 -84h-35l49 115q-8 6 -13 15t-5 19q0 19 13.5 32t33.5 13q18 0 29 -11.5z" />
    <glyph glyph-name="kgreenlandic" unicode="&#x138;" horiz-adv-x="484" 
d="M69 0l74 523h57l-74 -523h-57zM439 0h-67l-202 276l250 247h71l-254 -248z" />
    <glyph glyph-name="l" unicode="l" horiz-adv-x="281" 
d="M132 73q0 -18 8 -26.5t26 -8.5q17 0 38 8l13 -43q-31 -14 -61 -14q-39 0 -60 20.5t-21 61.5q0 8 2 26l90 639l58 7l-92 -655q-1 -5 -1 -15z" />
    <glyph glyph-name="lacute" unicode="&#x13a;" horiz-adv-x="281" 
d="M132 73q0 -18 8 -26.5t26 -8.5q17 0 38 8l13 -43q-31 -14 -61 -14q-39 0 -60 20.5t-21 61.5q0 8 2 26l90 639l58 7l-92 -655q-1 -5 -1 -15zM99 808l-11 34l199 96l20 -52z" />
    <glyph glyph-name="lcaron" unicode="&#x13e;" horiz-adv-x="281" 
d="M132 73q0 -18 8 -26.5t26 -8.5q17 0 38 8l13 -43q-31 -14 -61 -14q-39 0 -60 20.5t-21 61.5q0 8 2 26l90 639l58 7l-92 -655q-1 -5 -1 -15zM301 572l-35 5l40 165l55 -6z" />
    <glyph glyph-name="lcommaaccent" unicode="&#x13c;" horiz-adv-x="281" 
d="M132 73q0 -18 8 -26.5t26 -8.5q17 0 38 8l13 -43q-31 -14 -61 -14q-39 0 -60 20.5t-21 61.5q0 8 2 26l90 639l58 7l-92 -655q-1 -5 -1 -15zM118 -96.5q11 -11.5 11 -27.5q0 -14 -6 -27.5t-25 -43.5l-52 -84h-35l49 115q-8 6 -13 15t-5 19q0 19 13.5 32t33.5 13
q18 0 29 -11.5z" />
    <glyph glyph-name="ldot" unicode="&#x140;" horiz-adv-x="301" 
d="M94 73q0 -18 8 -26.5t26 -8.5q17 0 38 8l13 -43q-31 -14 -61 -14q-39 0 -60 20.5t-21 61.5q0 8 2 26l90 639l58 7l-92 -655q-1 -5 -1 -15zM285.5 407.5q10.5 -10.5 10.5 -27.5q0 -19 -12.5 -32t-33.5 -14q-18 1 -29 11.5t-11 27.5q0 20 13 32.5t33 12.5q19 0 29.5 -10.5z
" />
    <glyph glyph-name="lslash" unicode="&#x142;" horiz-adv-x="289" 
d="M204 46l13 -43q-31 -14 -61 -14q-39 0 -60 20.5t-21 61.5q0 8 2 26l32 229l-55 -31l-16 42l79 45l50 354l58 7l-46 -326l102 59l16 -43l-126 -71l-38 -274q-1 -5 -1 -15q0 -18 8 -26.5t26 -8.5q17 0 38 8z" />
    <glyph glyph-name="m" unicode="m" horiz-adv-x="849" 
d="M737.5 501q29.5 -33 29.5 -92q0 -20 -4 -37l-52 -372h-58l52 367q3 14 3 36q0 82 -68 82q-47 0 -90.5 -45.5t-86.5 -124.5l-45 -315h-57l52 367q3 21 3 36q0 82 -69 82q-47 0 -90.5 -46t-86.5 -126l-44 -313h-57l74 523h48l-13 -129q82 140 185 140q51 0 81 -34t29 -95
q83 129 183 129q52 0 81.5 -33z" />
    <glyph glyph-name="n" unicode="n" horiz-adv-x="581" 
d="M467.5 501.5q31.5 -32.5 31.5 -92.5q0 -17 -3 -37l-52 -372h-58l52 367q3 21 3 36q0 44 -20.5 63t-61.5 19q-51 0 -99.5 -47t-89.5 -125l-44 -313h-57l74 523h48l-13 -130q40 66 91.5 103.5t106.5 37.5q60 0 91.5 -32.5z" />
    <glyph glyph-name="nacute" unicode="&#x144;" horiz-adv-x="581" 
d="M467.5 501.5q31.5 -32.5 31.5 -92.5q0 -17 -3 -37l-52 -372h-58l52 367q3 21 3 36q0 44 -20.5 63t-61.5 19q-51 0 -99.5 -47t-89.5 -125l-44 -313h-57l74 523h48l-13 -130q40 66 91.5 103.5t106.5 37.5q60 0 91.5 -32.5zM252 645l-14 34l201 103l19 -52z" />
    <glyph glyph-name="napostrophe" unicode="&#x149;" horiz-adv-x="581" 
d="M467.5 501.5q31.5 -32.5 31.5 -92.5q0 -17 -3 -37l-52 -372h-58l52 367q3 21 3 36q0 44 -20.5 63t-61.5 19q-51 0 -99.5 -47t-89.5 -125l-44 -313h-57l74 523h48l-13 -130q40 66 91.5 103.5t106.5 37.5q60 0 91.5 -32.5zM242.5 731.5q11.5 -12.5 9.5 -30.5
q-1 -12 -6.5 -24.5t-22.5 -42.5l-50 -88h-36l47 119q-19 14 -19 34q0 19 13 32t33 13t31.5 -12.5z" />
    <glyph glyph-name="ncaron" unicode="&#x148;" horiz-adv-x="581" 
d="M467.5 501.5q31.5 -32.5 31.5 -92.5q0 -17 -3 -37l-52 -372h-58l52 367q3 21 3 36q0 44 -20.5 63t-61.5 19q-51 0 -99.5 -47t-89.5 -125l-44 -313h-57l74 523h48l-13 -130q40 66 91.5 103.5t106.5 37.5q60 0 91.5 -32.5zM370 634h-36l-114 106l27 30l110 -84l133 84
l23 -30z" />
    <glyph glyph-name="ncommaaccent" unicode="&#x146;" horiz-adv-x="581" 
d="M467.5 501.5q31.5 -32.5 31.5 -92.5q0 -17 -3 -37l-52 -372h-58l52 367q3 21 3 36q0 44 -20.5 63t-61.5 19q-51 0 -99.5 -47t-89.5 -125l-44 -313h-57l74 523h48l-13 -130q40 66 91.5 103.5t106.5 37.5q60 0 91.5 -32.5zM268 -96.5q11 -11.5 11 -27.5q0 -14 -6 -27.5
t-25 -43.5l-52 -84h-35l49 115q-8 6 -13 15t-5 19q0 19 13.5 32t33.5 13q18 0 29 -11.5z" />
    <glyph glyph-name="eng" unicode="&#x14b;" horiz-adv-x="581" 
d="M467 501q32 -33 32 -93q0 -16 -3 -36l-51 -356q-10 -68 -29.5 -107.5t-51 -63.5t-87.5 -49l-17 44q42 19 66 37.5t39.5 50.5t22.5 86l50 353q3 21 3 36q0 44 -20.5 63t-61.5 19q-50 0 -99 -47t-90 -125l-44 -313h-57l74 523h48l-13 -133q38 66 90.5 105t107.5 39
q59 0 91 -33z" />
    <glyph glyph-name="ntilde" unicode="&#xf1;" horiz-adv-x="581" 
d="M467.5 501.5q31.5 -32.5 31.5 -92.5q0 -17 -3 -37l-52 -372h-58l52 367q3 21 3 36q0 44 -20.5 63t-61.5 19q-51 0 -99.5 -47t-89.5 -125l-44 -313h-57l74 523h48l-13 -130q40 66 91.5 103.5t106.5 37.5q60 0 91.5 -32.5zM381 674q-16 7 -35 20q-2 1 -10.5 7t-16 8.5
t-14.5 2.5q-20 0 -32.5 -9t-32.5 -33l-33 22q45 66 98 66q17 0 30.5 -6t31.5 -18q15 -11 26 -16t22 -5q16 0 30.5 10.5t32.5 34.5l34 -22q-44 -70 -94 -70q-21 1 -37 8z" />
    <glyph glyph-name="o" unicode="o" horiz-adv-x="569" 
d="M460.5 479q49.5 -55 49.5 -155q0 -74 -26 -151t-84.5 -130.5t-150.5 -53.5q-91 0 -140.5 56t-49.5 156q0 75 26.5 151.5t85 129t150.5 52.5q90 0 139.5 -55zM202 439.5q-45 -46.5 -64 -113.5t-19 -130q0 -78 33.5 -118t97.5 -40q71 0 115.5 46t64 113t19.5 131
q0 78 -33.5 118t-96.5 40q-72 0 -117 -46.5z" />
    <glyph glyph-name="oacute" unicode="&#xf3;" horiz-adv-x="569" 
d="M460.5 479q49.5 -55 49.5 -155q0 -74 -26 -151t-84.5 -130.5t-150.5 -53.5q-91 0 -140.5 56t-49.5 156q0 75 26.5 151.5t85 129t150.5 52.5q90 0 139.5 -55zM202 439.5q-45 -46.5 -64 -113.5t-19 -130q0 -78 33.5 -118t97.5 -40q71 0 115.5 46t64 113t19.5 131
q0 78 -33.5 118t-96.5 40q-72 0 -117 -46.5zM240 645l-14 34l201 103l19 -52z" />
    <glyph glyph-name="obreve" unicode="&#x14f;" horiz-adv-x="569" 
d="M460.5 479q49.5 -55 49.5 -155q0 -74 -26 -151t-84.5 -130.5t-150.5 -53.5q-91 0 -140.5 56t-49.5 156q0 75 26.5 151.5t85 129t150.5 52.5q90 0 139.5 -55zM202 439.5q-45 -46.5 -64 -113.5t-19 -130q0 -78 33.5 -118t97.5 -40q71 0 115.5 46t64 113t19.5 131
q0 78 -33.5 118t-96.5 40q-72 0 -117 -46.5zM257 684q-32 31 -32 81l41 6q9 -71 76 -71q36 0 63 19t41 54l38 -12q-13 -49 -52.5 -78.5t-90.5 -29.5q-52 0 -84 31z" />
    <glyph glyph-name="ocircumflex" unicode="&#xf4;" horiz-adv-x="569" 
d="M460.5 479q49.5 -55 49.5 -155q0 -74 -26 -151t-84.5 -130.5t-150.5 -53.5q-91 0 -140.5 56t-49.5 156q0 75 26.5 151.5t85 129t150.5 52.5q90 0 139.5 -55zM202 439.5q-45 -46.5 -64 -113.5t-19 -130q0 -78 33.5 -118t97.5 -40q71 0 115.5 46t64 113t19.5 131
q0 78 -33.5 118t-96.5 40q-72 0 -117 -46.5zM341 779h35l114 -105l-28 -31l-109 85l-131 -85l-25 31z" />
    <glyph glyph-name="odieresis" unicode="&#xf6;" horiz-adv-x="569" 
d="M460.5 479q49.5 -55 49.5 -155q0 -74 -26 -151t-84.5 -130.5t-150.5 -53.5q-91 0 -140.5 56t-49.5 156q0 75 26.5 151.5t85 129t150.5 52.5q90 0 139.5 -55zM202 439.5q-45 -46.5 -64 -113.5t-19 -130q0 -78 33.5 -118t97.5 -40q71 0 115.5 46t64 113t19.5 131
q0 78 -33.5 118t-96.5 40q-72 0 -117 -46.5zM274.5 731.5q10.5 -10.5 10.5 -25.5q0 -18 -12 -30.5t-30 -12.5q-17 0 -27 10.5t-10 25.5q0 18 12 30.5t30 12.5q16 0 26.5 -10.5zM463 731.5q10 -10.5 10 -25.5q0 -18 -12 -30.5t-30 -12.5q-16 0 -26.5 10.5t-10.5 25.5
q0 18 12 30.5t30 12.5q17 0 27 -10.5z" />
    <glyph glyph-name="ograve" unicode="&#xf2;" horiz-adv-x="569" 
d="M460.5 479q49.5 -55 49.5 -155q0 -74 -26 -151t-84.5 -130.5t-150.5 -53.5q-91 0 -140.5 56t-49.5 156q0 75 26.5 151.5t85 129t150.5 52.5q90 0 139.5 -55zM202 439.5q-45 -46.5 -64 -113.5t-19 -130q0 -78 33.5 -118t97.5 -40q71 0 115.5 46t64 113t19.5 131
q0 78 -33.5 118t-96.5 40q-72 0 -117 -46.5zM434 645l-183 85l33 52l172 -104z" />
    <glyph glyph-name="ohungarumlaut" unicode="&#x151;" horiz-adv-x="569" 
d="M460.5 479q49.5 -55 49.5 -155q0 -74 -26 -151t-84.5 -130.5t-150.5 -53.5q-91 0 -140.5 56t-49.5 156q0 75 26.5 151.5t85 129t150.5 52.5q90 0 139.5 -55zM202 439.5q-45 -46.5 -64 -113.5t-19 -130q0 -78 33.5 -118t97.5 -40q71 0 115.5 46t64 113t19.5 131
q0 78 -33.5 118t-96.5 40q-72 0 -117 -46.5zM412 642l-36 18l99 151l49 -27zM292 647l-36 17l90 147l49 -28z" />
    <glyph glyph-name="omacron" unicode="&#x14d;" horiz-adv-x="569" 
d="M460.5 479q49.5 -55 49.5 -155q0 -74 -26 -151t-84.5 -130.5t-150.5 -53.5q-91 0 -140.5 56t-49.5 156q0 75 26.5 151.5t85 129t150.5 52.5q90 0 139.5 -55zM202 439.5q-45 -46.5 -64 -113.5t-19 -130q0 -78 33.5 -118t97.5 -40q71 0 115.5 46t64 113t19.5 131
q0 78 -33.5 118t-96.5 40q-72 0 -117 -46.5zM229 723h240l-7 -47h-240z" />
    <glyph glyph-name="oslash" unicode="&#xf8;" horiz-adv-x="569" 
d="M428 506q40 -26 61 -72t21 -110q0 -74 -26 -151t-84.5 -130.5t-150.5 -53.5q-34 0 -63 9l-58 -123l-47 14l61 128q-41 26 -62 73t-21 111q0 75 26.5 151.5t85 129t150.5 52.5q35 0 63 -9l57 123l47 -14zM202 439.5q-45 -46.5 -64 -113.5t-19 -130q0 -97 51 -134l197 417
q-20 7 -48 7q-72 0 -117 -46.5zM250 38q71 0 115.5 46t64 113t19.5 131q0 96 -48 133l-197 -416q18 -7 46 -7z" />
    <glyph glyph-name="oslashacute" unicode="&#x1ff;" horiz-adv-x="569" 
d="M428 506q40 -26 61 -72t21 -110q0 -74 -26 -151t-84.5 -130.5t-150.5 -53.5q-34 0 -63 9l-58 -123l-47 14l61 128q-41 26 -62 73t-21 111q0 75 26.5 151.5t85 129t150.5 52.5q35 0 63 -9l57 123l47 -14zM202 439.5q-45 -46.5 -64 -113.5t-19 -130q0 -97 51 -134l197 417
q-20 7 -48 7q-72 0 -117 -46.5zM250 38q71 0 115.5 46t64 113t19.5 131q0 96 -48 133l-197 -416q18 -7 46 -7zM240 645l-14 34l201 103l19 -52z" />
    <glyph glyph-name="otilde" unicode="&#xf5;" horiz-adv-x="569" 
d="M460.5 479q49.5 -55 49.5 -155q0 -74 -26 -151t-84.5 -130.5t-150.5 -53.5q-91 0 -140.5 56t-49.5 156q0 75 26.5 151.5t85 129t150.5 52.5q90 0 139.5 -55zM202 439.5q-45 -46.5 -64 -113.5t-19 -130q0 -78 33.5 -118t97.5 -40q71 0 115.5 46t64 113t19.5 131
q0 78 -33.5 118t-96.5 40q-72 0 -117 -46.5zM369 674q-16 7 -35 20q-2 1 -10.5 7t-16 8.5t-14.5 2.5q-20 0 -32.5 -9t-32.5 -33l-33 22q45 66 98 66q17 0 30.5 -6t31.5 -18q15 -11 26 -16t22 -5q16 0 30.5 10.5t32.5 34.5l34 -22q-44 -70 -94 -70q-21 1 -37 8z" />
    <glyph glyph-name="oe" unicode="&#x153;" horiz-adv-x="900" 
d="M767.5 266q-94.5 -47 -267.5 -60v-6q0 -82 35.5 -121.5t98.5 -39.5q41 0 75 13t72 40l27 -41q-42 -31 -85.5 -46.5t-92.5 -15.5q-67 0 -111 33.5t-64 95.5q-71 -129 -206 -129q-91 0 -140.5 56t-49.5 156q0 75 26.5 151.5t85 129t150.5 52.5q67 0 111.5 -33.5t63.5 -94.5
q69 128 207 128q74 0 116.5 -35.5t42.5 -90.5q0 -95 -94.5 -142zM564.5 417q-49.5 -69 -61.5 -166q150 12 224 49t74 106q0 34 -25 57t-74 23q-88 0 -137.5 -69zM365.5 84q44.5 46 64 113t19.5 131q0 78 -33.5 118t-96.5 40q-72 0 -117 -46.5t-64 -113.5t-19 -130
q0 -78 33.5 -118t97.5 -40q71 0 115.5 46z" />
    <glyph glyph-name="p" unicode="p" horiz-adv-x="578" 
d="M472 483q41 -51 41 -147q0 -80 -26.5 -159.5t-87 -133.5t-155.5 -54q-60 0 -117 20l-28 -208l-59 -8l103 730h49l-6 -72q39 42 80.5 62.5t88.5 20.5q76 0 117 -51zM258.5 463.5q-37.5 -22.5 -76.5 -65.5l-47 -340q27 -11 52 -16t59 -5q73 0 120 48t67.5 117.5t20.5 137.5
q0 146 -112 146q-46 0 -83.5 -22.5z" />
    <glyph glyph-name="thorn" unicode="&#xfe;" horiz-adv-x="578" 
d="M472 483q41 -51 41 -147q0 -80 -26.5 -159.5t-87 -133.5t-155.5 -54q-61 0 -117 23l-29 -211l-59 -8l134 943l58 7l-41 -286q77 77 165 77q76 0 117 -51zM366.5 85q46.5 48 67 117.5t20.5 137.5q0 146 -112 146q-46 0 -83.5 -22.5t-76.5 -65.5l-47 -339q29 -11 54 -16.5
t58 -5.5q73 0 119.5 48z" />
    <glyph glyph-name="q" unicode="q" horiz-adv-x="566" 
d="M414.5 523.5q38.5 -10.5 82.5 -32.5l-96 -691l-58 -7l40 286q-28 -41 -70 -65.5t-90 -24.5q-78 0 -121.5 54t-43.5 149q0 78 28 157t88.5 132t152.5 53q49 0 87.5 -10.5zM210 441q-47 -46 -69 -114t-22 -135q0 -76 29.5 -115.5t84.5 -39.5q46 0 84.5 28.5t73.5 82.5
l45 315q-50 24 -107 24q-72 0 -119 -46z" />
    <glyph glyph-name="r" unicode="r" horiz-adv-x="371" 
d="M395 527l-16 -54q-18 5 -42 5q-54 0 -94 -45.5t-74 -134.5l-43 -298h-57l74 523h49l-14 -127q30 67 72 102.5t95 35.5q29 0 50 -7z" />
    <glyph glyph-name="racute" unicode="&#x155;" horiz-adv-x="371" 
d="M395 527l-16 -54q-18 5 -42 5q-54 0 -94 -45.5t-74 -134.5l-43 -298h-57l74 523h49l-14 -127q30 67 72 102.5t95 35.5q29 0 50 -7zM188 645l-14 34l201 103l19 -52z" />
    <glyph glyph-name="rcaron" unicode="&#x159;" horiz-adv-x="371" 
d="M395 527l-16 -54q-18 5 -42 5q-54 0 -94 -45.5t-74 -134.5l-43 -298h-57l74 523h49l-14 -127q30 67 72 102.5t95 35.5q29 0 50 -7zM306 634h-36l-114 106l27 30l110 -84l133 84l23 -30z" />
    <glyph glyph-name="rcommaaccent" unicode="&#x157;" horiz-adv-x="371" 
d="M395 527l-16 -54q-18 5 -42 5q-54 0 -94 -45.5t-74 -134.5l-43 -298h-57l74 523h49l-14 -127q30 67 72 102.5t95 35.5q29 0 50 -7zM112 -96.5q11 -11.5 11 -27.5q0 -14 -6 -27.5t-25 -43.5l-52 -84h-35l49 115q-8 6 -13 15t-5 19q0 19 13.5 32t33.5 13q18 0 29 -11.5z
" />
    <glyph glyph-name="s" unicode="s" horiz-adv-x="461" 
d="M421 475l-32 -38q-55 49 -127 49q-58 0 -92 -24t-34 -65q0 -34 25 -55.5t89 -40.5q78 -24 112.5 -59.5t34.5 -94.5q0 -71 -55 -114.5t-148 -43.5q-61 0 -105.5 19t-79.5 52l36 37q62 -59 149 -59q68 0 105.5 29t37.5 77q0 41 -25.5 65t-94.5 46q-77 25 -108.5 57.5
t-31.5 82.5q0 37 22.5 69t64.5 51t98 19q91 0 159 -59z" />
    <glyph glyph-name="sacute" unicode="&#x15b;" horiz-adv-x="461" 
d="M421 475l-32 -38q-55 49 -127 49q-58 0 -92 -24t-34 -65q0 -34 25 -55.5t89 -40.5q78 -24 112.5 -59.5t34.5 -94.5q0 -71 -55 -114.5t-148 -43.5q-61 0 -105.5 19t-79.5 52l36 37q62 -59 149 -59q68 0 105.5 29t37.5 77q0 41 -25.5 65t-94.5 46q-77 25 -108.5 57.5
t-31.5 82.5q0 37 22.5 69t64.5 51t98 19q91 0 159 -59zM189 645l-14 34l201 103l19 -52z" />
    <glyph glyph-name="scaron" unicode="&#x161;" horiz-adv-x="461" 
d="M421 475l-32 -38q-55 49 -127 49q-58 0 -92 -24t-34 -65q0 -34 25 -55.5t89 -40.5q78 -24 112.5 -59.5t34.5 -94.5q0 -71 -55 -114.5t-148 -43.5q-61 0 -105.5 19t-79.5 52l36 37q62 -59 149 -59q68 0 105.5 29t37.5 77q0 41 -25.5 65t-94.5 46q-77 25 -108.5 57.5
t-31.5 82.5q0 37 22.5 69t64.5 51t98 19q91 0 159 -59zM307 634h-36l-114 106l27 30l110 -84l133 84l23 -30z" />
    <glyph glyph-name="scedilla" unicode="&#x15f;" horiz-adv-x="461" 
d="M362.5 241.5q34.5 -35.5 34.5 -94.5q0 -68 -51 -111t-139 -47l-8 -53q83 -6 83 -69q0 -39 -32 -66.5t-83 -27.5q-47 0 -79 23l23 34q22 -15 55 -15q26 -1 45.5 12.5t19.5 36.5q0 21 -18 30.5t-64 10.5l18 85q-92 8 -158 70l36 37q62 -59 149 -59q68 0 105.5 29t37.5 77
q0 41 -25.5 65t-94.5 46q-77 25 -108.5 57.5t-31.5 82.5q0 37 22.5 69t64.5 51t98 19q91 0 159 -59l-32 -38q-55 49 -127 49q-58 0 -92 -24t-34 -65q0 -34 25 -55.5t89 -40.5q78 -24 112.5 -59.5z" />
    <glyph glyph-name="scircumflex" unicode="&#x15d;" horiz-adv-x="461" 
d="M421 475l-32 -38q-55 49 -127 49q-58 0 -92 -24t-34 -65q0 -34 25 -55.5t89 -40.5q78 -24 112.5 -59.5t34.5 -94.5q0 -71 -55 -114.5t-148 -43.5q-61 0 -105.5 19t-79.5 52l36 37q62 -59 149 -59q68 0 105.5 29t37.5 77q0 41 -25.5 65t-94.5 46q-77 25 -108.5 57.5
t-31.5 82.5q0 37 22.5 69t64.5 51t98 19q91 0 159 -59zM289 779h35l114 -105l-28 -31l-109 85l-131 -85l-25 31z" />
    <glyph glyph-name="scommaaccent" unicode="&#x219;" horiz-adv-x="461" 
d="M421 475l-32 -38q-55 49 -127 49q-58 0 -92 -24t-34 -65q0 -34 25 -55.5t89 -40.5q78 -24 112.5 -59.5t34.5 -94.5q0 -71 -55 -114.5t-148 -43.5q-61 0 -105.5 19t-79.5 52l36 37q62 -59 149 -59q68 0 105.5 29t37.5 77q0 41 -25.5 65t-94.5 46q-77 25 -108.5 57.5
t-31.5 82.5q0 37 22.5 69t64.5 51t98 19q91 0 159 -59zM209 -96.5q11 -11.5 11 -27.5q0 -14 -6 -27.5t-25 -43.5l-52 -84h-35l49 115q-8 6 -13 15t-5 19q0 19 13.5 32t33.5 13q18 0 29 -11.5z" />
    <glyph glyph-name="germandbls" unicode="&#xdf;" horiz-adv-x="579" 
d="M375.5 379q13.5 -16 43.5 -40q46 -36 72.5 -73t26.5 -97q0 -41 -21 -82.5t-63.5 -69.5t-103.5 -28q-32 0 -61.5 8t-50.5 20l22 41q42 -20 86 -20q46 0 76.5 21t44 51t13.5 58q0 47 -21.5 76.5t-63.5 64.5q-34 28 -51 49.5t-18 51.5q1 35 18.5 56.5t51.5 47.5
q36 27 54.5 50t18.5 60q0 34 -25 53t-68 19q-61 0 -102 -40.5t-52 -119.5l-74 -519q-9 -68 -29 -108t-51.5 -64t-87.5 -49l-17 45q41 19 65 37.5t39.5 51.5t23.5 89l74 523q13 96 70 148.5t142 52.5q68 0 108 -33t40 -86q0 -47 -22 -75t-63 -58q-29 -21 -43.5 -37t-14.5 -38
q0 -21 13.5 -37z" />
    <glyph glyph-name="t" unicode="t" horiz-adv-x="339" 
d="M142 102q0 -32 15 -47.5t48 -15.5q37 0 84 25l20 -43q-56 -32 -113 -32q-53 0 -82.5 28.5t-29.5 81.5q0 9 2 29l49 348h-88l7 47h89l29 127l46 5l-19 -132h134l-13 -47h-127l-49 -347q-2 -20 -2 -27z" />
    <glyph glyph-name="tbar" unicode="&#x167;" horiz-adv-x="339" 
d="M175 350h127l-14 -47h-120l-24 -174q-2 -20 -2 -27q0 -32 15 -47.5t48 -15.5q37 0 84 25l20 -43q-56 -32 -113 -32q-53 0 -82.5 28.5t-29.5 81.5q0 9 2 29l25 175h-79l6 47h79l18 126h-88l7 47h89l29 127l46 5l-19 -132h134l-13 -47h-127z" />
    <glyph glyph-name="tcaron" unicode="&#x165;" horiz-adv-x="339" 
d="M142 102q0 -32 15 -47.5t48 -15.5q37 0 84 25l20 -43q-56 -32 -113 -32q-53 0 -82.5 28.5t-29.5 81.5q0 9 2 29l49 348h-88l7 47h89l29 127l46 5l-19 -132h134l-13 -47h-127l-49 -347q-2 -20 -2 -27zM309 575l-35 5l40 165l55 -6z" />
    <glyph glyph-name="tcedilla" unicode="&#x163;" horiz-adv-x="339" 
d="M142 102q0 -32 15 -47.5t48 -15.5q37 0 84 25l20 -43q-53 -31 -107 -32l-9 -53q83 -7 83 -69q0 -39 -32 -67t-82 -28q-46 0 -79 23l22 35q25 -16 56 -16q26 0 45.5 13.5t19.5 36.5q0 21 -18.5 30t-64.5 10l20 88q-38 8 -58.5 35.5t-20.5 71.5q0 9 2 29l49 348h-88l7 47
h89l29 127l46 5l-19 -132h134l-13 -47h-127l-49 -347q-2 -20 -2 -27z" />
    <glyph glyph-name="uni021B" unicode="&#x21b;" horiz-adv-x="339" 
d="M142 102q0 -32 15 -47.5t48 -15.5q37 0 84 25l20 -43q-56 -32 -113 -32q-53 0 -82.5 28.5t-29.5 81.5q0 9 2 29l49 348h-88l7 47h89l29 127l46 5l-19 -132h134l-13 -47h-127l-49 -347q-2 -20 -2 -27zM204 -96.5q11 -11.5 11 -27.5q0 -14 -6 -27.5t-25 -43.5l-52 -84h-35
l49 115q-8 6 -13 15t-5 19q0 19 13.5 32t33.5 13q18 0 29 -11.5z" />
    <glyph glyph-name="u" unicode="u" horiz-adv-x="577" 
d="M385 0l14 133q-36 -67 -84.5 -105.5t-108.5 -38.5q-59 0 -91.5 33t-32.5 94q0 11 2 35l53 372h57l-52 -370q-2 -24 -2 -34q0 -43 19.5 -62.5t57.5 -19.5q102 0 188 166l44 320h58l-74 -523h-48z" />
    <glyph glyph-name="uacute" unicode="&#xfa;" horiz-adv-x="577" 
d="M385 0l14 133q-36 -67 -84.5 -105.5t-108.5 -38.5q-59 0 -91.5 33t-32.5 94q0 11 2 35l53 372h57l-52 -370q-2 -24 -2 -34q0 -43 19.5 -62.5t57.5 -19.5q102 0 188 166l44 320h58l-74 -523h-48zM243 645l-14 34l201 103l19 -52z" />
    <glyph glyph-name="ubreve" unicode="&#x16d;" horiz-adv-x="577" 
d="M385 0l14 133q-36 -67 -84.5 -105.5t-108.5 -38.5q-59 0 -91.5 33t-32.5 94q0 11 2 35l53 372h57l-52 -370q-2 -24 -2 -34q0 -43 19.5 -62.5t57.5 -19.5q102 0 188 166l44 320h58l-74 -523h-48zM259 684q-32 31 -32 81l41 6q9 -71 76 -71q36 0 63 19t41 54l38 -12
q-13 -49 -52.5 -78.5t-90.5 -29.5q-52 0 -84 31z" />
    <glyph glyph-name="ucircumflex" unicode="&#xfb;" horiz-adv-x="577" 
d="M385 0l14 133q-36 -67 -84.5 -105.5t-108.5 -38.5q-59 0 -91.5 33t-32.5 94q0 11 2 35l53 372h57l-52 -370q-2 -24 -2 -34q0 -43 19.5 -62.5t57.5 -19.5q102 0 188 166l44 320h58l-74 -523h-48zM343 779h35l114 -105l-28 -31l-109 85l-131 -85l-25 31z" />
    <glyph glyph-name="udieresis" unicode="&#xfc;" horiz-adv-x="577" 
d="M385 0l14 133q-36 -67 -84.5 -105.5t-108.5 -38.5q-59 0 -91.5 33t-32.5 94q0 11 2 35l53 372h57l-52 -370q-2 -24 -2 -34q0 -43 19.5 -62.5t57.5 -19.5q102 0 188 166l44 320h58l-74 -523h-48zM276.5 731.5q10.5 -10.5 10.5 -25.5q0 -18 -12 -30.5t-30 -12.5
q-17 0 -27 10.5t-10 25.5q0 18 12 30.5t30 12.5q16 0 26.5 -10.5zM465 731.5q10 -10.5 10 -25.5q0 -18 -12 -30.5t-30 -12.5q-16 0 -26.5 10.5t-10.5 25.5q0 18 12 30.5t30 12.5q17 0 27 -10.5z" />
    <glyph glyph-name="ugrave" unicode="&#xf9;" horiz-adv-x="577" 
d="M385 0l14 133q-36 -67 -84.5 -105.5t-108.5 -38.5q-59 0 -91.5 33t-32.5 94q0 11 2 35l53 372h57l-52 -370q-2 -24 -2 -34q0 -43 19.5 -62.5t57.5 -19.5q102 0 188 166l44 320h58l-74 -523h-48zM436 645l-183 85l33 52l172 -104z" />
    <glyph glyph-name="uhungarumlaut" unicode="&#x171;" horiz-adv-x="577" 
d="M385 0l14 133q-36 -67 -84.5 -105.5t-108.5 -38.5q-59 0 -91.5 33t-32.5 94q0 11 2 35l53 372h57l-52 -370q-2 -24 -2 -34q0 -43 19.5 -62.5t57.5 -19.5q102 0 188 166l44 320h58l-74 -523h-48zM415 642l-36 18l99 151l49 -27zM295 647l-36 17l90 147l49 -28z" />
    <glyph glyph-name="umacron" unicode="&#x16b;" horiz-adv-x="577" 
d="M385 0l14 133q-36 -67 -84.5 -105.5t-108.5 -38.5q-59 0 -91.5 33t-32.5 94q0 11 2 35l53 372h57l-52 -370q-2 -24 -2 -34q0 -43 19.5 -62.5t57.5 -19.5q102 0 188 166l44 320h58l-74 -523h-48zM231 723h240l-7 -47h-240z" />
    <glyph glyph-name="uogonek" unicode="&#x173;" horiz-adv-x="577" 
d="M326 -61q-32 -29 -32 -63q0 -45 55 -45q27 0 59 7l-10 -49q-30 -6 -57 -6q-49 0 -75 22.5t-26 58.5q0 48 34 83.5t113 65.5l12 120q-36 -67 -84.5 -105.5t-108.5 -38.5q-59 0 -91.5 33t-32.5 94q0 11 2 35l53 372h57l-52 -370q-2 -24 -2 -34q0 -43 19.5 -62.5t57.5 -19.5
q102 0 188 166l44 320h58l-74 -521l1 -2q-76 -32 -108 -61z" />
    <glyph glyph-name="uring" unicode="&#x16f;" horiz-adv-x="577" 
d="M385 0l14 133q-36 -67 -84.5 -105.5t-108.5 -38.5q-59 0 -91.5 33t-32.5 94q0 11 2 35l53 372h57l-52 -370q-2 -24 -2 -34q0 -43 19.5 -62.5t57.5 -19.5q102 0 188 166l44 320h58l-74 -523h-48zM426.5 797.5q24.5 -23.5 24.5 -59.5q0 -45 -31.5 -75t-78.5 -30
q-39 0 -63.5 23.5t-24.5 59.5q0 45 31.5 75t77.5 30q40 0 64.5 -23.5zM317.5 769q-16.5 -16 -20.5 -46q-1 -3 -1 -9q0 -21 12.5 -33t34.5 -12q26 0 42 16t21 45q2 8 2 12q0 20 -13 31.5t-35 11.5q-26 0 -42.5 -16z" />
    <glyph glyph-name="utilde" unicode="&#x169;" horiz-adv-x="577" 
d="M385 0l14 133q-36 -67 -84.5 -105.5t-108.5 -38.5q-59 0 -91.5 33t-32.5 94q0 11 2 35l53 372h57l-52 -370q-2 -24 -2 -34q0 -43 19.5 -62.5t57.5 -19.5q102 0 188 166l44 320h58l-74 -523h-48zM371 674q-16 7 -35 20q-2 1 -10.5 7t-16 8.5t-14.5 2.5q-20 0 -32.5 -9
t-32.5 -33l-33 22q45 66 98 66q17 0 30.5 -6t31.5 -18q15 -11 26 -16t22 -5q16 0 30.5 10.5t32.5 34.5l34 -22q-44 -70 -94 -70q-21 1 -37 8z" />
    <glyph glyph-name="v" unicode="v" horiz-adv-x="467" 
d="M164 0l-112 523h63l91 -471l219 471h64l-254 -523h-71z" />
    <glyph glyph-name="w" unicode="w" horiz-adv-x="696" 
d="M429 0l-49 469l-183 -469h-77l-57 523h57l45 -478l188 478h68l51 -479l178 479h57l-200 -523h-78z" />
    <glyph glyph-name="wacute" unicode="&#x1e83;" horiz-adv-x="696" 
d="M429 0l-49 469l-183 -469h-77l-57 523h57l45 -478l188 478h68l51 -479l178 479h57l-200 -523h-78zM304 645l-14 34l201 103l19 -52z" />
    <glyph glyph-name="wcircumflex" unicode="&#x175;" horiz-adv-x="696" 
d="M429 0l-49 469l-183 -469h-77l-57 523h57l45 -478l188 478h68l51 -479l178 479h57l-200 -523h-78zM405 779h35l114 -105l-28 -31l-109 85l-131 -85l-25 31z" />
    <glyph glyph-name="wdieresis" unicode="&#x1e85;" horiz-adv-x="696" 
d="M429 0l-49 469l-183 -469h-77l-57 523h57l45 -478l188 478h68l51 -479l178 479h57l-200 -523h-78zM337.5 731.5q10.5 -10.5 10.5 -25.5q0 -18 -12 -30.5t-30 -12.5q-17 0 -27 10.5t-10 25.5q0 18 12 30.5t30 12.5q16 0 26.5 -10.5zM526 731.5q10 -10.5 10 -25.5
q0 -18 -12 -30.5t-30 -12.5q-16 0 -26.5 10.5t-10.5 25.5q0 18 12 30.5t30 12.5q17 0 27 -10.5z" />
    <glyph glyph-name="wgrave" unicode="&#x1e81;" horiz-adv-x="696" 
d="M429 0l-49 469l-183 -469h-77l-57 523h57l45 -478l188 478h68l51 -479l178 479h57l-200 -523h-78zM497 645l-183 85l33 52l172 -104z" />
    <glyph glyph-name="x" unicode="x" horiz-adv-x="456" 
d="M408 0h-65l-118 242l-186 -242h-66l223 281l-125 242h64l100 -208l159 208h66l-195 -247z" />
    <glyph glyph-name="y" unicode="y" horiz-adv-x="465" 
d="M142 -140q-53 -46 -147 -64l-3 45q53 13 85.5 32.5t54.5 48t48 79.5l-21 -1l-107 523h61l90 -479l223 479h61l-249 -527q-43 -90 -96 -136z" />
    <glyph glyph-name="yacute" unicode="&#xfd;" horiz-adv-x="465" 
d="M142 -140q-53 -46 -147 -64l-3 45q53 13 85.5 32.5t54.5 48t48 79.5l-21 -1l-107 523h61l90 -479l223 479h61l-249 -527q-43 -90 -96 -136zM184 645l-14 34l201 103l19 -52z" />
    <glyph glyph-name="ycircumflex" unicode="&#x177;" horiz-adv-x="465" 
d="M142 -140q-53 -46 -147 -64l-3 45q53 13 85.5 32.5t54.5 48t48 79.5l-21 -1l-107 523h61l90 -479l223 479h61l-249 -527q-43 -90 -96 -136zM285 779h35l114 -105l-28 -31l-109 85l-131 -85l-25 31z" />
    <glyph glyph-name="ydieresis" unicode="&#xff;" horiz-adv-x="465" 
d="M142 -140q-53 -46 -147 -64l-3 45q53 13 85.5 32.5t54.5 48t48 79.5l-21 -1l-107 523h61l90 -479l223 479h61l-249 -527q-43 -90 -96 -136zM217.5 731.5q10.5 -10.5 10.5 -25.5q0 -18 -12 -30.5t-30 -12.5q-17 0 -27 10.5t-10 25.5q0 18 12 30.5t30 12.5q16 0 26.5 -10.5
zM406 731.5q10 -10.5 10 -25.5q0 -18 -12 -30.5t-30 -12.5q-16 0 -26.5 10.5t-10.5 25.5q0 18 12 30.5t30 12.5q17 0 27 -10.5z" />
    <glyph glyph-name="ygrave" unicode="&#x1ef3;" horiz-adv-x="465" 
d="M142 -140q-53 -46 -147 -64l-3 45q53 13 85.5 32.5t54.5 48t48 79.5l-21 -1l-107 523h61l90 -479l223 479h61l-249 -527q-43 -90 -96 -136zM377 645l-183 85l33 52l172 -104z" />
    <glyph glyph-name="z" unicode="z" horiz-adv-x="419" 
d="M70 50h284l-13 -50h-351l7 45l347 428h-263l7 50h335l-6 -45z" />
    <glyph glyph-name="zacute" unicode="&#x17a;" horiz-adv-x="419" 
d="M70 50h284l-13 -50h-351l7 45l347 428h-263l7 50h335l-6 -45zM171 645l-14 34l201 103l19 -52z" />
    <glyph glyph-name="zcaron" unicode="&#x17e;" horiz-adv-x="419" 
d="M70 50h284l-13 -50h-351l7 45l347 428h-263l7 50h335l-6 -45zM288 634h-36l-114 106l27 30l110 -84l133 84l23 -30z" />
    <glyph glyph-name="zdotaccent" unicode="&#x17c;" horiz-adv-x="419" 
d="M70 50h284l-13 -50h-351l7 45l347 428h-263l7 50h335l-6 -45zM309.5 742.5q10.5 -10.5 10.5 -27.5q0 -19 -12.5 -32t-33.5 -14q-18 1 -29 11.5t-11 27.5q0 20 13 32.5t33 12.5q19 0 29.5 -10.5z" />
    <glyph glyph-name="cacute.loclPLK" horiz-adv-x="467" 
d="M461 480l-33 -36q-22 21 -47.5 31t-59.5 10q-71 0 -116 -45t-65 -111t-20 -132q0 -78 35 -117.5t96 -39.5q36 0 66.5 11t62.5 33l25 -41q-71 -54 -155 -54q-90 0 -140 55t-50 156q0 76 27 153t85.5 129t147.5 52q86 0 141 -54zM322 578l-29 19l124 166l45 -32z" />
    <glyph glyph-name="nacute.loclPLK" horiz-adv-x="581" 
d="M467.5 501.5q31.5 -32.5 31.5 -92.5q0 -17 -3 -37l-52 -372h-58l52 367q3 21 3 36q0 44 -20.5 63t-61.5 19q-51 0 -99.5 -47t-89.5 -125l-44 -313h-57l74 523h48l-13 -130q40 66 91.5 103.5t106.5 37.5q60 0 91.5 -32.5zM332 578l-29 19l124 166l45 -32z" />
    <glyph glyph-name="oacute.loclPLK" horiz-adv-x="569" 
d="M460.5 479q49.5 -55 49.5 -155q0 -74 -26 -151t-84.5 -130.5t-150.5 -53.5q-91 0 -140.5 56t-49.5 156q0 75 26.5 151.5t85 129t150.5 52.5q90 0 139.5 -55zM202 439.5q-45 -46.5 -64 -113.5t-19 -130q0 -78 33.5 -118t97.5 -40q71 0 115.5 46t64 113t19.5 131
q0 78 -33.5 118t-96.5 40q-72 0 -117 -46.5zM321 578l-29 19l124 166l45 -32z" />
    <glyph glyph-name="sacute.loclPLK" horiz-adv-x="461" 
d="M421 475l-32 -38q-55 49 -127 49q-58 0 -92 -24t-34 -65q0 -34 25 -55.5t89 -40.5q78 -24 112.5 -59.5t34.5 -94.5q0 -71 -55 -114.5t-148 -43.5q-61 0 -105.5 19t-79.5 52l36 37q62 -59 149 -59q68 0 105.5 29t37.5 77q0 41 -25.5 65t-94.5 46q-77 25 -108.5 57.5
t-31.5 82.5q0 37 22.5 69t64.5 51t98 19q91 0 159 -59zM269 578l-29 19l124 166l45 -32z" />
    <glyph glyph-name="zacute.loclPLK" horiz-adv-x="419" 
d="M70 50h284l-13 -50h-351l7 45l347 428h-263l7 50h335l-6 -45zM251 578l-29 19l124 166l45 -32z" />
    <glyph glyph-name="f_i" horiz-adv-x="565" 
d="M423 0h-58l67 476h-234l-64 -459q-9 -68 -29 -108t-51.5 -64t-87.5 -49l-17 45q41 19 65 37.5t39.5 51.5t23.5 89l64 457h-91l7 47h91l12 87q8 63 53 98t120 35t137 -42l-24 -39q-25 16 -54.5 25t-58.5 9q-53 0 -81.5 -22t-35.5 -68l-11 -83h292z" />
    <glyph glyph-name="f_l" horiz-adv-x="600" 
d="M506 46l13 -43q-31 -14 -63 -14q-38 0 -58.5 20t-20.5 59q0 6 2 24l81 580q-33 12 -63 17.5t-67 5.5q-51 0 -79 -22t-35 -67l-11 -83h137l-13 -47h-131l-64 -459q-9 -68 -29 -108t-51.5 -64t-87.5 -49l-17 45q41 19 65 37.5t39.5 51.5t23.5 89l64 457h-91l7 47h91l12 87
q8 63 53 98t118 35t139 -25l54 6l-89 -636q-1 -6 -1 -16q0 -17 8 -25.5t26 -8.5q19 0 38 8z" />
    <glyph glyph-name="cacute.sc.loclPLK" horiz-adv-x="490" 
d="M496 516l-35 -35q-27 22 -52.5 32t-58.5 10q-79 0 -130 -46.5t-74 -116.5t-23 -142q0 -89 41 -133.5t110 -44.5q41 0 72 12t64 36l28 -38q-69 -59 -167 -59q-95 0 -151.5 60t-56.5 171q0 81 30 161.5t93.5 134t159.5 53.5q85 0 150 -55zM317 618l-29 20l124 166l44 -32z
" />
    <glyph glyph-name="nacute.sc.loclPLK" horiz-adv-x="615" 
d="M396 0l-206 506q-3 -85 -21 -211l-41 -295h-54l79 562h71l206 -507q2 80 18 184l45 323h53l-79 -562h-71zM319 618l-29 20l124 166l44 -32z" />
    <glyph glyph-name="oacute.sc.loclPLK" horiz-adv-x="615" 
d="M501 512q56 -59 56 -167q0 -81 -28 -162t-92 -136.5t-164 -55.5q-97 0 -153.5 59t-56.5 168q0 79 29 160t93 137t163 56q97 0 153 -59zM216.5 474.5q-50.5 -48.5 -72 -119t-21.5 -141.5q0 -88 39.5 -131.5t110.5 -43.5q82 0 132.5 48.5t71.5 119t21 142.5
q0 87 -39.5 130.5t-111.5 43.5q-80 0 -130.5 -48.5zM317 618l-29 20l124 166l44 -32z" />
    <glyph glyph-name="sacute.sc.loclPLK" horiz-adv-x="485" 
d="M452 505l-36 -33q-58 51 -140 51q-65 0 -98 -27t-33 -70q0 -35 27 -57.5t93 -45.5q78 -26 116.5 -61t38.5 -99q0 -46 -24.5 -85t-74 -63t-119.5 -24q-58 0 -107 19.5t-84 53.5l36 35q65 -60 154 -60q77 0 118 35.5t41 85.5q0 43 -27.5 68t-95.5 49q-79 27 -115.5 61
t-36.5 86q0 66 53 106.5t136 40.5q102 0 178 -66zM257 618l-29 20l124 166l44 -32z" />
    <glyph glyph-name="zacute.sc.loclPLK" horiz-adv-x="459" 
d="M76 51h301l-14 -51h-364l5 47l375 466h-277l7 49h345l-6 -47zM247 618l-29 20l124 166l44 -32z" />
    <glyph glyph-name="a.sc" horiz-adv-x="495" 
d="M39 0h-60l275 562h71l117 -562h-59l-29 150h-243zM133 198h212l-62 317z" />
    <glyph glyph-name="aacute.sc" horiz-adv-x="495" 
d="M39 0h-60l275 562h71l117 -562h-59l-29 150h-243zM133 198h212l-62 317zM219 675l-14 34l201 104l19 -53z" />
    <glyph glyph-name="abreve.sc" horiz-adv-x="495" 
d="M39 0h-60l275 562h71l117 -562h-59l-29 150h-243zM133 198h212l-62 317zM218 714q-32 31 -32 82l40 5q5 -36 24 -53t53 -17q36 0 63 19t41 54l38 -12q-13 -50 -52.5 -79.5t-90.5 -29.5q-52 0 -84 31z" />
    <glyph glyph-name="acircumflex.sc" horiz-adv-x="495" 
d="M39 0h-60l275 562h71l117 -562h-59l-29 150h-243zM133 198h212l-62 317zM311 810h36l114 -106l-28 -30l-109 84l-131 -84l-25 30z" />
    <glyph glyph-name="adieresis.sc" horiz-adv-x="495" 
d="M39 0h-60l275 562h71l117 -562h-59l-29 150h-243zM133 198h212l-62 317zM249 761.5q10 -10.5 10 -25.5q0 -19 -11.5 -31t-30.5 -12q-16 0 -26.5 10.5t-10.5 25.5q0 19 12.5 31t30.5 12q16 0 26 -10.5zM437.5 761.5q10.5 -10.5 10.5 -25.5q0 -18 -12 -30.5t-30 -12.5
q-16 0 -26.5 10.5t-10.5 25.5q0 19 12 31t30 12q16 0 26.5 -10.5z" />
    <glyph glyph-name="agrave.sc" horiz-adv-x="495" 
d="M39 0h-60l275 562h71l117 -562h-59l-29 150h-243zM133 198h212l-62 317zM395 675l-183 85l33 53l172 -105z" />
    <glyph glyph-name="amacron.sc" horiz-adv-x="495" 
d="M39 0h-60l275 562h71l117 -562h-59l-29 150h-243zM133 198h212l-62 317zM197 753h240l-7 -47h-240z" />
    <glyph glyph-name="aogonek.sc" horiz-adv-x="495" 
d="M283 -61q-32 -29 -32 -64q0 -44 55 -44q25 0 59 6l-10 -49q-30 -6 -57 -6q-48 0 -74.5 23t-26.5 59q0 52 41.5 90.5t139.5 70.5l-24 125h-243l-72 -150h-60l275 562h71l117 -562h-51q-76 -32 -108 -61zM283 515l-150 -317h212z" />
    <glyph glyph-name="aring.sc" horiz-adv-x="495" 
d="M39 0h-60l275 562h71l117 -562h-59l-29 150h-243zM133 198h212l-62 317zM392 828q24 -23 24 -60q0 -46 -31 -75.5t-78 -29.5q-40 0 -64.5 23.5t-24.5 59.5q0 45 31.5 75t78.5 30q40 0 64 -23zM283.5 799q-16.5 -16 -21.5 -45v-10q0 -21 12.5 -33t34.5 -12q26 0 42 16
t21 45q1 4 1 12q0 20 -12.5 31.5t-34.5 11.5q-26 0 -42.5 -16z" />
    <glyph glyph-name="atilde.sc" horiz-adv-x="495" 
d="M39 0h-60l275 562h71l117 -562h-59l-29 150h-243zM133 198h212l-62 317zM336 704q-16 7 -34 20q-15 10 -23.5 14t-18.5 4q-20 0 -33 -9t-31 -32l-33 21q45 66 98 66q17 0 30.5 -6t31.5 -18q14 -10 25 -15.5t23 -5.5q16 0 30.5 10.5t32.5 34.5l34 -22q-44 -69 -94 -69
q-22 0 -38 7z" />
    <glyph glyph-name="ae.sc" horiz-adv-x="686" 
d="M355 514l24 -200h222l-7 -47h-210l27 -220h200l-7 -47h-241l-18 147h-242l-79 -147h-61l309 562h370l-14 -48h-273zM340 195l-38 321l-173 -321h211z" />
    <glyph glyph-name="aeacute.sc" horiz-adv-x="686" 
d="M355 514l24 -200h222l-7 -47h-210l27 -220h200l-7 -47h-241l-18 147h-242l-79 -147h-61l309 562h370l-14 -48h-273zM340 195l-38 321l-173 -321h211zM368 675l-14 34l201 104l19 -53z" />
    <glyph glyph-name="b.sc" horiz-adv-x="542" 
d="M435.5 531.5q51.5 -30.5 51.5 -92.5q0 -52 -33 -91.5t-94 -50.5q50 -6 83.5 -35t33.5 -83q0 -82 -58.5 -130.5t-178.5 -48.5h-166l79 562h133q98 0 149.5 -30.5zM176 318h114q65 0 101 35.5t36 83.5q0 42 -34.5 60t-104.5 18h-84zM138 47h107q86 0 129 35.5t43 99.5
q0 47 -33.5 69t-90.5 22h-123z" />
    <glyph glyph-name="c.sc" horiz-adv-x="490" 
d="M496 516l-35 -35q-27 22 -52.5 32t-58.5 10q-79 0 -130 -46.5t-74 -116.5t-23 -142q0 -89 41 -133.5t110 -44.5q41 0 72 12t64 36l28 -38q-69 -59 -167 -59q-95 0 -151.5 60t-56.5 171q0 81 30 161.5t93.5 134t159.5 53.5q85 0 150 -55z" />
    <glyph glyph-name="cacute.sc" horiz-adv-x="490" 
d="M496 516l-35 -35q-27 22 -52.5 32t-58.5 10q-79 0 -130 -46.5t-74 -116.5t-23 -142q0 -89 41 -133.5t110 -44.5q41 0 72 12t64 36l28 -38q-69 -59 -167 -59q-95 0 -151.5 60t-56.5 171q0 81 30 161.5t93.5 134t159.5 53.5q85 0 150 -55zM281 675l-14 34l201 104l19 -53z
" />
    <glyph glyph-name="ccaron.sc" horiz-adv-x="490" 
d="M496 516l-35 -35q-27 22 -52.5 32t-58.5 10q-79 0 -130 -46.5t-74 -116.5t-23 -142q0 -89 41 -133.5t110 -44.5q41 0 72 12t64 36l28 -38q-69 -59 -167 -59q-95 0 -151.5 60t-56.5 171q0 81 30 161.5t93.5 134t159.5 53.5q85 0 150 -55zM379 663h-36l-115 106l28 30
l109 -84l134 84l23 -30z" />
    <glyph glyph-name="ccedilla.sc" horiz-adv-x="490" 
d="M220 476.5q-51 -46.5 -74 -116.5t-23 -142q0 -89 41 -133.5t110 -44.5q41 0 72 12t64 36l28 -38q-65 -55 -155 -59l-9 -55q83 -6 83 -69q0 -39 -31.5 -66.5t-82.5 -27.5q-49 0 -79 23l22 34q23 -15 56 -15q26 -1 45.5 12.5t19.5 36.5q0 21 -18.5 30.5t-64.5 10.5l20 87
q-83 8 -132 68t-49 162q0 81 30 161.5t93.5 134t159.5 53.5q85 0 150 -55l-35 -35q-27 22 -52.5 32t-58.5 10q-79 0 -130 -46.5z" />
    <glyph glyph-name="ccircumflex.sc" horiz-adv-x="490" 
d="M496 516l-35 -35q-27 22 -52.5 32t-58.5 10q-79 0 -130 -46.5t-74 -116.5t-23 -142q0 -89 41 -133.5t110 -44.5q41 0 72 12t64 36l28 -38q-69 -59 -167 -59q-95 0 -151.5 60t-56.5 171q0 81 30 161.5t93.5 134t159.5 53.5q85 0 150 -55zM373 810h36l114 -106l-28 -30
l-109 84l-131 -84l-25 30z" />
    <glyph glyph-name="cdotaccent.sc" horiz-adv-x="490" 
d="M496 516l-35 -35q-27 22 -52.5 32t-58.5 10q-79 0 -130 -46.5t-74 -116.5t-23 -142q0 -89 41 -133.5t110 -44.5q41 0 72 12t64 36l28 -38q-69 -59 -167 -59q-95 0 -151.5 60t-56.5 171q0 81 30 161.5t93.5 134t159.5 53.5q85 0 150 -55zM408.5 772.5
q10.5 -10.5 10.5 -27.5q0 -20 -12.5 -32.5t-33.5 -12.5q-18 0 -29 10.5t-11 27.5q0 20 13 32.5t33 12.5q19 0 29.5 -10.5z" />
    <glyph glyph-name="d.sc" horiz-adv-x="574" 
d="M516 347q0 -94 -31.5 -172.5t-100.5 -126.5t-177 -48h-133l79 562h121q242 0 242 -215zM138 47h76q87 0 141.5 43.5t78 111.5t23.5 147q0 97 -49 131.5t-132 34.5h-72z" />
    <glyph glyph-name="eth.sc" horiz-adv-x="504" 
d="M447 348q0 -95 -31.5 -173.5t-101 -126.5t-177.5 -48h-132l37 269h-19l7 45h19l35 248h121q242 0 242 -214zM285.5 90.5q54.5 43.5 78 111.5t23.5 147q0 97 -49 131.5t-131 34.5h-73l-28 -201h166l-6 -45h-166l-31 -222h75q87 0 141.5 43.5z" />
    <glyph glyph-name="dcaron.sc" horiz-adv-x="574" 
d="M516 347q0 -94 -31.5 -172.5t-100.5 -126.5t-177 -48h-133l79 562h121q242 0 242 -215zM138 47h76q87 0 141.5 43.5t78 111.5t23.5 147q0 97 -49 131.5t-132 34.5h-72zM345 663h-36l-115 106l28 30l109 -84l134 84l23 -30z" />
    <glyph glyph-name="dcroat.sc" horiz-adv-x="504" 
d="M447 348q0 -95 -31.5 -173.5t-101 -126.5t-177.5 -48h-132l37 269h-19l7 45h19l35 248h121q242 0 242 -214zM285.5 90.5q54.5 43.5 78 111.5t23.5 147q0 97 -49 131.5t-131 34.5h-73l-28 -201h166l-6 -45h-166l-31 -222h75q87 0 141.5 43.5z" />
    <glyph glyph-name="e.sc" horiz-adv-x="465" 
d="M204 514l-28 -199h208l-7 -47h-208l-31 -221h252l-7 -47h-309l79 562h304l-13 -48h-240z" />
    <glyph glyph-name="eacute.sc" horiz-adv-x="465" 
d="M204 514l-28 -199h208l-7 -47h-208l-31 -221h252l-7 -47h-309l79 562h304l-13 -48h-240zM236 675l-14 34l201 104l19 -53z" />
    <glyph glyph-name="ebreve.sc" horiz-adv-x="465" 
d="M204 514l-28 -199h208l-7 -47h-208l-31 -221h252l-7 -47h-309l79 562h304l-13 -48h-240zM234 714q-32 31 -32 82l40 5q5 -36 24 -53t53 -17q36 0 63 19t41 54l38 -12q-13 -50 -52.5 -79.5t-90.5 -29.5q-52 0 -84 31z" />
    <glyph glyph-name="ecaron.sc" horiz-adv-x="465" 
d="M204 514l-28 -199h208l-7 -47h-208l-31 -221h252l-7 -47h-309l79 562h304l-13 -48h-240zM334 663h-36l-115 106l28 30l109 -84l134 84l23 -30z" />
    <glyph glyph-name="ecircumflex.sc" horiz-adv-x="465" 
d="M204 514l-28 -199h208l-7 -47h-208l-31 -221h252l-7 -47h-309l79 562h304l-13 -48h-240zM328 810h36l114 -106l-28 -30l-109 84l-131 -84l-25 30z" />
    <glyph glyph-name="edieresis.sc" horiz-adv-x="465" 
d="M204 514l-28 -199h208l-7 -47h-208l-31 -221h252l-7 -47h-309l79 562h304l-13 -48h-240zM265 761.5q10 -10.5 10 -25.5q0 -19 -11.5 -31t-30.5 -12q-16 0 -26.5 10.5t-10.5 25.5q0 19 12.5 31t30.5 12q16 0 26 -10.5zM453.5 761.5q10.5 -10.5 10.5 -25.5q0 -18 -12 -30.5
t-30 -12.5q-16 0 -26.5 10.5t-10.5 25.5q0 19 12 31t30 12q16 0 26.5 -10.5z" />
    <glyph glyph-name="edotaccent.sc" horiz-adv-x="465" 
d="M204 514l-28 -199h208l-7 -47h-208l-31 -221h252l-7 -47h-309l79 562h304l-13 -48h-240zM363.5 772.5q10.5 -10.5 10.5 -27.5q0 -20 -12.5 -32.5t-33.5 -12.5q-18 0 -29 10.5t-11 27.5q0 20 13 32.5t33 12.5q19 0 29.5 -10.5z" />
    <glyph glyph-name="egrave.sc" horiz-adv-x="465" 
d="M204 514l-28 -199h208l-7 -47h-208l-31 -221h252l-7 -47h-309l79 562h304l-13 -48h-240zM412 675l-183 85l33 53l172 -105z" />
    <glyph glyph-name="emacron.sc" horiz-adv-x="465" 
d="M204 514l-28 -199h208l-7 -47h-208l-31 -221h252l-7 -47h-309l79 562h304l-13 -48h-240zM214 753h240l-7 -47h-240z" />
    <glyph glyph-name="eogonek.sc" horiz-adv-x="465" 
d="M176 315h208l-7 -47h-208l-31 -221h252l-7 -47h-29q-67 -29 -94.5 -56t-27.5 -62q0 -24 16 -37.5t48 -13.5q23 0 56 6l-5 -48q-30 -6 -58 -6q-53 0 -82.5 25.5t-29.5 65.5q0 82 120 126h-223l79 562h304l-13 -48h-240z" />
    <glyph glyph-name="f.sc" horiz-adv-x="437" 
d="M204 514l-30 -210h203l-7 -47h-202l-36 -257h-58l79 562h299l-13 -48h-235z" />
    <glyph glyph-name="f_i.sc" horiz-adv-x="717" 
d="M204 514l-30 -210h203l-7 -47h-202l-36 -257h-58l79 562h299l-13 -48h-235zM511 0l79 562h58l-78 -562h-59z" />
    <glyph glyph-name="f_l.sc" horiz-adv-x="868" 
d="M204 514l-30 -210h203l-7 -47h-202l-36 -257h-58l79 562h299l-13 -48h-235zM822 51l-15 -51h-296l79 562h58l-72 -511h246z" />
    <glyph glyph-name="fi.sc" horiz-adv-x="717" 
d="M204 514l-30 -210h203l-7 -47h-202l-36 -257h-58l79 562h299l-13 -48h-235zM511 0l79 562h58l-78 -562h-59z" />
    <glyph glyph-name="fl.sc" horiz-adv-x="868" 
d="M204 514l-30 -210h203l-7 -47h-202l-36 -257h-58l79 562h299l-13 -48h-235zM822 51l-15 -51h-296l79 562h58l-72 -511h246z" />
    <glyph glyph-name="g.sc" horiz-adv-x="556" 
d="M441.5 557q36.5 -14 72.5 -44l-37 -35q-29 23 -57.5 34t-66.5 11q-78 0 -129.5 -45t-76 -115t-24.5 -147q0 -90 41 -133.5t116 -43.5q67 0 128 28l25 192h-114v47h176l-36 -268q-85 -47 -180 -47q-100 0 -157.5 58t-57.5 168q0 87 31.5 168t96.5 133.5t160 52.5
q53 0 89.5 -14z" />
    <glyph glyph-name="gbreve.sc" horiz-adv-x="556" 
d="M441.5 557q36.5 -14 72.5 -44l-37 -35q-29 23 -57.5 34t-66.5 11q-78 0 -129.5 -45t-76 -115t-24.5 -147q0 -90 41 -133.5t116 -43.5q67 0 128 28l25 192h-114v47h176l-36 -268q-85 -47 -180 -47q-100 0 -157.5 58t-57.5 168q0 87 31.5 168t96.5 133.5t160 52.5
q53 0 89.5 -14zM284 714q-32 31 -32 82l40 5q5 -36 24 -53t53 -17q36 0 63 19t41 54l38 -12q-13 -50 -52.5 -79.5t-90.5 -29.5q-52 0 -84 31z" />
    <glyph glyph-name="gcircumflex.sc" horiz-adv-x="556" 
d="M441.5 557q36.5 -14 72.5 -44l-37 -35q-29 23 -57.5 34t-66.5 11q-78 0 -129.5 -45t-76 -115t-24.5 -147q0 -90 41 -133.5t116 -43.5q67 0 128 28l25 192h-114v47h176l-36 -268q-85 -47 -180 -47q-100 0 -157.5 58t-57.5 168q0 87 31.5 168t96.5 133.5t160 52.5
q53 0 89.5 -14zM378 810h36l114 -106l-28 -30l-109 84l-131 -84l-25 30z" />
    <glyph glyph-name="gcommaaccent.sc" horiz-adv-x="556" 
d="M441.5 557q36.5 -14 72.5 -44l-37 -35q-29 23 -57.5 34t-66.5 11q-78 0 -129.5 -45t-76 -115t-24.5 -147q0 -90 41 -133.5t116 -43.5q67 0 128 28l25 192h-114v47h176l-36 -268q-85 -47 -180 -47q-100 0 -157.5 58t-57.5 168q0 87 31.5 168t96.5 133.5t160 52.5
q53 0 89.5 -14zM286 -96.5q11 -11.5 11 -27.5q0 -14 -6 -27.5t-25 -43.5l-52 -84h-35l49 115q-8 6 -13 15t-5 19q0 19 13.5 32t33.5 13q18 0 29 -11.5z" />
    <glyph glyph-name="gdotaccent.sc" horiz-adv-x="556" 
d="M441.5 557q36.5 -14 72.5 -44l-37 -35q-29 23 -57.5 34t-66.5 11q-78 0 -129.5 -45t-76 -115t-24.5 -147q0 -90 41 -133.5t116 -43.5q67 0 128 28l25 192h-114v47h176l-36 -268q-85 -47 -180 -47q-100 0 -157.5 58t-57.5 168q0 87 31.5 168t96.5 133.5t160 52.5
q53 0 89.5 -14zM413.5 772.5q10.5 -10.5 10.5 -27.5q0 -20 -12.5 -32.5t-33.5 -12.5q-18 0 -29 10.5t-11 27.5q0 20 13 32.5t33 12.5q19 0 29.5 -10.5z" />
    <glyph glyph-name="h.sc" horiz-adv-x="614" 
d="M408 0l38 271h-276l-38 -271h-58l79 562h58l-35 -242h276l34 242h59l-79 -562h-58z" />
    <glyph glyph-name="hbar.sc" horiz-adv-x="585" 
d="M516 425l-60 -425h-58l38 271h-276l-38 -271h-58l60 425h-55l5 40h56l13 97h58l-14 -97h276l14 97h58l-14 -97h46l-5 -40h-46zM181 425l-15 -104h276l15 104h-276z" />
    <glyph glyph-name="hcircumflex.sc" horiz-adv-x="614" 
d="M408 0l38 271h-276l-38 -271h-58l79 562h58l-35 -242h276l34 242h59l-79 -562h-58zM369 810h36l114 -106l-28 -30l-109 84l-131 -84l-25 30z" />
    <glyph glyph-name="i.sc" horiz-adv-x="280" 
d="M74 0l79 562h58l-78 -562h-59z" />
    <glyph glyph-name="dotlessi.sc" horiz-adv-x="280" 
d="M74 0l79 562h58l-78 -562h-59z" />
    <glyph glyph-name="iacute.sc" horiz-adv-x="280" 
d="M74 0l79 562h58l-78 -562h-59zM112 675l-14 34l201 104l19 -53z" />
    <glyph glyph-name="ibreve.sc" horiz-adv-x="280" 
d="M74 0l79 562h58l-78 -562h-59zM110 714q-32 31 -32 82l40 5q5 -36 24 -53t53 -17q36 0 63 19t41 54l38 -12q-13 -50 -52.5 -79.5t-90.5 -29.5q-52 0 -84 31z" />
    <glyph glyph-name="icircumflex.sc" horiz-adv-x="280" 
d="M74 0l79 562h58l-78 -562h-59zM204 810h36l114 -106l-28 -30l-109 84l-131 -84l-25 30z" />
    <glyph glyph-name="idieresis.sc" horiz-adv-x="280" 
d="M74 0l79 562h58l-78 -562h-59zM141 761.5q10 -10.5 10 -25.5q0 -19 -11.5 -31t-30.5 -12q-16 0 -26.5 10.5t-10.5 25.5q0 19 12.5 31t30.5 12q16 0 26 -10.5zM329.5 761.5q10.5 -10.5 10.5 -25.5q0 -18 -12 -30.5t-30 -12.5q-16 0 -26.5 10.5t-10.5 25.5q0 19 12 31
t30 12q16 0 26.5 -10.5z" />
    <glyph glyph-name="i.sc.loclTRK" horiz-adv-x="280" 
d="M74 0l79 562h58l-78 -562h-59zM239.5 772.5q10.5 -10.5 10.5 -27.5q0 -20 -12.5 -32.5t-33.5 -12.5q-18 0 -29 10.5t-11 27.5q0 20 13 32.5t33 12.5q19 0 29.5 -10.5z" />
    <glyph glyph-name="igrave.sc" horiz-adv-x="280" 
d="M74 0l79 562h58l-78 -562h-59zM288 675l-183 85l33 53l172 -105z" />
    <glyph glyph-name="ij.sc" horiz-adv-x="551" 
d="M74 0l79 562h58l-78 -562h-59zM394 -9.5q-18 -32.5 -50 -53.5t-86 -39l-15 45q62 23 86.5 52t32.5 86l68 481h58l-69 -487q-7 -52 -25 -84.5z" />
    <glyph glyph-name="imacron.sc" horiz-adv-x="280" 
d="M74 0l79 562h58l-78 -562h-59zM90 753h240l-7 -47h-240z" />
    <glyph glyph-name="iogonek.sc" horiz-adv-x="280" 
d="M133 0h-38q-76 -32 -108 -61t-32 -63q0 -45 55 -45q26 0 58 7l-10 -49q-30 -6 -56 -6q-49 0 -75.5 22.5t-26.5 58.5q0 52 41 89.5t136 69.5l76 539h58z" />
    <glyph glyph-name="itilde.sc" horiz-adv-x="280" 
d="M74 0l79 562h58l-78 -562h-59zM228 704q-16 7 -34 20q-15 10 -23.5 14t-18.5 4q-20 0 -33 -9t-31 -32l-33 21q45 66 98 66q17 0 30.5 -6t31.5 -18q14 -10 25 -15.5t23 -5.5q16 0 30.5 10.5t32.5 34.5l34 -22q-44 -69 -94 -69q-22 0 -38 7z" />
    <glyph glyph-name="j.sc" horiz-adv-x="271" 
d="M114 -9.5q-18 -32.5 -50 -53.5t-86 -39l-15 45q62 23 86.5 52t32.5 86l68 481h58l-69 -487q-7 -52 -25 -84.5z" />
    <glyph glyph-name="jcircumflex.sc" horiz-adv-x="271" 
d="M114 -9.5q-18 -32.5 -50 -53.5t-86 -39l-15 45q62 23 86.5 52t32.5 86l68 481h58l-69 -487q-7 -52 -25 -84.5zM148 810h36l114 -106l-28 -30l-109 84l-131 -84l-25 30z" />
    <glyph glyph-name="k.sc" horiz-adv-x="494" 
d="M74 0l79 562h58l-79 -562h-58zM457 0h-66l-214 301l275 261h70l-277 -262z" />
    <glyph glyph-name="kcommaaccent.sc" horiz-adv-x="494" 
d="M74 0l79 562h58l-79 -562h-58zM457 0h-66l-214 301l275 261h70l-277 -262zM267 -96.5q11 -11.5 11 -27.5q0 -14 -6 -27.5t-25 -43.5l-52 -84h-35l49 115q-8 6 -13 15t-5 19q0 19 13.5 32t33.5 13q18 0 29 -11.5z" />
    <glyph glyph-name="kgreenlandic.sc" horiz-adv-x="494" 
d="M74 0l79 562h58l-79 -562h-58zM457 0h-66l-214 301l275 261h70l-277 -262z" />
    <glyph glyph-name="l.sc" horiz-adv-x="431" 
d="M385 51l-15 -51h-296l79 562h58l-72 -511h246z" />
    <glyph glyph-name="lacute.sc" horiz-adv-x="431" 
d="M385 51l-15 -51h-296l79 562h58l-72 -511h246zM111 675l-14 34l201 104l19 -53z" />
    <glyph glyph-name="lcaron.sc" horiz-adv-x="431" 
d="M385 51l-15 -51h-296l79 562h58l-72 -511h246zM287 398l-35 5l40 165l55 -6z" />
    <glyph glyph-name="lcommaaccent.sc" horiz-adv-x="431" 
d="M385 51l-15 -51h-296l79 562h58l-72 -511h246zM244 -96.5q11 -11.5 11 -27.5q0 -14 -6 -27.5t-25 -43.5l-52 -84h-35l49 115q-8 6 -13 15t-5 19q0 19 13.5 32t33.5 13q18 0 29 -11.5z" />
    <glyph glyph-name="ldot.sc" horiz-adv-x="431" 
d="M385 51l-15 -51h-296l79 562h58l-72 -511h246zM416.5 336.5q10.5 -10.5 10.5 -27.5q0 -20 -12.5 -32.5t-33.5 -12.5q-18 0 -29 10.5t-11 27.5q0 20 13 32.5t33 12.5q19 0 29.5 -10.5z" />
    <glyph glyph-name="lslash.sc" horiz-adv-x="431" 
d="M74 0l29 208l-58 -33l-19 36l85 50l42 301h58l-38 -266l176 102l19 -37l-202 -117l-27 -193h246l-15 -51h-296z" />
    <glyph glyph-name="m.sc" horiz-adv-x="696" 
d="M528 0l11 266q5 142 17 247l-212 -447h-56l-85 446q-7 -35 -40 -187q-10 -40 -14 -61l-62 -264h-55l134 562h77l81 -436l203 436h78l-23 -562h-54z" />
    <glyph glyph-name="n.sc" horiz-adv-x="615" 
d="M396 0l-206 506q-3 -85 -21 -211l-41 -295h-54l79 562h71l206 -507q2 80 18 184l45 323h53l-79 -562h-71z" />
    <glyph glyph-name="nacute.sc" horiz-adv-x="615" 
d="M396 0l-206 506q-3 -85 -21 -211l-41 -295h-54l79 562h71l206 -507q2 80 18 184l45 323h53l-79 -562h-71zM283 675l-14 34l201 104l19 -53z" />
    <glyph glyph-name="napostrophe.sc" horiz-adv-x="615" 
d="M396 0l-206 506q-3 -85 -21 -211l-41 -295h-54l79 562h71l206 -507q2 80 18 184l45 323h53l-79 -562h-71z" />
    <glyph glyph-name="ncaron.sc" horiz-adv-x="615" 
d="M396 0l-206 506q-3 -85 -21 -211l-41 -295h-54l79 562h71l206 -507q2 80 18 184l45 323h53l-79 -562h-71zM381 663h-36l-115 106l28 30l109 -84l134 84l23 -30z" />
    <glyph glyph-name="ncommaaccent.sc" horiz-adv-x="615" 
d="M396 0l-206 506q-3 -85 -21 -211l-41 -295h-54l79 562h71l206 -507q2 80 18 184l45 323h53l-79 -562h-71zM291 -96.5q11 -11.5 11 -27.5q0 -14 -6 -27.5t-25 -43.5l-52 -84h-35l49 115q-8 6 -13 15t-5 19q0 19 13.5 32t33.5 13q18 0 29 -11.5z" />
    <glyph glyph-name="eng.sc" horiz-adv-x="653" 
d="M467 0q-8 -59 -28 -95.5t-52 -60t-87 -48.5l-16 38q44 20 70 39t41.5 49t20.5 78h-20l-206 506q-3 -85 -21 -211l-41 -295h-54l79 562h71l206 -507q2 80 18 184l45 323h53z" />
    <glyph glyph-name="ntilde.sc" horiz-adv-x="615" 
d="M396 0l-206 506q-3 -85 -21 -211l-41 -295h-54l79 562h71l206 -507q2 80 18 184l45 323h53l-79 -562h-71zM400 704q-16 7 -34 20q-15 10 -23.5 14t-18.5 4q-20 0 -33 -9t-31 -32l-33 21q45 66 98 66q17 0 30.5 -6t31.5 -18q14 -10 25 -15.5t23 -5.5q16 0 30.5 10.5
t32.5 34.5l34 -22q-44 -69 -94 -69q-22 0 -38 7z" />
    <glyph glyph-name="o.sc" horiz-adv-x="615" 
d="M501 512q56 -59 56 -167q0 -81 -28 -162t-92 -136.5t-164 -55.5q-97 0 -153.5 59t-56.5 168q0 79 29 160t93 137t163 56q97 0 153 -59zM216.5 474.5q-50.5 -48.5 -72 -119t-21.5 -141.5q0 -88 39.5 -131.5t110.5 -43.5q82 0 132.5 48.5t71.5 119t21 142.5
q0 87 -39.5 130.5t-111.5 43.5q-80 0 -130.5 -48.5z" />
    <glyph glyph-name="oacute.sc" horiz-adv-x="615" 
d="M501 512q56 -59 56 -167q0 -81 -28 -162t-92 -136.5t-164 -55.5q-97 0 -153.5 59t-56.5 168q0 79 29 160t93 137t163 56q97 0 153 -59zM216.5 474.5q-50.5 -48.5 -72 -119t-21.5 -141.5q0 -88 39.5 -131.5t110.5 -43.5q82 0 132.5 48.5t71.5 119t21 142.5
q0 87 -39.5 130.5t-111.5 43.5q-80 0 -130.5 -48.5zM281 675l-14 34l201 104l19 -53z" />
    <glyph glyph-name="obreve.sc" horiz-adv-x="615" 
d="M501 512q56 -59 56 -167q0 -81 -28 -162t-92 -136.5t-164 -55.5q-97 0 -153.5 59t-56.5 168q0 79 29 160t93 137t163 56q97 0 153 -59zM216.5 474.5q-50.5 -48.5 -72 -119t-21.5 -141.5q0 -88 39.5 -131.5t110.5 -43.5q82 0 132.5 48.5t71.5 119t21 142.5
q0 87 -39.5 130.5t-111.5 43.5q-80 0 -130.5 -48.5zM279 714q-32 31 -32 82l40 5q5 -36 24 -53t53 -17q36 0 63 19t41 54l38 -12q-13 -50 -52.5 -79.5t-90.5 -29.5q-52 0 -84 31z" />
    <glyph glyph-name="ocircumflex.sc" horiz-adv-x="615" 
d="M501 512q56 -59 56 -167q0 -81 -28 -162t-92 -136.5t-164 -55.5q-97 0 -153.5 59t-56.5 168q0 79 29 160t93 137t163 56q97 0 153 -59zM216.5 474.5q-50.5 -48.5 -72 -119t-21.5 -141.5q0 -88 39.5 -131.5t110.5 -43.5q82 0 132.5 48.5t71.5 119t21 142.5
q0 87 -39.5 130.5t-111.5 43.5q-80 0 -130.5 -48.5zM373 810h36l114 -106l-28 -30l-109 84l-131 -84l-25 30z" />
    <glyph glyph-name="odieresis.sc" horiz-adv-x="615" 
d="M501 512q56 -59 56 -167q0 -81 -28 -162t-92 -136.5t-164 -55.5q-97 0 -153.5 59t-56.5 168q0 79 29 160t93 137t163 56q97 0 153 -59zM216.5 474.5q-50.5 -48.5 -72 -119t-21.5 -141.5q0 -88 39.5 -131.5t110.5 -43.5q82 0 132.5 48.5t71.5 119t21 142.5
q0 87 -39.5 130.5t-111.5 43.5q-80 0 -130.5 -48.5zM310 761.5q10 -10.5 10 -25.5q0 -19 -11.5 -31t-30.5 -12q-16 0 -26.5 10.5t-10.5 25.5q0 19 12.5 31t30.5 12q16 0 26 -10.5zM498.5 761.5q10.5 -10.5 10.5 -25.5q0 -18 -12 -30.5t-30 -12.5q-16 0 -26.5 10.5
t-10.5 25.5q0 19 12 31t30 12q16 0 26.5 -10.5z" />
    <glyph glyph-name="ograve.sc" horiz-adv-x="615" 
d="M501 512q56 -59 56 -167q0 -81 -28 -162t-92 -136.5t-164 -55.5q-97 0 -153.5 59t-56.5 168q0 79 29 160t93 137t163 56q97 0 153 -59zM216.5 474.5q-50.5 -48.5 -72 -119t-21.5 -141.5q0 -88 39.5 -131.5t110.5 -43.5q82 0 132.5 48.5t71.5 119t21 142.5
q0 87 -39.5 130.5t-111.5 43.5q-80 0 -130.5 -48.5zM457 675l-183 85l33 53l172 -105z" />
    <glyph glyph-name="ohungarumlaut.sc" horiz-adv-x="615" 
d="M501 512q56 -59 56 -167q0 -81 -28 -162t-92 -136.5t-164 -55.5q-97 0 -153.5 59t-56.5 168q0 79 29 160t93 137t163 56q97 0 153 -59zM216.5 474.5q-50.5 -48.5 -72 -119t-21.5 -141.5q0 -88 39.5 -131.5t110.5 -43.5q82 0 132.5 48.5t71.5 119t21 142.5
q0 87 -39.5 130.5t-111.5 43.5q-80 0 -130.5 -48.5zM401 672l-36 18l99 151l49 -27zM281 677l-36 17l90 147l49 -27z" />
    <glyph glyph-name="omacron.sc" horiz-adv-x="615" 
d="M501 512q56 -59 56 -167q0 -81 -28 -162t-92 -136.5t-164 -55.5q-97 0 -153.5 59t-56.5 168q0 79 29 160t93 137t163 56q97 0 153 -59zM216.5 474.5q-50.5 -48.5 -72 -119t-21.5 -141.5q0 -88 39.5 -131.5t110.5 -43.5q82 0 132.5 48.5t71.5 119t21 142.5
q0 87 -39.5 130.5t-111.5 43.5q-80 0 -130.5 -48.5zM259 753h240l-7 -47h-240z" />
    <glyph glyph-name="oslash.sc" horiz-adv-x="615" 
d="M456 546q49 -26 75 -77t26 -124q0 -81 -28 -162t-92 -136.5t-164 -55.5q-35 0 -67 8l-43 -99l-48 13l47 104q-47 26 -73 77.5t-26 123.5q0 79 29 160t93 137t163 56q36 0 64 -9l46 104l48 -13zM216.5 474.5q-50.5 -48.5 -72 -119t-21.5 -141.5q0 -114 65 -153l209 456
q-22 6 -50 6q-80 0 -130.5 -48.5zM273 39q82 0 132.5 48.5t71.5 119t21 142.5q0 115 -67 154l-208 -457q21 -7 50 -7z" />
    <glyph glyph-name="oslashacute.sc" horiz-adv-x="615" 
d="M456 546q49 -26 75 -77t26 -124q0 -81 -28 -162t-92 -136.5t-164 -55.5q-35 0 -67 8l-43 -99l-48 13l47 104q-47 26 -73 77.5t-26 123.5q0 79 29 160t93 137t163 56q36 0 64 -9l46 104l48 -13zM216.5 474.5q-50.5 -48.5 -72 -119t-21.5 -141.5q0 -114 65 -153l209 456
q-22 6 -50 6q-80 0 -130.5 -48.5zM273 39q82 0 132.5 48.5t71.5 119t21 142.5q0 115 -67 154l-208 -457q21 -7 50 -7zM280 675l-14 34l201 104l19 -53z" />
    <glyph glyph-name="otilde.sc" horiz-adv-x="615" 
d="M501 512q56 -59 56 -167q0 -81 -28 -162t-92 -136.5t-164 -55.5q-97 0 -153.5 59t-56.5 168q0 79 29 160t93 137t163 56q97 0 153 -59zM216.5 474.5q-50.5 -48.5 -72 -119t-21.5 -141.5q0 -88 39.5 -131.5t110.5 -43.5q82 0 132.5 48.5t71.5 119t21 142.5
q0 87 -39.5 130.5t-111.5 43.5q-80 0 -130.5 -48.5zM397 704q-16 7 -34 20q-15 10 -23.5 14t-18.5 4q-20 0 -33 -9t-31 -32l-33 21q45 66 98 66q17 0 30.5 -6t31.5 -18q14 -10 25 -15.5t23 -5.5q16 0 30.5 10.5t32.5 34.5l34 -22q-44 -69 -94 -69q-22 0 -38 7z" />
    <glyph glyph-name="oe.sc" horiz-adv-x="767" 
d="M413 563h346l-14 -48h-252q34 -32 47.5 -75.5t12.5 -124.5h132l-7 -47h-130q-10 -66 -38.5 -125t-75.5 -96h257l-6 -47h-339q-33 -9 -73 -9q-97 0 -153.5 59t-56.5 168q0 79 29 160t93 137t163 56q33 0 65 -8zM216.5 474.5q-50.5 -48.5 -72 -119t-21.5 -141.5
q0 -88 39.5 -131.5t110.5 -43.5q82 0 132.5 48.5t71.5 119t21 142.5q0 87 -39.5 130.5t-111.5 43.5q-80 0 -130.5 -48.5z" />
    <glyph glyph-name="p.sc" horiz-adv-x="517" 
d="M441.5 526q51.5 -36 51.5 -107q0 -88 -57.5 -145.5t-188.5 -57.5h-85l-30 -216h-58l79 562h141q96 0 147.5 -36zM391.5 306.5q41.5 43.5 41.5 111.5q0 52 -36 74.5t-107 22.5h-86l-36 -252h82q100 0 141.5 43.5z" />
    <glyph glyph-name="thorn.sc" horiz-adv-x="517" 
d="M428.5 427q51.5 -36 51.5 -109q0 -87 -59 -144t-188 -57h-85l-16 -117h-58l79 562h58l-14 -99h83q97 0 148.5 -36zM378 207.5q42 43.5 42 110.5q0 53 -36 75.5t-108 22.5h-86l-35 -252h81q100 0 142 43.5z" />
    <glyph glyph-name="q.sc" horiz-adv-x="602" 
d="M501 512q56 -59 56 -167q0 -107 -43.5 -198.5t-144.5 -125.5l-99 -28q-97 0 -152 58t-55 167q0 79 29 160t93 137t163 56q97 0 153 -59zM216.5 474.5q-50.5 -48.5 -72 -119t-21.5 -141.5q0 -87 39.5 -130.5t110.5 -43.5q82 0 132.5 48t71.5 118.5t21 142.5
q0 87 -39.5 130.5t-111.5 43.5q-80 0 -130.5 -48.5zM459 6q42 -14 71 -40l-42 -45q-42 40 -90.5 56t-127.5 16l99 28q48 -1 90 -15z" />
    <glyph glyph-name="r.sc" horiz-adv-x="535" 
d="M442 527q49 -35 49 -103q0 -61 -36.5 -106t-117.5 -62l128 -256h-65l-119 248h-115l-34 -248h-58l79 562h142q98 0 147 -35zM173 294h103q82 0 119 38t37 92q0 47 -33 69t-107 22h-88z" />
    <glyph glyph-name="racute.sc" horiz-adv-x="535" 
d="M442 527q49 -35 49 -103q0 -61 -36.5 -106t-117.5 -62l128 -256h-65l-119 248h-115l-34 -248h-58l79 562h142q98 0 147 -35zM173 294h103q82 0 119 38t37 92q0 47 -33 69t-107 22h-88zM250 675l-14 34l201 104l19 -53z" />
    <glyph glyph-name="rcaron.sc" horiz-adv-x="535" 
d="M442 527q49 -35 49 -103q0 -61 -36.5 -106t-117.5 -62l128 -256h-65l-119 248h-115l-34 -248h-58l79 562h142q98 0 147 -35zM173 294h103q82 0 119 38t37 92q0 47 -33 69t-107 22h-88zM348 663h-36l-115 106l28 30l109 -84l134 84l23 -30z" />
    <glyph glyph-name="rcommaaccent.sc" horiz-adv-x="535" 
d="M442 527q49 -35 49 -103q0 -61 -36.5 -106t-117.5 -62l128 -256h-65l-119 248h-115l-34 -248h-58l79 562h142q98 0 147 -35zM173 294h103q82 0 119 38t37 92q0 47 -33 69t-107 22h-88zM265 -96.5q11 -11.5 11 -27.5q0 -14 -6 -27.5t-25 -43.5l-52 -84h-35l49 115
q-8 6 -13 15t-5 19q0 19 13.5 32t33.5 13q18 0 29 -11.5z" />
    <glyph glyph-name="s.sc" horiz-adv-x="485" 
d="M452 505l-36 -33q-58 51 -140 51q-65 0 -98 -27t-33 -70q0 -35 27 -57.5t93 -45.5q78 -26 116.5 -61t38.5 -99q0 -46 -24.5 -85t-74 -63t-119.5 -24q-58 0 -107 19.5t-84 53.5l36 35q65 -60 154 -60q77 0 118 35.5t41 85.5q0 43 -27.5 68t-95.5 49q-79 27 -115.5 61
t-36.5 86q0 66 53 106.5t136 40.5q102 0 178 -66z" />
    <glyph glyph-name="sacute.sc" horiz-adv-x="485" 
d="M452 505l-36 -33q-58 51 -140 51q-65 0 -98 -27t-33 -70q0 -35 27 -57.5t93 -45.5q78 -26 116.5 -61t38.5 -99q0 -46 -24.5 -85t-74 -63t-119.5 -24q-58 0 -107 19.5t-84 53.5l36 35q65 -60 154 -60q77 0 118 35.5t41 85.5q0 43 -27.5 68t-95.5 49q-79 27 -115.5 61
t-36.5 86q0 66 53 106.5t136 40.5q102 0 178 -66zM221 675l-14 34l201 104l19 -53z" />
    <glyph glyph-name="scaron.sc" horiz-adv-x="485" 
d="M452 505l-36 -33q-58 51 -140 51q-65 0 -98 -27t-33 -70q0 -35 27 -57.5t93 -45.5q78 -26 116.5 -61t38.5 -99q0 -46 -24.5 -85t-74 -63t-119.5 -24q-58 0 -107 19.5t-84 53.5l36 35q65 -60 154 -60q77 0 118 35.5t41 85.5q0 43 -27.5 68t-95.5 49q-79 27 -115.5 61
t-36.5 86q0 66 53 106.5t136 40.5q102 0 178 -66zM319 663h-36l-115 106l28 30l109 -84l134 84l23 -30z" />
    <glyph glyph-name="scedilla.sc" horiz-adv-x="485" 
d="M381.5 262q38.5 -35 38.5 -99q0 -44 -23 -82.5t-68.5 -63t-111.5 -26.5l-8 -55q83 -6 83 -69q0 -39 -32 -66.5t-83 -27.5q-47 0 -79 23l23 34q22 -15 55 -15q26 -1 45.5 12.5t19.5 36.5q0 21 -18 30.5t-64 10.5l19 87q-99 7 -167 72l36 35q65 -60 154 -60q77 0 118 35.5
t41 85.5q0 43 -27.5 68t-95.5 49q-79 27 -115.5 61t-36.5 86q0 66 53 106.5t136 40.5q102 0 178 -66l-36 -33q-58 51 -140 51q-65 0 -98 -27t-33 -70q0 -35 27 -57.5t93 -45.5q78 -26 116.5 -61z" />
    <glyph glyph-name="scircumflex.sc" horiz-adv-x="485" 
d="M452 505l-36 -33q-58 51 -140 51q-65 0 -98 -27t-33 -70q0 -35 27 -57.5t93 -45.5q78 -26 116.5 -61t38.5 -99q0 -46 -24.5 -85t-74 -63t-119.5 -24q-58 0 -107 19.5t-84 53.5l36 35q65 -60 154 -60q77 0 118 35.5t41 85.5q0 43 -27.5 68t-95.5 49q-79 27 -115.5 61
t-36.5 86q0 66 53 106.5t136 40.5q102 0 178 -66zM313 810h36l114 -106l-28 -30l-109 84l-131 -84l-25 30z" />
    <glyph glyph-name="scommaaccent.sc" horiz-adv-x="485" 
d="M452 505l-36 -33q-58 51 -140 51q-65 0 -98 -27t-33 -70q0 -35 27 -57.5t93 -45.5q78 -26 116.5 -61t38.5 -99q0 -46 -24.5 -85t-74 -63t-119.5 -24q-58 0 -107 19.5t-84 53.5l36 35q65 -60 154 -60q77 0 118 35.5t41 85.5q0 43 -27.5 68t-95.5 49q-79 27 -115.5 61
t-36.5 86q0 66 53 106.5t136 40.5q102 0 178 -66zM223 -96.5q11 -11.5 11 -27.5q0 -14 -6 -27.5t-25 -43.5l-52 -84h-35l49 115q-8 6 -13 15t-5 19q0 19 13.5 32t33.5 13q18 0 29 -11.5z" />
    <glyph glyph-name="germandbls.sc" horiz-adv-x="970" 
d="M452 505l-36 -33q-58 51 -140 51q-65 0 -98 -27t-33 -70q0 -35 27 -57.5t93 -45.5q78 -26 116.5 -61t38.5 -99q0 -46 -24.5 -85t-74 -63t-119.5 -24q-58 0 -107 19.5t-84 53.5l36 35q65 -60 154 -60q77 0 118 35.5t41 85.5q0 43 -27.5 68t-95.5 49q-79 27 -115.5 61
t-36.5 86q0 66 53 106.5t136 40.5q102 0 178 -66zM936 505l-36 -33q-58 51 -140 51q-65 0 -98 -27t-33 -70q0 -35 27 -57.5t93 -45.5q78 -26 116.5 -61t38.5 -99q0 -46 -24.5 -85t-74 -63t-119.5 -24q-58 0 -107 19.5t-84 53.5l36 35q65 -60 154 -60q77 0 118 35.5t41 85.5
q0 43 -27.5 68t-95.5 49q-79 27 -115.5 61t-36.5 86q0 66 53 106.5t136 40.5q102 0 178 -66z" />
    <glyph glyph-name="t.sc" horiz-adv-x="432" 
d="M281 512l-72 -512h-58l72 512h-174l8 50h408l-14 -50h-170z" />
    <glyph glyph-name="tbar.sc" horiz-adv-x="432" 
d="M256 336h125l-5 -42h-126l-41 -294h-58l41 294h-124l5 42h125l25 176h-174l8 50h408l-14 -50h-170z" />
    <glyph glyph-name="tcaron.sc" horiz-adv-x="433" 
d="M281 512l-72 -512h-58l72 512h-174l8 50h408l-14 -50h-170zM282 663h-36l-115 106l28 30l109 -84l134 84l23 -30z" />
    <glyph glyph-name="tcedilla.sc" horiz-adv-x="433" 
d="M199 -64q42 -4 62 -22t20 -47q0 -39 -32 -67t-82 -28q-46 0 -79 23l22 35q25 -16 56 -16q26 0 45 13.5t19 36.5q0 21 -18.5 30t-63.5 10l21 96h-18l72 512h-174l8 50h408l-14 -50h-170l-72 -512z" />
    <glyph glyph-name="uni021B.sc" horiz-adv-x="433" 
d="M281 512l-72 -512h-58l72 512h-174l8 50h408l-14 -50h-170zM204 -96.5q11 -11.5 11 -27.5q0 -14 -6 -27.5t-25 -43.5l-52 -84h-35l49 115q-8 6 -13 15t-5 19q0 19 13.5 32t33.5 13q18 0 29 -11.5z" />
    <glyph glyph-name="u.sc" horiz-adv-x="594" 
d="M411.5 40.5q-56.5 -49.5 -151.5 -49.5q-85 -1 -129 44t-44 118q0 23 2 35l53 374h57l-52 -373q-3 -18 -3 -34q0 -54 29 -84.5t88 -31.5q72 0 112.5 38t49.5 106l53 379h58l-54 -387q-12 -85 -68.5 -134.5z" />
    <glyph glyph-name="uacute.sc" horiz-adv-x="594" 
d="M411.5 40.5q-56.5 -49.5 -151.5 -49.5q-85 -1 -129 44t-44 118q0 23 2 35l53 374h57l-52 -373q-3 -18 -3 -34q0 -54 29 -84.5t88 -31.5q72 0 112.5 38t49.5 106l53 379h58l-54 -387q-12 -85 -68.5 -134.5zM269 675l-14 34l201 104l19 -53z" />
    <glyph glyph-name="ubreve.sc" horiz-adv-x="594" 
d="M411.5 40.5q-56.5 -49.5 -151.5 -49.5q-85 -1 -129 44t-44 118q0 23 2 35l53 374h57l-52 -373q-3 -18 -3 -34q0 -54 29 -84.5t88 -31.5q72 0 112.5 38t49.5 106l53 379h58l-54 -387q-12 -85 -68.5 -134.5zM267 714q-32 31 -32 82l40 5q5 -36 24 -53t53 -17q36 0 63 19
t41 54l38 -12q-13 -50 -52.5 -79.5t-90.5 -29.5q-52 0 -84 31z" />
    <glyph glyph-name="ucircumflex.sc" horiz-adv-x="594" 
d="M411.5 40.5q-56.5 -49.5 -151.5 -49.5q-85 -1 -129 44t-44 118q0 23 2 35l53 374h57l-52 -373q-3 -18 -3 -34q0 -54 29 -84.5t88 -31.5q72 0 112.5 38t49.5 106l53 379h58l-54 -387q-12 -85 -68.5 -134.5zM361 810h36l114 -106l-28 -30l-109 84l-131 -84l-25 30z" />
    <glyph glyph-name="udieresis.sc" horiz-adv-x="594" 
d="M411.5 40.5q-56.5 -49.5 -151.5 -49.5q-85 -1 -129 44t-44 118q0 23 2 35l53 374h57l-52 -373q-3 -18 -3 -34q0 -54 29 -84.5t88 -31.5q72 0 112.5 38t49.5 106l53 379h58l-54 -387q-12 -85 -68.5 -134.5zM298 761.5q10 -10.5 10 -25.5q0 -19 -11.5 -31t-30.5 -12
q-16 0 -26.5 10.5t-10.5 25.5q0 19 12.5 31t30.5 12q16 0 26 -10.5zM486.5 761.5q10.5 -10.5 10.5 -25.5q0 -18 -12 -30.5t-30 -12.5q-16 0 -26.5 10.5t-10.5 25.5q0 19 12 31t30 12q16 0 26.5 -10.5z" />
    <glyph glyph-name="ugrave.sc" horiz-adv-x="594" 
d="M411.5 40.5q-56.5 -49.5 -151.5 -49.5q-85 -1 -129 44t-44 118q0 23 2 35l53 374h57l-52 -373q-3 -18 -3 -34q0 -54 29 -84.5t88 -31.5q72 0 112.5 38t49.5 106l53 379h58l-54 -387q-12 -85 -68.5 -134.5zM445 675l-183 85l33 53l172 -105z" />
    <glyph glyph-name="uhungarumlaut.sc" horiz-adv-x="594" 
d="M411.5 40.5q-56.5 -49.5 -151.5 -49.5q-85 -1 -129 44t-44 118q0 23 2 35l53 374h57l-52 -373q-3 -18 -3 -34q0 -54 29 -84.5t88 -31.5q72 0 112.5 38t49.5 106l53 379h58l-54 -387q-12 -85 -68.5 -134.5zM389 672l-36 18l99 151l49 -27zM269 677l-36 17l90 147l49 -27z
" />
    <glyph glyph-name="umacron.sc" horiz-adv-x="594" 
d="M411.5 40.5q-56.5 -49.5 -151.5 -49.5q-85 -1 -129 44t-44 118q0 23 2 35l53 374h57l-52 -373q-3 -18 -3 -34q0 -54 29 -84.5t88 -31.5q72 0 112.5 38t49.5 106l53 379h58l-54 -387q-12 -85 -68.5 -134.5zM247 753h240l-7 -47h-240z" />
    <glyph glyph-name="uogonek.sc" horiz-adv-x="594" 
d="M480 175q-10 -69 -48.5 -115t-103.5 -62q-64 -28 -91 -54.5t-27 -61.5q0 -24 16 -37.5t48 -13.5q23 0 56 6l-5 -48q-30 -6 -58 -6q-53 0 -82.5 25.5t-29.5 65.5q0 73 97 117q-81 2 -123 46.5t-42 115.5q0 23 2 35l53 374h57l-52 -373q-3 -18 -3 -34q0 -54 29 -84.5
t88 -31.5q72 0 112.5 38t49.5 106l53 379h58z" />
    <glyph glyph-name="uring.sc" horiz-adv-x="594" 
d="M411.5 40.5q-56.5 -49.5 -151.5 -49.5q-85 -1 -129 44t-44 118q0 23 2 35l53 374h57l-52 -373q-3 -18 -3 -34q0 -54 29 -84.5t88 -31.5q72 0 112.5 38t49.5 106l53 379h58l-54 -387q-12 -85 -68.5 -134.5zM441 828q24 -23 24 -60q0 -46 -31 -75.5t-78 -29.5
q-40 0 -64.5 23.5t-24.5 59.5q0 45 31.5 75t78.5 30q40 0 64 -23zM332.5 799q-16.5 -16 -21.5 -45v-10q0 -21 12.5 -33t34.5 -12q26 0 42 16t21 45q1 4 1 12q0 20 -12.5 31.5t-34.5 11.5q-26 0 -42.5 -16z" />
    <glyph glyph-name="utilde.sc" horiz-adv-x="594" 
d="M411.5 40.5q-56.5 -49.5 -151.5 -49.5q-85 -1 -129 44t-44 118q0 23 2 35l53 374h57l-52 -373q-3 -18 -3 -34q0 -54 29 -84.5t88 -31.5q72 0 112.5 38t49.5 106l53 379h58l-54 -387q-12 -85 -68.5 -134.5zM385 704q-16 7 -34 20q-15 10 -23.5 14t-18.5 4q-20 0 -33 -9
t-31 -32l-33 21q45 66 98 66q17 0 30.5 -6t31.5 -18q14 -10 25 -15.5t23 -5.5q16 0 30.5 10.5t32.5 34.5l34 -22q-44 -69 -94 -69q-22 0 -38 7z" />
    <glyph glyph-name="v.sc" horiz-adv-x="480" 
d="M170 0l-112 562h59l94 -506l233 506h62l-270 -562h-66z" />
    <glyph glyph-name="w.sc" horiz-adv-x="712" 
d="M444 0l-55 496l-196 -496h-71l-49 562h58l37 -509l198 509h64l56 -510l182 510h55l-206 -562h-73z" />
    <glyph glyph-name="wacute.sc" horiz-adv-x="712" 
d="M444 0l-55 496l-196 -496h-71l-49 562h58l37 -509l198 509h64l56 -510l182 510h55l-206 -562h-73zM328 675l-14 34l201 104l19 -53z" />
    <glyph glyph-name="wcircumflex.sc" horiz-adv-x="712" 
d="M444 0l-55 496l-196 -496h-71l-49 562h58l37 -509l198 509h64l56 -510l182 510h55l-206 -562h-73zM421 810h36l114 -106l-28 -30l-109 84l-131 -84l-25 30z" />
    <glyph glyph-name="wdieresis.sc" horiz-adv-x="712" 
d="M444 0l-55 496l-196 -496h-71l-49 562h58l37 -509l198 509h64l56 -510l182 510h55l-206 -562h-73zM358 761.5q10 -10.5 10 -25.5q0 -19 -11.5 -31t-30.5 -12q-16 0 -26.5 10.5t-10.5 25.5q0 19 12.5 31t30.5 12q16 0 26 -10.5zM546.5 761.5q10.5 -10.5 10.5 -25.5
q0 -18 -12 -30.5t-30 -12.5q-16 0 -26.5 10.5t-10.5 25.5q0 19 12 31t30 12q16 0 26.5 -10.5z" />
    <glyph glyph-name="wgrave.sc" horiz-adv-x="712" 
d="M444 0l-55 496l-196 -496h-71l-49 562h58l37 -509l198 509h64l56 -510l182 510h55l-206 -562h-73zM504 675l-183 85l33 53l172 -105z" />
    <glyph glyph-name="x.sc" horiz-adv-x="449" 
d="M404 0h-63l-115 262l-188 -262h-65l221 302l-125 260h63l99 -220l163 220h66l-198 -259z" />
    <glyph glyph-name="y.sc" horiz-adv-x="459" 
d="M223 0h-59l32 219l-141 343h61l114 -294l194 294h65l-235 -344z" />
    <glyph glyph-name="yacute.sc" horiz-adv-x="460" 
d="M223 0h-59l32 219l-141 343h61l114 -294l194 294h65l-235 -344zM202 675l-14 34l201 104l19 -53z" />
    <glyph glyph-name="ycircumflex.sc" horiz-adv-x="460" 
d="M223 0h-59l32 219l-141 343h61l114 -294l194 294h65l-235 -344zM295 810h36l114 -106l-28 -30l-109 84l-131 -84l-25 30z" />
    <glyph glyph-name="ydieresis.sc" horiz-adv-x="460" 
d="M223 0h-59l32 219l-141 343h61l114 -294l194 294h65l-235 -344zM232 761.5q10 -10.5 10 -25.5q0 -19 -11.5 -31t-30.5 -12q-16 0 -26.5 10.5t-10.5 25.5q0 19 12.5 31t30.5 12q16 0 26 -10.5zM420.5 761.5q10.5 -10.5 10.5 -25.5q0 -18 -12 -30.5t-30 -12.5
q-16 0 -26.5 10.5t-10.5 25.5q0 19 12 31t30 12q16 0 26.5 -10.5z" />
    <glyph glyph-name="ygrave.sc" horiz-adv-x="460" 
d="M223 0h-59l32 219l-141 343h61l114 -294l194 294h65l-235 -344zM378 675l-183 85l33 53l172 -105z" />
    <glyph glyph-name="z.sc" horiz-adv-x="459" 
d="M76 51h301l-14 -51h-364l5 47l375 466h-277l7 49h345l-6 -47z" />
    <glyph glyph-name="zacute.sc" horiz-adv-x="459" 
d="M76 51h301l-14 -51h-364l5 47l375 466h-277l7 49h345l-6 -47zM212 675l-14 34l201 104l19 -53z" />
    <glyph glyph-name="zcaron.sc" horiz-adv-x="459" 
d="M76 51h301l-14 -51h-364l5 47l375 466h-277l7 49h345l-6 -47zM310 663h-36l-115 106l28 30l109 -84l134 84l23 -30z" />
    <glyph glyph-name="zdotaccent.sc" horiz-adv-x="459" 
d="M76 51h301l-14 -51h-364l5 47l375 466h-277l7 49h345l-6 -47zM339.5 772.5q10.5 -10.5 10.5 -27.5q0 -20 -12.5 -32.5t-33.5 -12.5q-18 0 -29 10.5t-11 27.5q0 20 13 32.5t33 12.5q19 0 29.5 -10.5z" />
    <glyph glyph-name="ordfeminine" unicode="&#xaa;" horiz-adv-x="497" 
d="M429 585q0 -8 -2 -28l-25 -184q-2 -16 -2 -22q0 -27 25 -38l-15 -39q-28 6 -42.5 19.5t-18.5 43.5q-52 -63 -135 -63q-55 0 -86.5 30.5t-31.5 78.5q0 61 49 99.5t144 38.5h77l4 33q2 11 2 25q0 32 -18.5 46t-61.5 14q-47 0 -116 -23l-12 43q75 26 136 26q129 0 129 -100z
M187 453q-32 -28 -32 -68q0 -30 18 -48t51 -18q74 0 123 68l13 94h-66q-75 0 -107 -28zM400 51l-7 -51h-353l7 51h353z" />
    <glyph glyph-name="ordmasculine" unicode="&#xba;" horiz-adv-x="497" 
d="M420.5 642.5q41.5 -42.5 41.5 -120.5q0 -58 -21 -115t-68 -95t-120 -38q-75 0 -116.5 43t-41.5 121q0 57 21 113.5t68 95t120 38.5q75 0 116.5 -42.5zM216 607q-34 -32 -48 -78.5t-14 -94.5q0 -56 25.5 -85t73.5 -29q55 0 88.5 33t47.5 80.5t14 93.5q0 56 -25.5 84
t-73.5 28q-54 0 -88 -32zM397 50l-7 -50h-354l7 50h354z" />
    <glyph glyph-name="uni0410" unicode="&#x410;" horiz-adv-x="562" 
d="M127 187l-87 -187h-61l324 685h75l131 -685h-62l-33 187h-287zM334 636l-184 -398h255z" />
    <glyph glyph-name="uni0411" unicode="&#x411;" horiz-adv-x="566" 
d="M461.5 373q57.5 -45 57.5 -131q0 -62 -26.5 -117t-88 -90t-161.5 -35h-169l96 685v0h345l-16 -51h-277l-30 -216h108q104 0 161.5 -45zM410 107q46 57 46 135q0 127 -158 127h-113l-44 -319h114q109 0 155 57z" />
    <glyph glyph-name="uni0412" unicode="&#x412;" horiz-adv-x="595" 
d="M495.5 319.5q38.5 -34.5 38.5 -101.5q0 -93 -64 -155.5t-209 -62.5h-187l96 685h170q96 0 151.5 -38t55.5 -112q0 -66 -39.5 -112.5t-114.5 -60.5q64 -8 102.5 -42.5zM187 384h132q54 0 92 20.5t57 54.5t19 74q0 102 -145 102h-120zM425 98q47 48 47 121q0 60 -39.5 88.5
t-108.5 28.5h-143l-40 -286h124q113 0 160 48z" />
    <glyph glyph-name="uni0413" unicode="&#x413;" horiz-adv-x="506" 
d="M222 632l-89 -632h-59l96 685l2 -1l-1 1h385l-17 -53h-317z" />
    <glyph glyph-name="uni0403" unicode="&#x403;" horiz-adv-x="506" 
d="M222 632l-89 -632h-59l96 685l2 -1l-1 1h385l-17 -53h-317zM302 758l-11 34l199 96l20 -52z" />
    <glyph glyph-name="uni0490" unicode="&#x490;" horiz-adv-x="489" 
d="M539 632h-317l-89 -632h-59l96 685l2 -1l-1 1h327l16 117h58l-16 -117z" />
    <glyph glyph-name="uni0414" unicode="&#x414;" horiz-adv-x="595" 
d="M502 51l-28 -196h-46l7 145h-412l-39 -145h-45l28 196h39q28 25 49.5 62t46 110.5t60.5 209.5l67 252h318l-89 -634h44zM480 634h-205l-53 -206q-35 -133 -59.5 -204.5t-47 -109.5t-54.5 -63h338z" />
    <glyph glyph-name="uni0415" unicode="&#x415;" horiz-adv-x="509" 
d="M222 635l-36 -255h242l-6 -50h-242l-39 -280h293l-8 -50h-352l96 685h346l-14 -50h-280z" />
    <glyph glyph-name="uni0400" unicode="&#x400;" horiz-adv-x="509" 
d="M222 635l-36 -255h242l-6 -50h-242l-39 -280h293l-8 -50h-352l96 685h346l-14 -50h-280zM450 758l-187 78l33 52l174 -96z" />
    <glyph glyph-name="uni0401" unicode="&#x401;" horiz-adv-x="509" 
d="M222 635l-36 -255h242l-6 -50h-242l-39 -280h293l-8 -50h-352l96 685h346l-14 -50h-280zM302 857.5q10 -10.5 10 -25.5q0 -19 -11.5 -31t-30.5 -12q-16 0 -26.5 10.5t-10.5 25.5q0 19 12.5 31t30.5 12q16 0 26 -10.5zM490.5 857.5q10.5 -10.5 10.5 -25.5q0 -18 -12 -30.5
t-30 -12.5q-16 0 -26.5 10.5t-10.5 25.5q0 19 12 31t30 12q16 0 26.5 -10.5z" />
    <glyph glyph-name="uni0416" unicode="&#x416;" horiz-adv-x="774" 
d="M750.5 619q-21.5 -20 -60.5 -78l-118 -179l155 -362h-63l-142 336h-93l-47 -336h-58l47 336h-91l-233 -336h-69l255 364l-90 193q-16 35 -27 52t-23 25t-33 15l18 47q30 -10 47.5 -20.5t32 -31t32.5 -59.5l93 -199h95l43 299h57l-42 -299h89l123 187q29 43 49 66t39.5 35
t49.5 22l17 -46q-31 -11 -52.5 -31z" />
    <glyph glyph-name="uni0417" unicode="&#x417;" horiz-adv-x="518" 
d="M435.5 655q45.5 -41 45.5 -109q0 -67 -40.5 -114.5t-117.5 -63.5q59 -6 96.5 -45t37.5 -107q0 -58 -30.5 -110.5t-88.5 -84.5t-137 -32q-63 0 -115.5 24t-89.5 70l40 32q61 -74 165 -74q67 0 111 28t63.5 69t19.5 80q0 60 -38.5 92t-112.5 31h-64l14 51h52q56 0 95 22
t58.5 56.5t19.5 72.5q0 47 -30.5 74.5t-89.5 27.5q-89 0 -180 -71l-31 39q52 42 105 62.5t111 20.5q86 0 131.5 -41z" />
    <glyph glyph-name="uni0418" unicode="&#x418;" horiz-adv-x="670" 
d="M463 0l52 366q20 144 44 259l-404 -625h-81l96 685h59l-51 -367q-21 -146 -44 -259l404 626h81l-97 -685h-59z" />
    <glyph glyph-name="uni0419" unicode="&#x419;" horiz-adv-x="670" 
d="M463 0l52 366q20 144 44 259l-404 -625h-81l96 685h59l-51 -367q-21 -146 -44 -259l404 626h81l-97 -685h-59zM322 805q-32 26 -35 69l40 5q6 -27 25.5 -39.5t54.5 -12.5q75 0 100 55l38 -12q-12 -42 -49.5 -66.5t-89.5 -24.5t-84 26z" />
    <glyph glyph-name="uni040D" unicode="&#x40d;" horiz-adv-x="670" 
d="M463 0l52 366q20 144 44 259l-404 -625h-81l96 685h59l-51 -367q-21 -146 -44 -259l404 626h81l-97 -685h-59zM498 758l-187 78l33 52l174 -96z" />
    <glyph glyph-name="uni041A" unicode="&#x41a;" horiz-adv-x="558" 
d="M554.5 635q-14.5 -8 -31.5 -27t-45 -58l-132 -188l170 -362h-62l-158 336h-116l-47 -336h-59l96 685h59l-42 -299h112l137 196q29 41 49 62t39 31t51 21l17 -46q-23 -7 -37.5 -15z" />
    <glyph glyph-name="uni040C" unicode="&#x40c;" horiz-adv-x="558" 
d="M554.5 635q-14.5 -8 -31.5 -27t-45 -58l-132 -188l170 -362h-62l-158 336h-116l-47 -336h-59l96 685h59l-42 -299h112l137 196q29 41 49 62t39 31t51 21l17 -46q-23 -7 -37.5 -15zM285 758l-11 34l199 96l20 -52z" />
    <glyph glyph-name="uni041B" unicode="&#x41b;" horiz-adv-x="642" 
d="M435 0l89 633h-248l-67 -251q-44 -170 -69.5 -243t-54.5 -104t-82 -45l-9 50q35 11 54 34.5t40 87.5t62 218l81 305h360l-97 -685h-59z" />
    <glyph glyph-name="uni041C" unicode="&#x41c;" horiz-adv-x="776" 
d="M604 0l15 330q7 182 17 298l-249 -547h-57l-101 545q-10 -64 -64 -298l-76 -328h-57l161 685h79l96 -534l238 534h86l-31 -685h-57z" />
    <glyph glyph-name="uni041D" unicode="&#x41d;" horiz-adv-x="667" 
d="M180 335l-47 -335h-59l96 685h59l-42 -299h328l42 299h59l-96 -685h-60l48 335h-328z" />
    <glyph glyph-name="uni041E" unicode="&#x41e;" horiz-adv-x="688" 
d="M577 625.5q63 -70.5 63 -201.5q0 -100 -33 -200t-107.5 -167.5t-190.5 -67.5q-110 0 -174 71t-64 202q0 97 34 197t109 168.5t190 68.5q110 0 173 -70.5zM245 583.5q-60 -61.5 -86 -150.5t-26 -177q0 -107 47 -161.5t130 -54.5q98 0 158 62t85 151.5t25 178.5
q0 106 -46 159.5t-131 53.5q-96 0 -156 -61.5z" />
    <glyph glyph-name="uni041F" unicode="&#x41f;" horiz-adv-x="662" 
d="M455 0l89 633h-322l-89 -633h-59l96 685h441l-96 -685h-60z" />
    <glyph glyph-name="uni0420" unicode="&#x420;" horiz-adv-x="567" 
d="M497 642q59 -43 59 -130q0 -105 -67.5 -175t-217.5 -70h-101l-37 -267h-59l96 685h158q110 0 169 -43zM444 371q50 55 50 141q0 66 -43 95t-127 29h-102l-45 -320h97q120 0 170 55z" />
    <glyph glyph-name="uni0421" unicode="&#x421;" horiz-adv-x="548" 
d="M494 680q40 -16 75 -48l-37 -38q-30 27 -60 39t-69 12q-94 0 -155 -59.5t-88 -148t-27 -177.5q0 -109 48 -163.5t128 -54.5q49 0 84.5 15t75.5 44l28 -43q-85 -69 -192 -69t-170.5 71.5t-63.5 202.5q0 100 34.5 199.5t108.5 166.5t185 67q55 0 95 -16z" />
    <glyph glyph-name="uni0422" unicode="&#x422;" horiz-adv-x="492" 
d="M328 632l-89 -632h-60l89 632h-202l8 53h468l-15 -53h-199z" />
    <glyph glyph-name="uni0423" unicode="&#x423;" horiz-adv-x="516" 
d="M232 79q-30 -37 -66 -56.5t-96 -33.5l-7 45q48 12 76 27.5t52 45t54 86.5l-19 -1l-158 493h61l138 -454l243 454h63l-272 -497q-39 -72 -69 -109z" />
    <glyph glyph-name="uni040E" unicode="&#x40e;" horiz-adv-x="516" 
d="M232 79q-30 -37 -66 -56.5t-96 -33.5l-7 45q48 12 76 27.5t52 45t54 86.5l-19 -1l-158 493h61l138 -454l243 454h63l-272 -497q-39 -72 -69 -109zM250 805q-32 26 -35 69l40 5q6 -27 25.5 -39.5t54.5 -12.5q75 0 100 55l38 -12q-12 -42 -49.5 -66.5t-89.5 -24.5t-84 26z
" />
    <glyph glyph-name="uni0424" unicode="&#x424;" horiz-adv-x="798" 
d="M683.5 155.5q-84.5 -102.5 -285.5 -109.5l-10 -71h-59l10 71q-138 6 -211.5 73t-73.5 174q0 90 33.5 168.5t116 131.5t221.5 58l9 68h59l-10 -69q138 -5 211.5 -72t73.5 -175q0 -145 -84.5 -247.5zM182 506.5q-67 -87.5 -67 -213.5q0 -90 59 -142.5t173 -56.5l73 510
q-171 -10 -238 -97.5zM641 191.5q67 87.5 67 212.5q0 91 -59 143.5t-174 56.5l-72 -511q171 11 238 98.5z" />
    <glyph glyph-name="uni0425" unicode="&#x425;" horiz-adv-x="509" 
d="M464 0h-65l-135 327l-225 -327h-66l259 369l1 1l-143 315h65l116 -275l196 275h66l-228 -314l-2 -2z" />
    <glyph glyph-name="uni0427" unicode="&#x427;" horiz-adv-x="591" 
d="M444 0h-60l41 292q-45 -35 -90 -52t-98 -17q-79 0 -125.5 43.5t-46.5 118.5q0 12 2 36l37 264h60l-37 -264q-2 -20 -2 -31q0 -56 32.5 -85t93.5 -29q54 0 101.5 21t81.5 56l47 332h59z" />
    <glyph glyph-name="uni0426" unicode="&#x426;" horiz-adv-x="688" 
d="M587 51l-27 -196h-46l7 145h-447l96 685h59l-88 -634h316l89 634h59l-89 -634h71z" />
    <glyph glyph-name="uni0428" unicode="&#x428;" horiz-adv-x="907" 
d="M74 0l96 685h59l-89 -634h256l89 634h56l-89 -634h256l89 634h59l-97 -685h-685z" />
    <glyph glyph-name="uni0429" unicode="&#x429;" horiz-adv-x="907" 
d="M838 51l-28 -196h-46l8 145h-698l96 685h59l-89 -634h256l89 634h56l-89 -634h256l89 634h59l-90 -634h72z" />
    <glyph glyph-name="uni040F" unicode="&#x40f;" horiz-adv-x="656" 
d="M320 0l-21 -145h-45l7 145h-187l96 685h59l-88 -634h316l89 634h59l-96 -685h-189z" />
    <glyph glyph-name="uni042F" unicode="&#x42f;" horiz-adv-x="589" 
d="M441 0h-59l40 285l-172 1l-180 -286h-70l192 298q-52 18 -82 57.5t-30 94.5q0 58 25 110.5t89 88.5t172 36h172zM363 636q-124 0 -172 -54t-48 -131q0 -54 36 -85.5t94 -31.5h156l42 302h-108z" />
    <glyph glyph-name="uni042C" unicode="&#x42c;" horiz-adv-x="559" 
d="M462.5 377q57.5 -46 57.5 -137q0 -62 -27.5 -116.5t-89.5 -89t-161 -34.5h-168l96 685h59l-36 -262h107q105 0 162.5 -46zM410 107q47 57 47 133q0 70 -40.5 102t-118.5 32h-112l-45 -324h114q108 0 155 57z" />
    <glyph glyph-name="uni042A" unicode="&#x42a;" horiz-adv-x="612" 
d="M516 377q57 -46 57 -137q0 -62 -27.5 -116.5t-89.5 -89t-161 -34.5h-169l90 633h-164l7 52h224l-37 -262h108q105 0 162 -46zM463 107q47 57 47 133q0 70 -40 101.5t-118 31.5h-113l-45 -323h114q108 0 155 57z" />
    <glyph glyph-name="uni042B" unicode="&#x42b;" horiz-adv-x="794" 
d="M452.5 377q57.5 -46 57.5 -137q0 -62 -27.5 -116.5t-89.5 -89t-161 -34.5h-158l96 685h59l-36 -262h97q105 0 162.5 -46zM646 0h-59l96 685h60zM400 107q47 57 47 133q0 70 -40.5 102t-118.5 32h-102l-45 -324h104q108 0 155 57z" />
    <glyph glyph-name="uni0409" unicode="&#x409;" horiz-adv-x="885" 
d="M789 377q57 -46 57 -137q0 -62 -27 -116.5t-89.5 -89t-161.5 -34.5h-158l89 633h-223l-67 -251q-44 -170 -69.5 -243t-54.5 -104t-82 -45l-9 50q35 11 54 34.5t40 87.5t62 218l81 305h335l-37 -262h98q105 0 162 -46zM736 107q47 57 47 133q0 70 -40 102t-118 32h-103
l-45 -324h104q108 0 155 57z" />
    <glyph glyph-name="uni040A" unicode="&#x40a;" horiz-adv-x="930" 
d="M831 352.5q58 -45.5 58 -127.5q0 -57 -27.5 -108t-90 -84t-160.5 -33h-158l49 349h-320l-49 -349h-59l96 685h59l-40 -287h320l40 287h60l-40 -287h100q104 0 162 -45.5zM743.5 77q45.5 27 64 66.5t18.5 80.5q0 61 -40.5 93t-117.5 32h-106l-42 -299h104q74 0 119.5 27z
" />
    <glyph glyph-name="uni0405" unicode="&#x405;" horiz-adv-x="536" 
d="M429 676.5q45 -19.5 82 -57.5l-38 -36q-32 33 -67.5 47.5t-81.5 14.5q-70 0 -116 -35.5t-46 -92.5q0 -46 30.5 -74t107.5 -54q87 -27 131 -69t44 -116q0 -50 -26 -99.5t-83 -82.5t-145 -33q-68 0 -118.5 23t-89.5 65l39 36q33 -36 73.5 -54.5t96.5 -18.5q61 0 104.5 22.5
t65.5 59.5t22 80q0 51 -32 82.5t-108 57.5q-91 28 -131.5 68t-40.5 105q0 42 24.5 84t74.5 69.5t123 27.5q60 0 105 -19.5z" />
    <glyph glyph-name="uni0404" unicode="&#x404;" horiz-adv-x="556" 
d="M241 579.5q-70 -65.5 -96 -198.5h273l-7 -51h-273q-4 -35 -4 -71q0 -108 48 -162.5t127 -54.5q49 0 85 15t75 43l29 -42q-84 -69 -192 -69q-107 0 -170.5 71.5t-63.5 203.5q0 106 35.5 205t109.5 163t183 64q55 0 94 -16t76 -48l-37 -38q-30 27 -60 39t-70 12
q-92 0 -162 -65.5z" />
    <glyph glyph-name="uni042D" unicode="&#x42d;" horiz-adv-x="534" 
d="M431.5 633.5q54.5 -62.5 54.5 -191.5q0 -107 -28.5 -210t-97 -173t-178.5 -70q-60 0 -102 20t-77 54l36 38q32 -30 63.5 -44.5t79.5 -14.5q103 0 159 83t75 205h-281l7 51h280q3 35 3 65q0 102 -38.5 150.5t-108.5 48.5q-48 0 -85 -12.5t-84 -43.5l-28 39q47 34 95.5 51
t104.5 17q96 0 150.5 -62.5z" />
    <glyph glyph-name="uni0406" unicode="&#x406;" horiz-adv-x="281" 
d="M74 0l96 685h60l-96 -685h-60z" />
    <glyph glyph-name="uni0407" unicode="&#x407;" horiz-adv-x="281" 
d="M74 0l96 685h60l-96 -685h-60zM155 857.5q10 -10.5 10 -25.5q0 -19 -11.5 -31t-30.5 -12q-16 0 -26.5 10.5t-10.5 25.5q0 19 12.5 31t30.5 12q16 0 26 -10.5zM343.5 857.5q10.5 -10.5 10.5 -25.5q0 -18 -12 -30.5t-30 -12.5q-16 0 -26.5 10.5t-10.5 25.5q0 19 12 31
t30 12q16 0 26.5 -10.5z" />
    <glyph glyph-name="uni0408" unicode="&#x408;" horiz-adv-x="289" 
d="M130.5 -9q-20.5 -38 -56.5 -62.5t-97 -47.5l-13 45q49 20 76 41.5t40.5 51.5t20.5 78l83 588h59l-83 -595q-9 -61 -29.5 -99z" />
    <glyph glyph-name="uni040B" unicode="&#x40b;" horiz-adv-x="681" 
d="M591 395.5q44 -41.5 44 -116.5q0 -20 -3 -41l-33 -238h-60l34 240q2 12 2 35q0 109 -122 109q-56 0 -101 -23t-88 -70l-41 -291h-59l88 632h-186l8 53h468l-15 -53h-215l-39 -274q40 39 86.5 59t104.5 20q83 0 127 -41.5z" />
    <glyph glyph-name="uni042E" unicode="&#x42e;" horiz-adv-x="874" 
d="M766 627q60 -69 60 -199q0 -102 -32 -202.5t-104.5 -168.5t-185.5 -68q-107 0 -166 70t-59 201q0 38 4 71h-103l-47 -331h-59l96 685h59l-42 -303h104q26 132 101.5 223t205.5 91q108 0 168 -69zM658 103q58 63 82 153t24 180q0 105 -43 157t-124 52q-92 0 -149.5 -62.5
t-83 -153t-25.5 -178.5q0 -106 44 -158.5t123 -52.5q94 0 152 63z" />
    <glyph glyph-name="uni0402" unicode="&#x402;" horiz-adv-x="697" 
d="M607 395q44 -42 44 -117q0 -18 -3 -41l-21 -147q-8 -61 -28.5 -99t-56.5 -62.5t-97 -47.5l-13 44q49 21 76 42.5t40.5 51.5t19.5 77l21 144q2 12 2 35q0 109 -123 109q-55 0 -100 -23t-88 -69l-41 -292h-60l89 632h-202l8 53h468l-15 -53h-199l-39 -274q41 39 87 59
t104 20q83 0 127 -42z" />
    <glyph glyph-name="uni0462" unicode="&#x462;" horiz-adv-x="665" 
d="M561 377.5q57 -45.5 57 -136.5q0 -62 -27.5 -116.5t-89.5 -89.5t-161 -35h-168l89 632h-195l8 53h469l-15 -53h-207l-30 -209h108q105 0 162 -45.5zM473 78.5q45 28.5 64 71.5t19 90q0 70 -40.5 102t-118.5 32h-113l-45 -324h114q75 0 120 28.5z" />
    <glyph glyph-name="uni0472" unicode="&#x472;" horiz-adv-x="688" 
d="M576.5 625.5q63.5 -70.5 63.5 -202.5q0 -32 -7 -86q-15 -109 -60 -187.5t-113 -119.5t-151 -41q-110 0 -174 71t-64 201q0 39 6 82q16 111 61.5 190.5t114 121t149.5 41.5q111 0 174.5 -70.5zM238 576.5q-68 -68.5 -94 -203.5h433q2 21 2 58q0 108 -46.5 161t-131.5 53
q-95 0 -163 -68.5zM479 112q68 72 91 214h-434q-4 -33 -4 -70q0 -107 47.5 -161.5t130.5 -54.5q101 0 169 72z" />
    <glyph glyph-name="uni0474" unicode="&#x474;" horiz-adv-x="542" 
d="M527 554l-259 -554h-67l-126 685h64l105 -623l233 517q18 40 32.5 65t34.5 51l59 -14q-41 -50 -76 -127z" />
    <glyph glyph-name="uni0492" unicode="&#x492;" horiz-adv-x="509" 
d="M193 401h167l-7 -46h-166l-50 -355h-59l49 355h-96l7 46h96l40 284l1 -1l-1 1h385l-16 -53h-317z" />
    <glyph glyph-name="uni0496" unicode="&#x496;" horiz-adv-x="774" 
d="M770 51l-28 -196h-46l8 145h-34h-6l-142 336h-93l-47 -336h-58l47 336h-91l-233 -336h-69l255 364l-90 193q-16 35 -27 52t-23 25t-33 15l18 47q30 -10 47.5 -20.5t32 -31t32.5 -59.5l93 -199h95l43 299h57l-42 -299h89l123 187q29 43 49 66t39.5 35t49.5 22l17 -46
q-31 -11 -52.5 -31t-60.5 -78l-118 -179l133 -311h65z" />
    <glyph glyph-name="uni0498" unicode="&#x498;" horiz-adv-x="518" 
d="M419.5 323q37.5 -39 37.5 -107q0 -56 -27.5 -106t-80 -82.5t-124.5 -37.5q57 -41 57 -102q0 -52 -33.5 -84.5t-90.5 -32.5q-43 0 -83 22l20 37q30 -16 62 -16q34 0 54.5 22t20.5 58q0 55 -59 96q-111 11 -177 93l40 32q61 -74 165 -74q67 0 111 28t63.5 69t19.5 80
q0 60 -38.5 92t-112.5 31h-64l14 51h52q56 0 95 22t58.5 56.5t19.5 72.5q0 47 -30.5 74.5t-89.5 27.5q-89 0 -180 -71l-31 39q52 42 105 62.5t111 20.5q86 0 131.5 -41t45.5 -109q0 -67 -40.5 -114.5t-117.5 -63.5q59 -6 96.5 -45z" />
    <glyph glyph-name="uni049A" unicode="&#x49a;" horiz-adv-x="558" 
d="M568 51l-28 -196h-46l8 145h-34h-14l-158 336h-116l-47 -336h-59l96 685h59l-42 -299h112l137 196q29 41 49 62t39 31t51 21l17 -46q-23 -7 -37.5 -15t-31.5 -27t-45 -58l-132 -188l146 -311h76z" />
    <glyph glyph-name="uni049C" unicode="&#x49c;" horiz-adv-x="558" 
d="M553.5 635q-14.5 -8 -31.5 -27t-44 -58l-127 -188l165 -362h-62l-153 336h-33l-25 -181h-40l25 181h-48l-47 -336h-59l96 685h59l-42 -299h48l25 179h40l-25 -179h29l132 196q28 41 48 62t39 31t52 21l17 -46q-24 -7 -38.5 -15z" />
    <glyph glyph-name="uni04A0" unicode="&#x4a0;" horiz-adv-x="597" 
d="M594 634.5q-14 -8.5 -31.5 -27.5t-44.5 -58l-133 -188l171 -361h-62l-159 335h-115l-48 -335h-59l89 633h-150l7 52h210l-42 -299h111l137 196q29 42 49.5 63t39 31t50.5 20l17 -46q-23 -7 -37 -15.5z" />
    <glyph glyph-name="uni04A2" unicode="&#x4a2;" horiz-adv-x="667" 
d="M598 51l-28 -196h-45l7 145h-72l48 335h-328l-47 -335h-59l96 685h59l-42 -299h328l42 299h59l-89 -634h71z" />
    <glyph glyph-name="uni0524" unicode="&#x524;" horiz-adv-x="662" 
d="M593 51l-28 -196h-45l7 145h-72l89 633h-322l-89 -633h-59l96 685h441l-89 -634h71z" />
    <glyph glyph-name="uni04AA" unicode="&#x4aa;" horiz-adv-x="548" 
d="M248 585.5q-61 -59.5 -88 -148t-27 -177.5q0 -109 48 -163.5t128 -54.5q49 0 84.5 15t75.5 44l28 -43q-77 -63 -174 -68q56 -41 56 -102q0 -52 -33.5 -84.5t-90.5 -32.5q-43 0 -83 22l20 37q30 -16 62 -16q34 0 54.5 22t20.5 58q0 29 -15.5 53t-45.5 45q-91 11 -144 81.5
t-53 189.5q0 100 34.5 199.5t108.5 166.5t185 67q55 0 95 -16t75 -48l-37 -38q-30 27 -60 39t-69 12q-94 0 -155 -59.5z" />
    <glyph glyph-name="uni04AC" unicode="&#x4ac;" horiz-adv-x="492" 
d="M527 632h-199l-82 -581h71l-28 -196h-46l8 145h-72l89 632h-202l8 53h468z" />
    <glyph glyph-name="uni04AE" unicode="&#x4ae;" horiz-adv-x="520" 
d="M254 0h-60l38 267l-159 418h63l131 -363l233 363h67l-275 -417z" />
    <glyph glyph-name="uni04B0" unicode="&#x4b0;" horiz-adv-x="520" 
d="M448 249h-159l-35 -249h-60l35 249h-82l7 47h67l-148 389h63l131 -363l233 363h67l-257 -389h144z" />
    <glyph glyph-name="uni04B2" unicode="&#x4b2;" horiz-adv-x="509" 
d="M497 51l-28 -196h-45l7 145h-34v6l-133 321l-225 -327h-66l259 369l1 1l-143 315h65l116 -275l196 275h66l-228 -314l-2 -2l139 -318h55z" />
    <glyph glyph-name="uni04B6" unicode="&#x4b6;" horiz-adv-x="591" 
d="M522 51l-28 -196h-46l8 145h-72l41 292q-45 -35 -90 -52t-98 -17q-79 0 -125.5 43.5t-46.5 118.5q0 12 2 36l37 264h60l-37 -264q-2 -20 -2 -31q0 -56 32.5 -85t93.5 -29q54 0 101.5 21t81.5 56l47 332h59l-89 -634h71z" />
    <glyph glyph-name="uni04B8" unicode="&#x4b8;" horiz-adv-x="591" 
d="M444 0h-60l41 292q-35 -28 -69.5 -44t-73.5 -22l-15 -109h-43l14 106h-1q-79 0 -125.5 43.5t-46.5 118.5q0 12 2 36l37 264h60l-37 -264q-2 -20 -2 -31q0 -55 31.5 -83.5t89.5 -30.5l35 251h43l-35 -249q43 7 80 26.5t65 48.5l47 332h59z" />
    <glyph glyph-name="uni04BA" unicode="&#x4ba;" horiz-adv-x="591" 
d="M502 395q44 -42 44 -117q0 -21 -4 -41l-33 -237h-60l34 240q3 18 3 35q0 109 -123 109q-55 0 -100.5 -23t-88.5 -69l-41 -292h-59l96 685h59l-46 -327q41 39 87 59t104 20q84 0 128 -42z" />
    <glyph glyph-name="uni0526" unicode="&#x526;" horiz-adv-x="591" 
d="M559 -145h-46l8 145h-72l34 240q3 18 3 35q0 109 -123 109q-55 0 -100.5 -23t-88.5 -69l-41 -292h-59l96 685h59l-46 -327q41 39 87 59t104 20q84 0 128 -42t44 -117q0 -21 -4 -41l-26 -186h71z" />
    <glyph glyph-name="uni04C0" unicode="&#x4c0;" horiz-adv-x="281" 
d="M74 0l96 685h60l-96 -685h-60z" />
    <glyph glyph-name="uni04C1" unicode="&#x4c1;" horiz-adv-x="774" 
d="M750.5 619q-21.5 -20 -60.5 -78l-118 -179l155 -362h-63l-142 336h-93l-47 -336h-58l47 336h-91l-233 -336h-69l255 364l-90 193q-16 35 -27 52t-23 25t-33 15l18 47q30 -10 47.5 -20.5t32 -31t32.5 -59.5l93 -199h95l43 299h57l-42 -299h89l123 187q29 43 49 66t39.5 35
t49.5 22l17 -46q-31 -11 -52.5 -31zM376 805q-32 26 -35 69l40 5q6 -27 25.5 -39.5t54.5 -12.5q75 0 100 55l38 -12q-12 -42 -49.5 -66.5t-89.5 -24.5t-84 26z" />
    <glyph glyph-name="uni04CB" unicode="&#x4cb;" horiz-adv-x="591" 
d="M444 0h-55l-39 -145h-45l28 196h58l34 241q-45 -35 -90 -52t-98 -17q-79 0 -125.5 43.5t-46.5 118.5q0 12 2 36l37 264h60l-37 -264q-2 -20 -2 -31q0 -56 32.5 -85t93.5 -29q54 0 101.5 21t81.5 56l47 332h59z" />
    <glyph glyph-name="uni04D0" unicode="&#x4d0;" horiz-adv-x="562" 
d="M127 187l-87 -187h-61l324 685h75l131 -685h-62l-33 187h-287zM334 636l-184 -398h255zM267 805q-32 26 -35 69l40 5q6 -27 25.5 -39.5t54.5 -12.5q75 0 100 55l38 -12q-12 -42 -49.5 -66.5t-89.5 -24.5t-84 26z" />
    <glyph glyph-name="uni04D2" unicode="&#x4d2;" horiz-adv-x="562" 
d="M127 187l-87 -187h-61l324 685h75l131 -685h-62l-33 187h-287zM334 636l-184 -398h255zM296 857.5q10 -10.5 10 -25.5q0 -19 -11.5 -31t-30.5 -12q-16 0 -26.5 10.5t-10.5 25.5q0 19 12.5 31t30.5 12q16 0 26 -10.5zM484.5 857.5q10.5 -10.5 10.5 -25.5q0 -18 -12 -30.5
t-30 -12.5q-16 0 -26.5 10.5t-10.5 25.5q0 19 12 31t30 12q16 0 26.5 -10.5z" />
    <glyph glyph-name="uni04D6" unicode="&#x4d6;" horiz-adv-x="509" 
d="M222 635l-36 -255h242l-6 -50h-242l-39 -280h293l-8 -50h-352l96 685h346l-14 -50h-280zM273 805q-32 26 -35 69l40 5q6 -27 25.5 -39.5t54.5 -12.5q75 0 100 55l38 -12q-12 -42 -49.5 -66.5t-89.5 -24.5t-84 26z" />
    <glyph glyph-name="uni04D8" unicode="&#x4d8;" horiz-adv-x="644" 
d="M539.5 633q58.5 -63 58.5 -192q0 -42 -8 -98q-25 -177 -107 -265.5t-201 -88.5q-106 0 -164.5 65.5t-58.5 190.5q0 29 4.5 69t9.5 61l459 -2q4 35 4 71q0 105 -42 153t-123 48q-53 0 -100.5 -17.5t-97.5 -53.5l-28 41q54 42 109 61.5t119 19.5q108 0 166.5 -63z
M436.5 109q64.5 70 88.5 215l-401 -2q-6 -45 -6 -81q0 -103 42.5 -152.5t120.5 -49.5q91 0 155.5 70z" />
    <glyph glyph-name="uni04DA" unicode="&#x4da;" horiz-adv-x="644" 
d="M539.5 633q58.5 -63 58.5 -192q0 -42 -8 -98q-25 -177 -107 -265.5t-201 -88.5q-106 0 -164.5 65.5t-58.5 190.5q0 29 4.5 69t9.5 61l459 -2q4 35 4 71q0 105 -42 153t-123 48q-53 0 -100.5 -17.5t-97.5 -53.5l-28 41q54 42 109 61.5t119 19.5q108 0 166.5 -63z
M436.5 109q64.5 70 88.5 215l-401 -2q-6 -45 -6 -81q0 -103 42.5 -152.5t120.5 -49.5q91 0 155.5 70zM330 857.5q10 -10.5 10 -25.5q0 -19 -11.5 -31t-30.5 -12q-16 0 -26.5 10.5t-10.5 25.5q0 19 12.5 31t30.5 12q16 0 26 -10.5zM518.5 857.5q10.5 -10.5 10.5 -25.5
q0 -18 -12 -30.5t-30 -12.5q-16 0 -26.5 10.5t-10.5 25.5q0 19 12 31t30 12q16 0 26.5 -10.5z" />
    <glyph glyph-name="uni04DC" unicode="&#x4dc;" horiz-adv-x="774" 
d="M750.5 619q-21.5 -20 -60.5 -78l-118 -179l155 -362h-63l-142 336h-93l-47 -336h-58l47 336h-91l-233 -336h-69l255 364l-90 193q-16 35 -27 52t-23 25t-33 15l18 47q30 -10 47.5 -20.5t32 -31t32.5 -59.5l93 -199h95l43 299h57l-42 -299h89l123 187q29 43 49 66t39.5 35
t49.5 22l17 -46q-31 -11 -52.5 -31zM405 857.5q10 -10.5 10 -25.5q0 -19 -11.5 -31t-30.5 -12q-16 0 -26.5 10.5t-10.5 25.5q0 19 12.5 31t30.5 12q16 0 26 -10.5zM593.5 857.5q10.5 -10.5 10.5 -25.5q0 -18 -12 -30.5t-30 -12.5q-16 0 -26.5 10.5t-10.5 25.5q0 19 12 31
t30 12q16 0 26.5 -10.5z" />
    <glyph glyph-name="uni04DE" unicode="&#x4de;" horiz-adv-x="518" 
d="M435.5 655q45.5 -41 45.5 -109q0 -67 -40.5 -114.5t-117.5 -63.5q59 -6 96.5 -45t37.5 -107q0 -58 -30.5 -110.5t-88.5 -84.5t-137 -32q-63 0 -115.5 24t-89.5 70l40 32q61 -74 165 -74q67 0 111 28t63.5 69t19.5 80q0 60 -38.5 92t-112.5 31h-64l14 51h52q56 0 95 22
t58.5 56.5t19.5 72.5q0 47 -30.5 74.5t-89.5 27.5q-89 0 -180 -71l-31 39q52 42 105 62.5t111 20.5q86 0 131.5 -41zM273 857.5q10 -10.5 10 -25.5q0 -19 -11.5 -31t-30.5 -12q-16 0 -26.5 10.5t-10.5 25.5q0 19 12.5 31t30.5 12q16 0 26 -10.5zM461.5 857.5
q10.5 -10.5 10.5 -25.5q0 -18 -12 -30.5t-30 -12.5q-16 0 -26.5 10.5t-10.5 25.5q0 19 12 31t30 12q16 0 26.5 -10.5z" />
    <glyph glyph-name="uni04E2" unicode="&#x4e2;" horiz-adv-x="670" 
d="M463 0l52 366q20 144 44 259l-404 -625h-81l96 685h59l-51 -367q-21 -146 -44 -259l404 626h81l-97 -685h-59zM298 849h240l-7 -47h-240z" />
    <glyph glyph-name="uni04E4" unicode="&#x4e4;" horiz-adv-x="670" 
d="M463 0l52 366q20 144 44 259l-404 -625h-81l96 685h59l-51 -367q-21 -146 -44 -259l404 626h81l-97 -685h-59zM350 857.5q10 -10.5 10 -25.5q0 -19 -11.5 -31t-30.5 -12q-16 0 -26.5 10.5t-10.5 25.5q0 19 12.5 31t30.5 12q16 0 26 -10.5zM538.5 857.5
q10.5 -10.5 10.5 -25.5q0 -18 -12 -30.5t-30 -12.5q-16 0 -26.5 10.5t-10.5 25.5q0 19 12 31t30 12q16 0 26.5 -10.5z" />
    <glyph glyph-name="uni04E6" unicode="&#x4e6;" horiz-adv-x="688" 
d="M577 625.5q63 -70.5 63 -201.5q0 -100 -33 -200t-107.5 -167.5t-190.5 -67.5q-110 0 -174 71t-64 202q0 97 34 197t109 168.5t190 68.5q110 0 173 -70.5zM245 583.5q-60 -61.5 -86 -150.5t-26 -177q0 -107 47 -161.5t130 -54.5q98 0 158 62t85 151.5t25 178.5
q0 106 -46 159.5t-131 53.5q-96 0 -156 -61.5zM352 857.5q10 -10.5 10 -25.5q0 -19 -11.5 -31t-30.5 -12q-16 0 -26.5 10.5t-10.5 25.5q0 19 12.5 31t30.5 12q16 0 26 -10.5zM540.5 857.5q10.5 -10.5 10.5 -25.5q0 -18 -12 -30.5t-30 -12.5q-16 0 -26.5 10.5t-10.5 25.5
q0 19 12 31t30 12q16 0 26.5 -10.5z" />
    <glyph glyph-name="uni04E8" unicode="&#x4e8;" horiz-adv-x="688" 
d="M576.5 625.5q63.5 -70.5 63.5 -202.5q0 -32 -7 -86q-15 -109 -60 -187.5t-113 -119.5t-151 -41q-110 0 -174 71t-64 201q0 39 6 82q16 111 61.5 190.5t114 121t149.5 41.5q111 0 174.5 -70.5zM238 576.5q-68 -68.5 -94 -203.5h433q2 21 2 58q0 108 -46.5 161t-131.5 53
q-95 0 -163 -68.5zM479 112q68 72 91 214h-434q-4 -33 -4 -70q0 -107 47.5 -161.5t130.5 -54.5q101 0 169 72z" />
    <glyph glyph-name="uni04EA" unicode="&#x4ea;" horiz-adv-x="688" 
d="M576.5 625.5q63.5 -70.5 63.5 -202.5q0 -32 -7 -86q-15 -109 -60 -187.5t-113 -119.5t-151 -41q-110 0 -174 71t-64 201q0 39 6 82q16 111 61.5 190.5t114 121t149.5 41.5q111 0 174.5 -70.5zM238 576.5q-68 -68.5 -94 -203.5h433q2 21 2 58q0 108 -46.5 161t-131.5 53
q-95 0 -163 -68.5zM479 112q68 72 91 214h-434q-4 -33 -4 -70q0 -107 47.5 -161.5t130.5 -54.5q101 0 169 72zM359 857.5q10 -10.5 10 -25.5q0 -19 -11.5 -31t-30.5 -12q-16 0 -26.5 10.5t-10.5 25.5q0 19 12.5 31t30.5 12q16 0 26 -10.5zM547.5 857.5
q10.5 -10.5 10.5 -25.5q0 -18 -12 -30.5t-30 -12.5q-16 0 -26.5 10.5t-10.5 25.5q0 19 12 31t30 12q16 0 26.5 -10.5z" />
    <glyph glyph-name="uni04EC" unicode="&#x4ec;" horiz-adv-x="534" 
d="M431.5 633.5q54.5 -62.5 54.5 -191.5q0 -107 -28.5 -210t-97 -173t-178.5 -70q-60 0 -102 20t-77 54l36 38q32 -30 63.5 -44.5t79.5 -14.5q103 0 159 83t75 205h-281l7 51h280q3 35 3 65q0 102 -38.5 150.5t-108.5 48.5q-48 0 -85 -12.5t-84 -43.5l-28 39q47 34 95.5 51
t104.5 17q96 0 150.5 -62.5zM242 857.5q10 -10.5 10 -25.5q0 -19 -11.5 -31t-30.5 -12q-16 0 -26.5 10.5t-10.5 25.5q0 19 12.5 31t30.5 12q16 0 26 -10.5zM430.5 857.5q10.5 -10.5 10.5 -25.5q0 -18 -12 -30.5t-30 -12.5q-16 0 -26.5 10.5t-10.5 25.5q0 19 12 31t30 12
q16 0 26.5 -10.5z" />
    <glyph glyph-name="uni04EE" unicode="&#x4ee;" horiz-adv-x="516" 
d="M232 79q-30 -37 -66 -56.5t-96 -33.5l-7 45q48 12 76 27.5t52 45t54 86.5l-19 -1l-158 493h61l138 -454l243 454h63l-272 -497q-39 -72 -69 -109zM226 849h240l-7 -47h-240z" />
    <glyph glyph-name="uni04F0" unicode="&#x4f0;" horiz-adv-x="516" 
d="M232 79q-30 -37 -66 -56.5t-96 -33.5l-7 45q48 12 76 27.5t52 45t54 86.5l-19 -1l-158 493h61l138 -454l243 454h63l-272 -497q-39 -72 -69 -109zM278 857.5q10 -10.5 10 -25.5q0 -19 -11.5 -31t-30.5 -12q-16 0 -26.5 10.5t-10.5 25.5q0 19 12.5 31t30.5 12
q16 0 26 -10.5zM466.5 857.5q10.5 -10.5 10.5 -25.5q0 -18 -12 -30.5t-30 -12.5q-16 0 -26.5 10.5t-10.5 25.5q0 19 12 31t30 12q16 0 26.5 -10.5z" />
    <glyph glyph-name="uni04F2" unicode="&#x4f2;" horiz-adv-x="516" 
d="M232 79q-30 -37 -66 -56.5t-96 -33.5l-7 45q48 12 76 27.5t52 45t54 86.5l-19 -1l-158 493h61l138 -454l243 454h63l-272 -497q-39 -72 -69 -109zM369 768l-36 18l99 151l49 -27zM249 773l-36 17l90 147l49 -27z" />
    <glyph glyph-name="uni04F4" unicode="&#x4f4;" horiz-adv-x="591" 
d="M444 0h-60l41 292q-45 -35 -90 -52t-98 -17q-79 0 -125.5 43.5t-46.5 118.5q0 12 2 36l37 264h60l-37 -264q-2 -20 -2 -31q0 -56 32.5 -85t93.5 -29q54 0 101.5 21t81.5 56l47 332h59zM278 857.5q10 -10.5 10 -25.5q0 -19 -11.5 -31t-30.5 -12q-16 0 -26.5 10.5
t-10.5 25.5q0 19 12.5 31t30.5 12q16 0 26 -10.5zM466.5 857.5q10.5 -10.5 10.5 -25.5q0 -18 -12 -30.5t-30 -12.5q-16 0 -26.5 10.5t-10.5 25.5q0 19 12 31t30 12q16 0 26.5 -10.5z" />
    <glyph glyph-name="uni04F6" unicode="&#x4f6;" horiz-adv-x="506" 
d="M141 51h71l-28 -196h-46l8 145h-72l96 685l2 -1l-1 1h385l-17 -53h-317z" />
    <glyph glyph-name="uni04F8" unicode="&#x4f8;" horiz-adv-x="794" 
d="M452.5 377q57.5 -46 57.5 -137q0 -62 -27.5 -116.5t-89.5 -89t-161 -34.5h-158l96 685h59l-36 -262h97q105 0 162.5 -46zM646 0h-59l96 685h60zM400 107q47 57 47 133q0 70 -40.5 102t-118.5 32h-102l-45 -324h104q108 0 155 57zM413 857.5q10 -10.5 10 -25.5
q0 -19 -11.5 -31t-30.5 -12q-16 0 -26.5 10.5t-10.5 25.5q0 19 12.5 31t30.5 12q16 0 26 -10.5zM601.5 857.5q10.5 -10.5 10.5 -25.5q0 -18 -12 -30.5t-30 -12.5q-16 0 -26.5 10.5t-10.5 25.5q0 19 12 31t30 12q16 0 26.5 -10.5z" />
    <glyph glyph-name="uni051C" unicode="&#x51c;" horiz-adv-x="807" 
d="M515 0l-62 618l-236 -618h-73l-54 685h59l41 -628l238 628h67l64 -629l220 629h57l-247 -685h-74z" />
    <glyph glyph-name="uni0416.001" horiz-adv-x="672" 
d="M649.5 502.5q-18.5 -15.5 -49.5 -61.5l-100 -144l136 -297h-60l-124 273h-79l-39 -273h-55l38 273h-75l-198 -273h-66l218 300l-76 150q-21 41 -35 54.5t-39 21.5l16 44q40 -11 59 -28.5t43 -64.5l81 -157h79l34 243h56l-35 -243h74l106 151q35 51 58 69t63 30l16 -43
q-28 -9 -46.5 -24.5z" />
    <glyph glyph-name="uni041A.001" horiz-adv-x="483" 
d="M476.5 515q-12.5 -6 -26.5 -21t-36 -45l-112 -152l149 -297h-60l-137 273h-97l-39 -273h-57l79 563h57l-34 -243h93l116 159q25 34 42.5 50.5t33.5 24t46 16.5l16 -43q-21 -6 -33.5 -12z" />
    <glyph glyph-name="uni0430" unicode="&#x430;" 
d="M414.5 523.5q38.5 -10.5 82.5 -32.5l-57 -377q-2 -24 -2 -31q0 -23 8 -34.5t25 -18.5l-17 -41q-35 7 -52.5 28.5t-17.5 66.5q-30 -44 -71.5 -69.5t-89.5 -25.5q-78 0 -121.5 54t-43.5 149q0 78 28 157t88.5 132t152.5 53q49 0 87.5 -10.5zM210 441q-47 -46 -69 -114
t-22 -135q0 -76 29.5 -115.5t84.5 -39.5q46 0 83.5 28.5t72.5 82.5l47 315q-50 24 -107 24q-72 0 -119 -46z" />
    <glyph glyph-name="uni0431" unicode="&#x431;" horiz-adv-x="571" 
d="M464.5 447q43.5 -51 43.5 -143q0 -72 -24.5 -144t-79.5 -121.5t-142 -49.5q-89 0 -141 61t-52 179q0 104 17.5 188t72.5 152t159 98q60 18 91.5 32.5t68.5 43.5l24 -44q-30 -25 -66 -41.5t-99 -35.5q-60 -18 -100.5 -47.5t-66.5 -79.5t-39 -130q35 57 91 95t120 38
q79 0 122.5 -51zM371.5 79.5q41.5 41.5 59 102.5t17.5 122q0 73 -29 109t-84 36q-61 0 -117 -43t-92 -113q-2 -20 -2 -66q0 -91 36.5 -140t102.5 -49q67 0 108.5 41.5z" />
    <glyph glyph-name="uni0432" unicode="&#x432;" horiz-adv-x="541" 
d="M439.5 503.5q39.5 -30.5 39.5 -82.5q0 -90 -108 -134q45 -15 72.5 -47t27.5 -76q0 -56 -27.5 -95.5t-72.5 -59.5t-98 -20q-96 0 -154.5 59t-58.5 166q0 77 32 150.5t94.5 121.5t148.5 48q65 0 104.5 -30.5zM197.5 430q-54.5 -58 -71.5 -144q146 5 221 36.5t75 94.5
q0 34 -23.5 52.5t-67.5 18.5q-79 0 -133.5 -58zM121 242q-2 -18 -2 -27q0 -80 39.5 -129t112.5 -49q63 0 101.5 34.5t38.5 92.5q0 41 -24 65.5t-62 40.5q-77 -22 -204 -28z" />
    <glyph glyph-name="uni0433" unicode="&#x433;" horiz-adv-x="461" 
d="M374 500q42 -34 42 -88q0 -53 -35 -93t-134 -66q-67 -18 -101 -38.5t-45 -41.5t-11 -48q0 -40 30.5 -63t80.5 -23q91 0 168 56l30 -39q-88 -67 -201 -67q-73 0 -121 36.5t-48 99.5q0 58 42.5 100.5t149.5 71.5q82 22 108.5 50t26.5 65q0 34 -26.5 54t-69.5 20
q-38 0 -72 -12t-71 -38l-27 39q83 59 174 59q68 0 110 -34z" />
    <glyph glyph-name="uni0453" unicode="&#x453;" horiz-adv-x="461" 
d="M374 500q42 -34 42 -88q0 -53 -35 -93t-134 -66q-67 -18 -101 -38.5t-45 -41.5t-11 -48q0 -40 30.5 -63t80.5 -23q91 0 168 56l30 -39q-88 -67 -201 -67q-73 0 -121 36.5t-48 99.5q0 58 42.5 100.5t149.5 71.5q82 22 108.5 50t26.5 65q0 34 -26.5 54t-69.5 20
q-38 0 -72 -12t-71 -38l-27 39q83 59 174 59q68 0 110 -34zM194 645l-14 34l201 103l19 -52z" />
    <glyph glyph-name="uni0491" unicode="&#x491;" horiz-adv-x="458" 
d="M450 523l-14 -50h-243l-67 -473h-57l74 523h250l17 121h57z" />
    <glyph glyph-name="uni0434" unicode="&#x434;" horiz-adv-x="555" 
d="M398 689.5q62 -41.5 80.5 -109.5t18.5 -188q0 -47 -8 -108q-20 -142 -85 -218.5t-163 -76.5q-84 0 -133.5 55t-49.5 148q0 76 23.5 145.5t74.5 115t130 45.5q49 0 88 -22.5t65 -64.5q1 102 -15.5 157.5t-69 87t-160.5 41.5l14 47q128 -13 190 -54.5zM158.5 374
q-41.5 -76 -41.5 -183q0 -73 32.5 -113.5t91.5 -40.5q73 0 123 66t67 188q3 17 5 59q-26 49 -62 74.5t-81 25.5q-93 0 -134.5 -76z" />
    <glyph glyph-name="uni0435" unicode="&#x435;" horiz-adv-x="520" 
d="M386.5 266q-94.5 -47 -266.5 -60l-1 -6q0 -82 36 -121.5t98 -39.5q41 0 75.5 13t72.5 40l26 -41q-42 -31 -85.5 -46.5t-92.5 -15.5q-90 0 -140 55t-50 155q0 79 28 156t87.5 128t147.5 51q74 0 116.5 -35.5t42.5 -90.5q0 -95 -94.5 -142zM183.5 416.5
q-49.5 -69.5 -60.5 -165.5q150 12 224 49t74 106q0 34 -25 57t-75 23q-88 0 -137.5 -69.5z" />
    <glyph glyph-name="uni0450" unicode="&#x450;" horiz-adv-x="520" 
d="M386.5 266q-94.5 -47 -266.5 -60l-1 -6q0 -82 36 -121.5t98 -39.5q41 0 75.5 13t72.5 40l26 -41q-42 -31 -85.5 -46.5t-92.5 -15.5q-90 0 -140 55t-50 155q0 79 28 156t87.5 128t147.5 51q74 0 116.5 -35.5t42.5 -90.5q0 -95 -94.5 -142zM183.5 416.5
q-49.5 -69.5 -60.5 -165.5q150 12 224 49t74 106q0 34 -25 57t-75 23q-88 0 -137.5 -69.5zM424 645l-183 85l33 52l172 -104z" />
    <glyph glyph-name="uni0451" unicode="&#x451;" horiz-adv-x="520" 
d="M386.5 266q-94.5 -47 -266.5 -60l-1 -6q0 -82 36 -121.5t98 -39.5q41 0 75.5 13t72.5 40l26 -41q-42 -31 -85.5 -46.5t-92.5 -15.5q-90 0 -140 55t-50 155q0 79 28 156t87.5 128t147.5 51q74 0 116.5 -35.5t42.5 -90.5q0 -95 -94.5 -142zM183.5 416.5
q-49.5 -69.5 -60.5 -165.5q150 12 224 49t74 106q0 34 -25 57t-75 23q-88 0 -137.5 -69.5zM264.5 731.5q10.5 -10.5 10.5 -25.5q0 -18 -12 -30.5t-30 -12.5q-17 0 -27 10.5t-10 25.5q0 18 12 30.5t30 12.5q16 0 26.5 -10.5zM453 731.5q10 -10.5 10 -25.5q0 -18 -12 -30.5
t-30 -12.5q-16 0 -26.5 10.5t-10.5 25.5q0 18 12 30.5t30 12.5q17 0 27 -10.5z" />
    <glyph glyph-name="uni0436" unicode="&#x436;" horiz-adv-x="700" 
d="M644.5 469.5q-15.5 -9.5 -30.5 -28t-35 -54.5l-63 -114l115 -273h-61l-103 253h-88l-36 -253h-55l36 253h-87l-175 -253h-64l195 278l-60 140q-15 35 -27.5 48t-40.5 24l18 44q39 -13 58.5 -31.5t36.5 -56.5l64 -147h88l32 224h55l-32 -224h87l69 124q30 53 56 74.5
t72 36.5l18 -45q-27 -10 -42.5 -19.5z" />
    <glyph glyph-name="uni0437" unicode="&#x437;" horiz-adv-x="474" 
d="M365 499.5q44 -34.5 44 -91.5q0 -46 -29.5 -82t-97.5 -48q56 -7 88 -37.5t32 -82.5q0 -43 -22.5 -81.5t-71.5 -63t-122 -24.5q-112 0 -184 67l34 36q31 -26 67 -40t83 -14q81 0 118 35t37 86q0 92 -139 92h-63l11 47h51q72 0 110 30t38 79q0 38 -27.5 59t-76.5 21
q-42 0 -75 -11.5t-74 -35.5l-27 38q43 28 87 42t96 14q69 0 113 -34.5z" />
    <glyph glyph-name="uni0438" unicode="&#x438;" horiz-adv-x="577" 
d="M385 0l14 133q-36 -67 -84.5 -105.5t-108.5 -38.5q-59 0 -91.5 33t-32.5 94q0 11 2 35l53 372h57l-52 -370q-2 -24 -2 -34q0 -43 19.5 -62.5t57.5 -19.5q102 0 188 166l44 320h58l-74 -523h-48z" />
    <glyph glyph-name="uni0439" unicode="&#x439;" horiz-adv-x="577" 
d="M385 0l14 133q-36 -67 -84.5 -105.5t-108.5 -38.5q-59 0 -91.5 33t-32.5 94q0 11 2 35l53 372h57l-52 -370q-2 -24 -2 -34q0 -43 19.5 -62.5t57.5 -19.5q102 0 188 166l44 320h58l-74 -523h-48zM264 679q-32 26 -35 69l40 5q6 -28 25.5 -40.5t54.5 -12.5q75 0 100 56
l38 -12q-12 -43 -49.5 -67t-89.5 -24t-84 26z" />
    <glyph glyph-name="uni045D" unicode="&#x45d;" horiz-adv-x="577" 
d="M385 0l14 133q-36 -67 -84.5 -105.5t-108.5 -38.5q-59 0 -91.5 33t-32.5 94q0 11 2 35l53 372h57l-52 -370q-2 -24 -2 -34q0 -43 19.5 -62.5t57.5 -19.5q102 0 188 166l44 320h58l-74 -523h-48zM440 645l-183 85l33 52l172 -104z" />
    <glyph glyph-name="uni043A" unicode="&#x43a;" horiz-adv-x="496" 
d="M427.5 458q-18.5 -18 -55.5 -71l-79 -111l144 -276h-63l-131 253h-81l-36 -253h-57l74 523h57l-32 -224h79l87 124q39 55 63 76t65 35l19 -45q-35 -13 -53.5 -31z" />
    <glyph glyph-name="uni045C" unicode="&#x45c;" horiz-adv-x="496" 
d="M427.5 458q-18.5 -18 -55.5 -71l-79 -111l144 -276h-63l-131 253h-81l-36 -253h-57l74 523h57l-32 -224h79l87 124q39 55 63 76t65 35l19 -45q-35 -13 -53.5 -31zM211 645l-14 34l201 103l19 -52z" />
    <glyph glyph-name="uni043B" unicode="&#x43b;" horiz-adv-x="566" 
d="M366 0l66 474h-203l-38 -177q-27 -126 -45.5 -182t-45.5 -83.5t-79 -41.5l-9 49q34 10 51.5 31t31 68.5t38.5 163.5l48 221h316l-74 -523h-57z" />
    <glyph glyph-name="uni043C" unicode="&#x43c;" horiz-adv-x="656" 
d="M495 0l18 307q3 66 13 158l-201 -400h-56l-85 401q-12 -77 -29 -163l-68 -303h-56l120 523h72l82 -399l199 399h75l-28 -523h-56z" />
    <glyph glyph-name="uni043D" unicode="&#x43d;" horiz-adv-x="585" 
d="M161 246l-35 -246h-57l74 523h57l-32 -228h259l32 228h58l-74 -523h-58l35 246h-259z" />
    <glyph glyph-name="uni043E" unicode="&#x43e;" horiz-adv-x="569" 
d="M460.5 479q49.5 -55 49.5 -155q0 -74 -26 -151t-84.5 -130.5t-150.5 -53.5q-91 0 -140.5 56t-49.5 156q0 75 26.5 151.5t85 129t150.5 52.5q90 0 139.5 -55zM202 439.5q-45 -46.5 -64 -113.5t-19 -130q0 -78 33.5 -118t97.5 -40q71 0 115.5 46t64 113t19.5 131
q0 78 -33.5 118t-96.5 40q-72 0 -117 -46.5z" />
    <glyph glyph-name="uni043F" unicode="&#x43f;" horiz-adv-x="582" 
d="M193 474l-67 -474h-57l74 523h371l-74 -523h-58l67 474h-256z" />
    <glyph glyph-name="uni0440" unicode="&#x440;" horiz-adv-x="578" 
d="M472 483q41 -51 41 -147q0 -80 -26.5 -159.5t-87 -133.5t-155.5 -54q-60 0 -117 20l-28 -208l-59 -8l103 730h49l-6 -72q39 42 80.5 62.5t88.5 20.5q76 0 117 -51zM258.5 463.5q-37.5 -22.5 -76.5 -65.5l-47 -340q27 -11 52 -16t59 -5q73 0 120 48t67.5 117.5t20.5 137.5
q0 146 -112 146q-46 0 -83.5 -22.5z" />
    <glyph glyph-name="uni0441" unicode="&#x441;" horiz-adv-x="467" 
d="M461 480l-33 -36q-22 21 -47.5 31t-59.5 10q-71 0 -116 -45t-65 -111t-20 -132q0 -78 35 -117.5t96 -39.5q36 0 66.5 11t62.5 33l25 -41q-71 -54 -155 -54q-90 0 -140 55t-50 156q0 76 27 153t85.5 129t147.5 52q86 0 141 -54z" />
    <glyph glyph-name="uni0442" unicode="&#x442;" horiz-adv-x="849" 
d="M737.5 501q29.5 -33 29.5 -92q0 -20 -4 -37l-52 -372h-58l52 367q3 14 3 36q0 82 -68 82q-47 0 -90.5 -45.5t-86.5 -124.5l-45 -315h-57l52 367q3 21 3 36q0 82 -69 82q-47 0 -90.5 -46t-86.5 -126l-44 -313h-57l74 523h48l-13 -129q82 140 185 140q51 0 81 -34t29 -95
q83 129 183 129q52 0 81.5 -33z" />
    <glyph glyph-name="uni0443" unicode="&#x443;" horiz-adv-x="465" 
d="M142 -140q-53 -46 -147 -64l-3 45q53 13 85.5 32.5t54.5 48t48 79.5l-21 -1l-107 523h61l90 -479l223 479h61l-249 -527q-43 -90 -96 -136z" />
    <glyph glyph-name="uni045E" unicode="&#x45e;" horiz-adv-x="465" 
d="M142 -140q-53 -46 -147 -64l-3 45q53 13 85.5 32.5t54.5 48t48 79.5l-21 -1l-107 523h61l90 -479l223 479h61l-249 -527q-43 -90 -96 -136zM202 679q-32 26 -35 69l40 5q6 -28 25.5 -40.5t54.5 -12.5q75 0 100 56l38 -12q-12 -43 -49.5 -67t-89.5 -24t-84 26z" />
    <glyph glyph-name="uni0444" unicode="&#x444;" horiz-adv-x="799" 
d="M455 464q31 35 66.5 52.5t71.5 17.5q144 0 144 -176q0 -82 -20.5 -166.5t-68 -143.5t-123.5 -59q-44 0 -74 19t-52 56l-37 -262l-58 -9l37 266q-59 -70 -138 -70q-68 0 -103 52t-35 144q0 79 19.5 158.5t67 135t124.5 55.5q83 0 122 -74l40 283l55 -7zM190 437.5
q-35 -48.5 -50 -117.5t-15 -136q0 -147 90 -147q72 0 136 81l40 291q-20 38 -46.5 57.5t-62.5 19.5q-57 0 -92 -48.5zM446 404l-40 -291q21 -38 47.5 -57t62.5 -19q58 0 94 53.5t51 127t15 138.5q0 130 -92 130q-75 0 -138 -82z" />
    <glyph glyph-name="uni0445" unicode="&#x445;" horiz-adv-x="456" 
d="M408 0h-65l-118 242l-186 -242h-66l223 281l-125 242h64l100 -208l159 208h66l-195 -247z" />
    <glyph glyph-name="uni0447" unicode="&#x447;" horiz-adv-x="538" 
d="M338 0l36 253q-73 -79 -173 -79q-62 0 -98 32.5t-36 92.5q0 9 2 31l28 193h58l-28 -190q-2 -20 -2 -28q0 -82 90 -84q46 0 90.5 25.5t76.5 69.5l30 207h57l-74 -523h-57z" />
    <glyph glyph-name="uni0446" unicode="&#x446;" horiz-adv-x="580" 
d="M481 -145h-45l7 145h-31h-27l14 133q-36 -67 -84.5 -105.5t-108.5 -38.5q-59 0 -91.5 33t-32.5 94q0 11 2 35l53 372h57l-52 -370q-2 -24 -2 -34q0 -43 19.5 -62.5t57.5 -19.5q102 0 188 166l44 320h58l-67 -474h68z" />
    <glyph glyph-name="uni0448" unicode="&#x448;" horiz-adv-x="849" 
d="M706 0h-49l13 130q-83 -141 -185 -141q-51 0 -81 34t-29 96q-81 -130 -183 -130q-51 0 -80.5 33.5t-29.5 92.5q0 18 3 37l52 371h58l-52 -367q-2 -13 -2 -36q0 -82 68 -82q47 0 90 45t87 125l45 315h57l-52 -367q-2 -13 -2 -36q0 -82 68 -82q47 0 90 45.5t87 127.5
l44 312h57z" />
    <glyph glyph-name="uni0449" unicode="&#x449;" horiz-adv-x="852" 
d="M754 -145h-45l7 145h-59l13 130q-83 -141 -185 -141q-51 0 -81 34t-29 96q-81 -130 -183 -130q-51 0 -80.5 33.5t-29.5 92.5q0 18 3 37l52 371h58l-52 -367q-2 -13 -2 -36q0 -82 68 -82q47 0 90 45t87 125l45 315h57l-52 -367q-2 -13 -2 -36q0 -82 68 -82q47 0 90 45.5
t87 127.5l44 312h57l-67 -474h68z" />
    <glyph glyph-name="uni045F" unicode="&#x45f;" horiz-adv-x="577" 
d="M433 0h-48l14 133q-32 -59 -74 -96.5t-92 -45.5l-19 -136h-44l8 136q-46 8 -71 40t-25 85q0 11 2 35l53 372h57l-52 -370q-2 -24 -2 -34q0 -43 19.5 -62.5t57.5 -19.5q102 0 188 166l44 320h58z" />
    <glyph glyph-name="uni044F" unicode="&#x44f;" horiz-adv-x="538" 
d="M467 516l-71 -516h-58l31 216h-137l-150 -216h-68l164 231q-43 15 -66 48.5t-23 75.5q0 76 53 127.5t175 51.5q65 0 150 -18zM186.5 449q-37.5 -38 -37.5 -93q0 -44 28.5 -69t80.5 -25h118l31 216q-49 9 -92 9q-91 0 -128.5 -38z" />
    <glyph glyph-name="uni044C" unicode="&#x44c;" horiz-adv-x="500" 
d="M407 306.5q46 -40.5 46 -108.5q0 -53 -23.5 -100.5t-74.5 -78t-128 -30.5t-156 27l72 507h57l-25 -176h91q95 0 141 -40.5zM353 84.5q40 47.5 40 114.5q0 47 -31.5 74t-99.5 27h-94l-35 -249q50 -14 92 -14q88 0 128 47.5z" />
    <glyph glyph-name="uni044A" unicode="&#x44a;" horiz-adv-x="547" 
d="M455 306.5q46 -40.5 46 -108.5q0 -53 -23.5 -100.5t-75 -78t-128.5 -30.5q-75 0 -156 27l65 460h-150l7 47h208l-25 -176h90q96 0 142 -40.5zM400.5 85q40.5 48 40.5 114q0 47 -31.5 74t-99.5 27h-94l-35 -249q50 -14 92 -14q87 0 127.5 48z" />
    <glyph glyph-name="uni044B" unicode="&#x44b;" horiz-adv-x="711" 
d="M398 306.5q45 -40.5 45 -108.5q0 -53 -23 -100.5t-73 -78t-125 -30.5q-72 0 -151 27l72 507h57l-25 -176h86q92 0 137 -40.5zM508 0l77 523h57l-74 -523h-60zM344 85q39 48 39 114q0 101 -126 101h-89l-35 -249q50 -14 87 -14q85 0 124 48z" />
    <glyph glyph-name="uni0459" unicode="&#x459;" horiz-adv-x="777" 
d="M548 347q92 0 137 -40.5t45 -108.5q0 -53 -23 -100.5t-73 -78t-125 -30.5q-72 0 -151 27l64 458h-193l-38 -177q-27 -126 -45.5 -182t-45.5 -83.5t-79 -41.5l-9 49q34 10 51.5 31t31 68.5t38.5 163.5l48 221h306l-25 -176h86zM420 51q50 -14 87 -14q85 0 124 48t39 114
q0 101 -126 101h-89z" />
    <glyph glyph-name="uni045A" unicode="&#x45a;" horiz-adv-x="800" 
d="M706 287.5q46 -38.5 46 -105.5q0 -47 -23.5 -91t-73 -73t-123.5 -29q-71 0 -152 27l38 262h-253l-39 -278h-57l74 523h57l-28 -198h252l28 198h58l-28 -197h85q93 0 139 -38.5zM653 80.5q39 43.5 39 101.5q0 48 -30 72.5t-98 24.5h-89l-32 -228q50 -14 87 -14
q84 0 123 43.5z" />
    <glyph glyph-name="uni0455" unicode="&#x455;" horiz-adv-x="461" 
d="M421 475l-32 -38q-55 49 -127 49q-58 0 -92 -24t-34 -65q0 -34 25 -55.5t89 -40.5q78 -24 112.5 -59.5t34.5 -94.5q0 -71 -55 -114.5t-148 -43.5q-61 0 -105.5 19t-79.5 52l36 37q62 -59 149 -59q68 0 105.5 29t37.5 77q0 41 -25.5 65t-94.5 46q-77 25 -108.5 57.5
t-31.5 82.5q0 37 22.5 69t64.5 51t98 19q91 0 159 -59z" />
    <glyph glyph-name="uni0454" unicode="&#x454;" horiz-adv-x="475" 
d="M398 521q35 -13 68 -41l-33 -37q-25 23 -52 33t-60 10q-70 0 -121.5 -50.5t-70.5 -143.5h242l-7 -46h-242q-2 -26 -2 -41q0 -73 31 -119.5t101 -47.5q35 0 65 11t65 35l25 -41q-70 -54 -156 -54q-89 0 -140 56.5t-51 158.5q0 32 4 60q12 82 47.5 143.5t89.5 94t119 32.5
q43 0 78 -13z" />
    <glyph glyph-name="uni044D" unicode="&#x44d;" horiz-adv-x="471" 
d="M366 481q47 -53 47 -147q0 -34 -6 -73q-17 -130 -79.5 -201t-162.5 -71q-50 0 -88 16t-70 44l33 36q27 -23 55.5 -35t67.5 -12q72 0 118 52.5t64 156.5h-233l7 46h232q3 24 3 44q0 73 -31 111t-90 38q-38 0 -70.5 -11t-67.5 -34l-25 38q79 55 165 55q84 0 131 -53z" />
    <glyph glyph-name="uni0456" unicode="&#x456;" horiz-adv-x="269" 
d="M230 742.5q11 -10.5 11 -27.5q0 -20 -12.5 -32.5t-33.5 -12.5q-18 0 -29 10.5t-11 27.5q0 20 13 32.5t33 12.5q18 0 29 -10.5zM69 0l74 523h58l-74 -523h-58z" />
    <glyph glyph-name="uni0457" unicode="&#x457;" horiz-adv-x="269" 
d="M69 0l74 523h58l-74 -523h-58zM124.5 731.5q10.5 -10.5 10.5 -25.5q0 -18 -12 -30.5t-30 -12.5q-17 0 -27 10.5t-10 25.5q0 18 12 30.5t30 12.5q16 0 26.5 -10.5zM313 731.5q10 -10.5 10 -25.5q0 -18 -12 -30.5t-30 -12.5q-16 0 -26.5 10.5t-10.5 25.5q0 18 12 30.5
t30 12.5q17 0 27 -10.5z" />
    <glyph glyph-name="uni0458" unicode="&#x458;" horiz-adv-x="267" 
d="M228 742.5q11 -10.5 11 -27.5q0 -20 -12.5 -32.5t-33.5 -12.5q-18 0 -29 10.5t-11 27.5q0 20 13 32.5t33 12.5q18 0 29 -10.5zM98 -91q-20 -40 -51.5 -64t-87.5 -49l-17 44q41 19 65 38t39.5 52t23.5 89l71 504h58l-72 -506q-9 -68 -29 -108z" />
    <glyph glyph-name="uni045B" unicode="&#x45b;" horiz-adv-x="587" 
d="M474.5 501.5q31.5 -32.5 31.5 -92.5q0 -17 -3 -37l-53 -372h-57l52 368q2 12 2 34q0 44 -20.5 63.5t-60.5 19.5q-97 0 -190 -172l-43 -313h-58l87 616h-75l7 47h75l10 73l58 7l-11 -80h170l-14 -47h-163l-31 -221q37 66 88 102.5t107 36.5q60 0 91.5 -32.5z" />
    <glyph glyph-name="uni044E" unicode="&#x44e;" horiz-adv-x="760" 
d="M654.5 478.5q47.5 -55.5 47.5 -154.5q0 -73 -25.5 -150.5t-81.5 -131t-142 -53.5q-93 0 -136 62t-43 164q0 21 1 31h-114l-35 -246h-57l74 523h57l-32 -229h114q21 101 81 170.5t160 69.5q84 0 131.5 -55.5zM411.5 439.5q-42.5 -46.5 -61 -112.5t-18.5 -127
q0 -81 31.5 -121.5t90.5 -40.5q65 0 107.5 46.5t61 113t18.5 130.5q0 78 -31 118t-89 40q-67 0 -109.5 -46.5z" />
    <glyph glyph-name="uni0452" unicode="&#x452;" horiz-adv-x="590" 
d="M473.5 501.5q31.5 -32.5 31.5 -92.5q0 -17 -3 -37l-50 -355q-9 -68 -29 -108t-51.5 -64t-87.5 -49l-16 45q41 19 64.5 37.5t38.5 50t23 86.5l50 352q3 21 3 36q0 44 -20.5 63t-60.5 19q-97 0 -190 -172l-44 -313h-57l87 616h-75l7 47h75l10 73l58 7l-11 -80h170l-14 -47
h-163l-31 -221q37 65 88 102t107 37q59 0 90.5 -32.5z" />
    <glyph glyph-name="uni0463" unicode="&#x463;" horiz-adv-x="508" 
d="M415.5 307q45.5 -40 45.5 -109q0 -53 -23.5 -100.5t-74.5 -78t-128 -30.5q-75 0 -156 27l66 458h-78l6 46h78l17 116l57 7l-17 -123h141l-14 -46h-134l-17 -127h90q96 0 141.5 -40zM361 84.5q40 47.5 40 114.5q0 101 -131 101h-93l-35 -249q50 -14 91 -14q88 0 128 47.5z
" />
    <glyph glyph-name="uni0473" unicode="&#x473;" horiz-adv-x="569" 
d="M460.5 479q49.5 -55 49.5 -155q0 -74 -26 -151t-84.5 -130.5t-150.5 -53.5q-91 0 -140.5 56t-49.5 156q0 75 26.5 151.5t85 129t150.5 52.5q90 0 139.5 -55zM193 429q-46 -57 -63 -140h317q2 17 2 39q0 78 -33.5 118t-96.5 40q-80 0 -126 -57zM377.5 97q46.5 59 63.5 145
h-319q-3 -24 -3 -46q0 -78 33.5 -118t97.5 -40q81 0 127.5 59z" />
    <glyph glyph-name="uni0475" unicode="&#x475;" horiz-adv-x="467" 
d="M465.5 468q-16.5 -28 -38.5 -73l-187 -395h-75l-113 523h62l94 -470l170 365q21 47 34.5 71.5t28.5 40.5l60 -11q-19 -23 -35.5 -51z" />
    <glyph glyph-name="uni0493" unicode="&#x493;" horiz-adv-x="468" 
d="M377 95l30 -39q-88 -67 -201 -67q-74 0 -122 36.5t-48 99.5q0 44 25 79t88 61l-97 26l8 44l141 -46q72 19 107 38.5t45.5 38.5t10.5 46q0 34 -26.5 54t-69.5 20q-38 0 -72 -12t-71 -38l-28 39q83 59 174 59q68 0 110.5 -34t42.5 -88q0 -48 -30 -84.5t-114 -61.5l112 -31
l-7 -46l-165 54q-75 -24 -98.5 -52t-23.5 -66q0 -40 30.5 -63t79.5 -23q91 0 169 56z" />
    <glyph glyph-name="uni0497" unicode="&#x497;" horiz-adv-x="700" 
d="M676 49l-27 -194h-45l7 145h-41l-103 253h-88l-36 -253h-55l36 253h-87l-175 -253h-64l195 278l-60 140q-15 35 -27.5 48t-40.5 24l18 44q39 -13 58.5 -31.5t36.5 -56.5l64 -147h88l32 224h55l-32 -224h87l69 124q30 53 56 74.5t72 36.5l18 -45q-27 -10 -42.5 -19.5
t-30.5 -28t-35 -54.5l-63 -114l94 -224h66z" />
    <glyph glyph-name="uni0499" unicode="&#x499;" horiz-adv-x="474" 
d="M370 240.5q32 -30.5 32 -82.5q0 -41 -20.5 -78t-63.5 -61.5t-109 -28.5q56 -41 56 -102q0 -52 -33.5 -84.5t-90.5 -32.5q-43 0 -83 22l20 37q30 -16 62 -16q34 0 54.5 22t20.5 58q0 55 -59 96q-91 8 -154 66l34 36q31 -26 67 -40t83 -14q81 0 118 35t37 86q0 92 -139 92
h-63l11 47h51q72 0 110 30t38 79q0 38 -27.5 59t-76.5 21q-42 0 -75 -11.5t-74 -35.5l-27 38q43 28 87 42t96 14q69 0 113 -34.5t44 -91.5q0 -46 -29.5 -82t-97.5 -48q56 -7 88 -37.5z" />
    <glyph glyph-name="uni049B" unicode="&#x49b;" horiz-adv-x="496" 
d="M462 -145h-46l8 145h-50l-131 253h-81l-36 -253h-57l74 523h57l-32 -224h79l87 124q39 55 63 76t65 35l19 -45q-35 -13 -53.5 -31t-55.5 -71l-79 -111l118 -227h78z" />
    <glyph glyph-name="uni049D" unicode="&#x49d;" horiz-adv-x="518" 
d="M383 0l-120 253h-26l-18 -131h-35l18 131h-40l-36 -253h-57l74 523h57l-32 -224h41l16 119h35l-16 -119h23l76 124q33 53 58.5 74.5t69.5 36.5l19 -45q-38 -14 -58.5 -32.5t-50.5 -69.5l-68 -111l133 -276h-63z" />
    <glyph glyph-name="uni04A1" unicode="&#x4a1;" horiz-adv-x="543" 
d="M484 0h-62l-131 253h-81l-37 -253h-57l67 476h-150l7 47h208l-32 -223h78l88 124q39 55 63 76t65 34l18 -45q-34 -13 -52 -30.5t-56 -71.5l-79 -111z" />
    <glyph glyph-name="uni04A3" unicode="&#x4a3;" horiz-adv-x="585" 
d="M491 -145h-45l7 145h-68l35 246h-259l-35 -246h-57l74 523h57l-32 -228h259l32 228h58l-67 -474h69z" />
    <glyph glyph-name="uni0525" unicode="&#x525;" horiz-adv-x="582" 
d="M488 -145h-45l7 145h-68l67 474h-256l-67 -474h-57l74 523h371l-67 -474h68z" />
    <glyph glyph-name="uni04AB" unicode="&#x4ab;" horiz-adv-x="467" 
d="M205 440q-45 -45 -65 -111t-20 -132q0 -78 35 -117.5t96 -39.5q36 0 66.5 11t62.5 33l25 -41q-67 -50 -142 -54q56 -40 56 -101q0 -52 -33.5 -84.5t-90.5 -32.5q-43 0 -83 22l20 37q30 -16 62 -16q34 0 54.5 22t20.5 58q0 30 -15.5 53.5t-46.5 45.5q-70 12 -108.5 65.5
t-38.5 141.5q0 76 27 153t85.5 129t147.5 52q86 0 141 -54l-33 -36q-22 21 -47.5 31t-59.5 10q-71 0 -116 -45z" />
    <glyph glyph-name="uni04AD" unicode="&#x4ad;" horiz-adv-x="878" 
d="M759 -145h-45l7 145h-10h-58l52 367q3 14 3 36q0 82 -68 82q-47 0 -90.5 -45.5t-86.5 -124.5l-45 -315h-57l52 367q3 21 3 36q0 82 -69 82q-47 0 -90.5 -46t-86.5 -126l-44 -313h-57l74 523h48l-13 -129q82 140 185 140q51 0 81 -34t29 -95q83 129 183 129q52 0 81.5 -33
t29.5 -92q0 -20 -4 -37l-45 -323h68z" />
    <glyph glyph-name="uni04AF" unicode="&#x4af;" horiz-adv-x="467" 
d="M200 -197l-58 -8l32 222l-122 506h62l95 -448l219 448h61l-259 -506z" />
    <glyph glyph-name="uni04B1" unicode="&#x4b1;" horiz-adv-x="467" 
d="M333 4h-105l-28 -201l-58 -8l30 209h-105l7 46h95l-117 473h62l96 -439l218 439h61l-245 -473h96z" />
    <glyph glyph-name="uni04B3" unicode="&#x4b3;" horiz-adv-x="456" 
d="M449 49l-27 -194h-45l7 145h-41l-118 242l-186 -242h-66l223 281l-125 242h64l100 -208l159 208h66l-195 -247l118 -227h66z" />
    <glyph glyph-name="uni04B7" unicode="&#x4b7;" horiz-adv-x="538" 
d="M444 -145h-45l7 145h-68l36 253q-73 -79 -173 -79q-62 0 -98 32.5t-36 92.5q0 9 2 31l28 193h58l-28 -190q-2 -20 -2 -28q0 -82 90 -84q46 0 90.5 25.5t76.5 69.5l30 207h57l-67 -474h69z" />
    <glyph glyph-name="uni04B9" unicode="&#x4b9;" horiz-adv-x="538" 
d="M395 0h-57l36 253q-57 -61 -129 -75l-12 -85h-40l11 81h-3q-62 0 -98 32.5t-36 92.5q0 9 2 31l28 193h58l-28 -190q-2 -20 -2 -28q0 -81 86 -84l22 161h40l-22 -157q37 8 71 32t60 59l30 207h57z" />
    <glyph glyph-name="uni04BB" unicode="&#x4bb;" horiz-adv-x="571" 
d="M459.5 441.5q31.5 -32.5 31.5 -92.5q0 -17 -3 -37l-44 -312h-58l44 307q3 21 3 36q0 44 -20.5 63t-61.5 19q-52 0 -99.5 -46.5t-89.5 -125.5l-36 -253h-57l104 736l58 7l-58 -408q37 65 88 102t107 37q60 0 91.5 -32.5z" />
    <glyph glyph-name="uni0527" unicode="&#x527;" horiz-adv-x="571" 
d="M490 -145h-45l7 145h-66l44 307q3 21 3 36q0 44 -20.5 63t-61.5 19q-52 0 -99.5 -46.5t-89.5 -125.5l-36 -253h-57l104 736l58 7l-58 -408q37 65 88 102t107 37q60 0 91.5 -32.5t31.5 -92.5q0 -17 -3 -37l-37 -263h66z" />
    <glyph glyph-name="uni04CF" unicode="&#x4cf;" horiz-adv-x="281" 
d="M132 73q0 -18 8 -26.5t26 -8.5q17 0 38 8l13 -43q-31 -14 -61 -14q-39 0 -60 20.5t-21 61.5q0 8 2 26l90 639l58 7l-92 -655q-1 -5 -1 -15z" />
    <glyph glyph-name="uni04C2" unicode="&#x4c2;" horiz-adv-x="700" 
d="M644.5 469.5q-15.5 -9.5 -30.5 -28t-35 -54.5l-63 -114l115 -273h-61l-103 253h-88l-36 -253h-55l36 253h-87l-175 -253h-64l195 278l-60 140q-15 35 -27.5 48t-40.5 24l18 44q39 -13 58.5 -31.5t36.5 -56.5l64 -147h88l32 224h55l-32 -224h87l69 124q30 53 56 74.5
t72 36.5l18 -45q-27 -10 -42.5 -19.5zM326 679q-32 26 -35 69l40 5q6 -28 25.5 -40.5t54.5 -12.5q75 0 100 56l38 -12q-12 -43 -49.5 -67t-89.5 -24t-84 26z" />
    <glyph glyph-name="uni04CC" unicode="&#x4cc;" horiz-adv-x="538" 
d="M395 0h-57l36 253q-73 -79 -173 -79q-62 0 -98 32.5t-36 92.5q0 9 2 31l28 193h58l-28 -190q-2 -20 -2 -28q0 -82 90 -84q46 0 90.5 25.5t76.5 69.5l30 207h57zM310 -60l-8 -17v14l-12 -4l-10 101l22 -44v26l29 -68z" />
    <glyph glyph-name="uni04D1" unicode="&#x4d1;" 
d="M414.5 523.5q38.5 -10.5 82.5 -32.5l-57 -377q-2 -24 -2 -31q0 -23 8 -34.5t25 -18.5l-17 -41q-35 7 -52.5 28.5t-17.5 66.5q-30 -44 -71.5 -69.5t-89.5 -25.5q-78 0 -121.5 54t-43.5 149q0 78 28 157t88.5 132t152.5 53q49 0 87.5 -10.5zM210 441q-47 -46 -69 -114
t-22 -135q0 -76 29.5 -115.5t84.5 -39.5q46 0 83.5 28.5t72.5 82.5l47 315q-50 24 -107 24q-72 0 -119 -46zM269 679q-32 26 -35 69l40 5q6 -28 25.5 -40.5t54.5 -12.5q75 0 100 56l38 -12q-12 -43 -49.5 -67t-89.5 -24t-84 26z" />
    <glyph glyph-name="uni04D3" unicode="&#x4d3;" 
d="M414.5 523.5q38.5 -10.5 82.5 -32.5l-57 -377q-2 -24 -2 -31q0 -23 8 -34.5t25 -18.5l-17 -41q-35 7 -52.5 28.5t-17.5 66.5q-30 -44 -71.5 -69.5t-89.5 -25.5q-78 0 -121.5 54t-43.5 149q0 78 28 157t88.5 132t152.5 53q49 0 87.5 -10.5zM210 441q-47 -46 -69 -114
t-22 -135q0 -76 29.5 -115.5t84.5 -39.5q46 0 83.5 28.5t72.5 82.5l47 315q-50 24 -107 24q-72 0 -119 -46zM285.5 731.5q10.5 -10.5 10.5 -25.5q0 -18 -12 -30.5t-30 -12.5q-17 0 -27 10.5t-10 25.5q0 18 12 30.5t30 12.5q16 0 26.5 -10.5zM474 731.5q10 -10.5 10 -25.5
q0 -18 -12 -30.5t-30 -12.5q-16 0 -26.5 10.5t-10.5 25.5q0 18 12 30.5t30 12.5q17 0 27 -10.5z" />
    <glyph glyph-name="uni04D7" unicode="&#x4d7;" horiz-adv-x="520" 
d="M386.5 266q-94.5 -47 -266.5 -60l-1 -6q0 -82 36 -121.5t98 -39.5q41 0 75.5 13t72.5 40l26 -41q-42 -31 -85.5 -46.5t-92.5 -15.5q-90 0 -140 55t-50 155q0 79 28 156t87.5 128t147.5 51q74 0 116.5 -35.5t42.5 -90.5q0 -95 -94.5 -142zM183.5 416.5
q-49.5 -69.5 -60.5 -165.5q150 12 224 49t74 106q0 34 -25 57t-75 23q-88 0 -137.5 -69.5zM249 679q-32 26 -35 69l40 5q6 -28 25.5 -40.5t54.5 -12.5q75 0 100 56l38 -12q-12 -43 -49.5 -67t-89.5 -24t-84 26z" />
    <glyph glyph-name="uni04D9" unicode="&#x4d9;" horiz-adv-x="520" 
d="M411 479q50 -55 50 -156q0 -79 -28.5 -155.5t-87.5 -127.5t-147 -51q-74 0 -116.5 35.5t-42.5 90.5q0 95 94.5 142t266.5 60l1 6q0 83 -35.5 122t-98.5 39q-40 0 -74 -12.5t-74 -39.5l-26 40q42 31 85 46.5t93 15.5q90 0 140 -55zM336 106q50 70 61 166
q-150 -12 -224 -49t-74 -106q0 -34 25 -57.5t74 -23.5q88 0 138 70z" />
    <glyph glyph-name="uni04DB" unicode="&#x4db;" horiz-adv-x="520" 
d="M411 479q50 -55 50 -156q0 -79 -28.5 -155.5t-87.5 -127.5t-147 -51q-74 0 -116.5 35.5t-42.5 90.5q0 95 94.5 142t266.5 60l1 6q0 83 -35.5 122t-98.5 39q-40 0 -74 -12.5t-74 -39.5l-26 40q42 31 85 46.5t93 15.5q90 0 140 -55zM336 106q50 70 61 166
q-150 -12 -224 -49t-74 -106q0 -34 25 -57.5t74 -23.5q88 0 138 70zM246.5 731.5q10.5 -10.5 10.5 -25.5q0 -18 -12 -30.5t-30 -12.5q-17 0 -27 10.5t-10 25.5q0 18 12 30.5t30 12.5q16 0 26.5 -10.5zM435 731.5q10 -10.5 10 -25.5q0 -18 -12 -30.5t-30 -12.5
q-16 0 -26.5 10.5t-10.5 25.5q0 18 12 30.5t30 12.5q17 0 27 -10.5z" />
    <glyph glyph-name="uni04DD" unicode="&#x4dd;" horiz-adv-x="700" 
d="M644.5 469.5q-15.5 -9.5 -30.5 -28t-35 -54.5l-63 -114l115 -273h-61l-103 253h-88l-36 -253h-55l36 253h-87l-175 -253h-64l195 278l-60 140q-15 35 -27.5 48t-40.5 24l18 44q39 -13 58.5 -31.5t36.5 -56.5l64 -147h88l32 224h55l-32 -224h87l69 124q30 53 56 74.5
t72 36.5l18 -45q-27 -10 -42.5 -19.5zM341.5 731.5q10.5 -10.5 10.5 -25.5q0 -18 -12 -30.5t-30 -12.5q-17 0 -27 10.5t-10 25.5q0 18 12 30.5t30 12.5q16 0 26.5 -10.5zM530 731.5q10 -10.5 10 -25.5q0 -18 -12 -30.5t-30 -12.5q-16 0 -26.5 10.5t-10.5 25.5q0 18 12 30.5
t30 12.5q17 0 27 -10.5z" />
    <glyph glyph-name="uni04DF" unicode="&#x4df;" horiz-adv-x="474" 
d="M365 499.5q44 -34.5 44 -91.5q0 -46 -29.5 -82t-97.5 -48q56 -7 88 -37.5t32 -82.5q0 -43 -22.5 -81.5t-71.5 -63t-122 -24.5q-112 0 -184 67l34 36q31 -26 67 -40t83 -14q81 0 118 35t37 86q0 92 -139 92h-63l11 47h51q72 0 110 30t38 79q0 38 -27.5 59t-76.5 21
q-42 0 -75 -11.5t-74 -35.5l-27 38q43 28 87 42t96 14q69 0 113 -34.5zM207.5 731.5q10.5 -10.5 10.5 -25.5q0 -18 -12 -30.5t-30 -12.5q-17 0 -27 10.5t-10 25.5q0 18 12 30.5t30 12.5q16 0 26.5 -10.5zM396 731.5q10 -10.5 10 -25.5q0 -18 -12 -30.5t-30 -12.5
q-16 0 -26.5 10.5t-10.5 25.5q0 18 12 30.5t30 12.5q17 0 27 -10.5z" />
    <glyph glyph-name="uni04E3" unicode="&#x4e3;" horiz-adv-x="577" 
d="M385 0l14 133q-36 -67 -84.5 -105.5t-108.5 -38.5q-59 0 -91.5 33t-32.5 94q0 11 2 35l53 372h57l-52 -370q-2 -24 -2 -34q0 -43 19.5 -62.5t57.5 -19.5q102 0 188 166l44 320h58l-74 -523h-48zM235 723h240l-7 -47h-240z" />
    <glyph glyph-name="uni04E5" unicode="&#x4e5;" horiz-adv-x="577" 
d="M385 0l14 133q-36 -67 -84.5 -105.5t-108.5 -38.5q-59 0 -91.5 33t-32.5 94q0 11 2 35l53 372h57l-52 -370q-2 -24 -2 -34q0 -43 19.5 -62.5t57.5 -19.5q102 0 188 166l44 320h58l-74 -523h-48zM280.5 731.5q10.5 -10.5 10.5 -25.5q0 -18 -12 -30.5t-30 -12.5
q-17 0 -27 10.5t-10 25.5q0 18 12 30.5t30 12.5q16 0 26.5 -10.5zM469 731.5q10 -10.5 10 -25.5q0 -18 -12 -30.5t-30 -12.5q-16 0 -26.5 10.5t-10.5 25.5q0 18 12 30.5t30 12.5q17 0 27 -10.5z" />
    <glyph glyph-name="uni04E7" unicode="&#x4e7;" horiz-adv-x="569" 
d="M460.5 479q49.5 -55 49.5 -155q0 -74 -26 -151t-84.5 -130.5t-150.5 -53.5q-91 0 -140.5 56t-49.5 156q0 75 26.5 151.5t85 129t150.5 52.5q90 0 139.5 -55zM202 439.5q-45 -46.5 -64 -113.5t-19 -130q0 -78 33.5 -118t97.5 -40q71 0 115.5 46t64 113t19.5 131
q0 78 -33.5 118t-96.5 40q-72 0 -117 -46.5zM274.5 731.5q10.5 -10.5 10.5 -25.5q0 -18 -12 -30.5t-30 -12.5q-17 0 -27 10.5t-10 25.5q0 18 12 30.5t30 12.5q16 0 26.5 -10.5zM463 731.5q10 -10.5 10 -25.5q0 -18 -12 -30.5t-30 -12.5q-16 0 -26.5 10.5t-10.5 25.5
q0 18 12 30.5t30 12.5q17 0 27 -10.5z" />
    <glyph glyph-name="uni04E9" unicode="&#x4e9;" horiz-adv-x="569" 
d="M460.5 479q49.5 -55 49.5 -155q0 -74 -26 -151t-84.5 -130.5t-150.5 -53.5q-91 0 -140.5 56t-49.5 156q0 75 26.5 151.5t85 129t150.5 52.5q90 0 139.5 -55zM193 429q-46 -57 -63 -140h317q2 17 2 39q0 78 -33.5 118t-96.5 40q-80 0 -126 -57zM377.5 97q46.5 59 63.5 145
h-319q-3 -24 -3 -46q0 -78 33.5 -118t97.5 -40q81 0 127.5 59z" />
    <glyph glyph-name="uni04EB" unicode="&#x4eb;" horiz-adv-x="569" 
d="M460.5 479q49.5 -55 49.5 -155q0 -74 -26 -151t-84.5 -130.5t-150.5 -53.5q-91 0 -140.5 56t-49.5 156q0 75 26.5 151.5t85 129t150.5 52.5q90 0 139.5 -55zM193 429q-46 -57 -63 -140h317q2 17 2 39q0 78 -33.5 118t-96.5 40q-80 0 -126 -57zM377.5 97q46.5 59 63.5 145
h-319q-3 -24 -3 -46q0 -78 33.5 -118t97.5 -40q81 0 127.5 59zM274.5 731.5q10.5 -10.5 10.5 -25.5q0 -18 -12 -30.5t-30 -12.5q-17 0 -27 10.5t-10 25.5q0 18 12 30.5t30 12.5q16 0 26.5 -10.5zM463 731.5q10 -10.5 10 -25.5q0 -18 -12 -30.5t-30 -12.5q-16 0 -26.5 10.5
t-10.5 25.5q0 18 12 30.5t30 12.5q17 0 27 -10.5z" />
    <glyph glyph-name="uni04ED" unicode="&#x4ed;" horiz-adv-x="471" 
d="M366 481q47 -53 47 -147q0 -34 -6 -73q-17 -130 -79.5 -201t-162.5 -71q-50 0 -88 16t-70 44l33 36q27 -23 55.5 -35t67.5 -12q72 0 118 52.5t64 156.5h-233l7 46h232q3 24 3 44q0 73 -31 111t-90 38q-38 0 -70.5 -11t-67.5 -34l-25 38q79 55 165 55q84 0 131 -53z
M203.5 731.5q10.5 -10.5 10.5 -25.5q0 -18 -12 -30.5t-30 -12.5q-17 0 -27 10.5t-10 25.5q0 18 12 30.5t30 12.5q16 0 26.5 -10.5zM392 731.5q10 -10.5 10 -25.5q0 -18 -12 -30.5t-30 -12.5q-16 0 -26.5 10.5t-10.5 25.5q0 18 12 30.5t30 12.5q17 0 27 -10.5z" />
    <glyph glyph-name="uni04EF" unicode="&#x4ef;" horiz-adv-x="465" 
d="M142 -140q-53 -46 -147 -64l-3 45q53 13 85.5 32.5t54.5 48t48 79.5l-21 -1l-107 523h61l90 -479l223 479h61l-249 -527q-43 -90 -96 -136zM173 723h240l-7 -47h-240z" />
    <glyph glyph-name="uni04F1" unicode="&#x4f1;" horiz-adv-x="465" 
d="M142 -140q-53 -46 -147 -64l-3 45q53 13 85.5 32.5t54.5 48t48 79.5l-21 -1l-107 523h61l90 -479l223 479h61l-249 -527q-43 -90 -96 -136zM217.5 731.5q10.5 -10.5 10.5 -25.5q0 -18 -12 -30.5t-30 -12.5q-17 0 -27 10.5t-10 25.5q0 18 12 30.5t30 12.5q16 0 26.5 -10.5
zM406 731.5q10 -10.5 10 -25.5q0 -18 -12 -30.5t-30 -12.5q-16 0 -26.5 10.5t-10.5 25.5q0 18 12 30.5t30 12.5q17 0 27 -10.5z" />
    <glyph glyph-name="uni04F3" unicode="&#x4f3;" horiz-adv-x="465" 
d="M142 -140q-53 -46 -147 -64l-3 45q53 13 85.5 32.5t54.5 48t48 79.5l-21 -1l-107 523h61l90 -479l223 479h61l-249 -527q-43 -90 -96 -136zM356 642l-36 18l99 151l49 -27zM236 647l-36 17l90 147l49 -28z" />
    <glyph glyph-name="uni04F5" unicode="&#x4f5;" horiz-adv-x="538" 
d="M338 0l36 253q-73 -79 -173 -79q-62 0 -98 32.5t-36 92.5q0 9 2 31l28 193h58l-28 -190q-2 -20 -2 -28q0 -82 90 -84q46 0 90.5 25.5t76.5 69.5l30 207h57l-74 -523h-57zM235.5 731.5q10.5 -10.5 10.5 -25.5q0 -18 -12 -30.5t-30 -12.5q-17 0 -27 10.5t-10 25.5
q0 18 12 30.5t30 12.5q16 0 26.5 -10.5zM424 731.5q10 -10.5 10 -25.5q0 -18 -12 -30.5t-30 -12.5q-16 0 -26.5 10.5t-10.5 25.5q0 18 12 30.5t30 12.5q17 0 27 -10.5z" />
    <glyph glyph-name="uni04F7" unicode="&#x4f7;" horiz-adv-x="461" 
d="M219 -10l-18 -135h-44l8 136q-61 9 -98.5 44t-37.5 90q0 58 42.5 100.5t149.5 71.5q82 22 108.5 50t26.5 65q0 34 -26.5 54t-69.5 20q-38 0 -72 -12t-71 -38l-27 39q83 59 174 59q68 0 110 -34t42 -88q0 -53 -35 -93t-134 -66q-67 -18 -101 -38.5t-45 -41.5t-11 -48
q0 -40 30.5 -63t80.5 -23q91 0 168 56l30 -39q-79 -60 -180 -66z" />
    <glyph glyph-name="uni04F9" unicode="&#x4f9;" horiz-adv-x="711" 
d="M398 306.5q45 -40.5 45 -108.5q0 -53 -23 -100.5t-73 -78t-125 -30.5q-72 0 -151 27l72 507h57l-25 -176h86q92 0 137 -40.5zM508 0l77 523h57l-74 -523h-60zM344 85q39 48 39 114q0 101 -126 101h-89l-35 -249q50 -14 87 -14q85 0 124 48zM344.5 731.5
q10.5 -10.5 10.5 -25.5q0 -18 -12 -30.5t-30 -12.5q-17 0 -27 10.5t-10 25.5q0 18 12 30.5t30 12.5q16 0 26.5 -10.5zM533 731.5q10 -10.5 10 -25.5q0 -18 -12 -30.5t-30 -12.5q-16 0 -26.5 10.5t-10.5 25.5q0 18 12 30.5t30 12.5q17 0 27 -10.5z" />
    <glyph glyph-name="uni051D" unicode="&#x51d;" horiz-adv-x="696" 
d="M429 0l-49 469l-183 -469h-77l-57 523h57l45 -478l188 478h68l51 -479l178 479h57l-200 -523h-78z" />
    <glyph glyph-name="uni04D4" unicode="&#x4d4;" horiz-adv-x="780" 
d="M439 379h257l-7 -49h-245l33 -280h228l-8 -50h-272l-20 184h-284l-95 -184h-63l362 685h421l-14 -50h-323zM356 637l-209 -403h252z" />
    <glyph glyph-name="uni04D5" unicode="&#x4d5;" horiz-adv-x="847" 
d="M402 506.5q37 -27.5 49 -74.5q24 41 75 71.5t115 30.5q73 0 115 -35.5t42 -91.5q0 -95 -94.5 -140.5t-269.5 -59.5q0 -168 136 -168q41 0 75 13t72 40l27 -41q-42 -31 -85.5 -46.5t-92.5 -15.5q-62 0 -106 27t-65 77q-45 -56 -94 -80t-107 -24q-69 0 -108.5 37t-39.5 99
q0 77 58 128t183 51h102q12 49 24 78q-2 46 -35.5 74.5t-87.5 28.5q-61 0 -143 -29l-13 46q89 32 167 32q64 0 101 -27.5zM500 417.5q-51 -68.5 -63 -164.5q152 12 226 47.5t74 104.5q0 34 -24.5 57.5t-71.5 23.5q-90 0 -141 -68.5zM153 224q-45 -37 -45 -99q0 -43 25.5 -66
t70.5 -23q49 0 92.5 25.5t85.5 80.5q-5 25 -5 59q0 28 4 60h-88q-95 0 -140 -37z" />
    <glyph glyph-name="uni0430.sc" horiz-adv-x="495" 
d="M39 0h-60l275 562h71l117 -562h-59l-29 150h-243zM133 198h212l-62 317z" />
    <glyph glyph-name="uni0431.sc" horiz-adv-x="515" 
d="M206 508l-23 -168h90q93 0 142.5 -38t49.5 -114q0 -50 -23.5 -93.5t-77 -71.5t-138.5 -28h-150l79 562h303l-16 -49h-236zM140 42h95q90 0 130 44t40 103q0 55 -33.5 80t-101.5 25h-94z" />
    <glyph glyph-name="uni0432.sc" horiz-adv-x="542" 
d="M435.5 531.5q51.5 -30.5 51.5 -92.5q0 -52 -33 -91.5t-94 -50.5q50 -6 83.5 -35t33.5 -83q0 -82 -58.5 -130.5t-178.5 -48.5h-166l79 562h133q98 0 149.5 -30.5zM176 318h114q65 0 101 35.5t36 83.5q0 42 -34.5 60t-104.5 18h-84zM138 47h107q86 0 129 35.5t43 99.5
q0 47 -33.5 69t-90.5 22h-123z" />
    <glyph glyph-name="uni0433.sc" horiz-adv-x="428" 
d="M203 512l-71 -512h-58l79 562l1 -1l-1 1h307l-15 -50h-242z" />
    <glyph glyph-name="uni0453.sc" horiz-adv-x="428" 
d="M203 512l-71 -512h-58l79 562l1 -1l-1 1h307l-15 -50h-242zM240 675l-14 34l201 104l19 -53z" />
    <glyph glyph-name="uni0491.sc" horiz-adv-x="428" 
d="M445 512h-242l-71 -512h-58l79 562l1 -1l-1 1h253l16 115h54l-16 -115z" />
    <glyph glyph-name="uni0434.sc" horiz-adv-x="574" 
d="M516 347q0 -94 -31.5 -172.5t-100.5 -126.5t-177 -48h-133l79 562h121q242 0 242 -215zM138 47h76q87 0 141.5 43.5t78 111.5t23.5 147q0 97 -49 131.5t-132 34.5h-72z" />
    <glyph glyph-name="uni0435.sc" horiz-adv-x="465" 
d="M204 514l-28 -199h208l-7 -47h-208l-31 -221h252l-7 -47h-309l79 562h304l-13 -48h-240z" />
    <glyph glyph-name="uni0450.sc" horiz-adv-x="465" 
d="M204 514l-28 -199h208l-7 -47h-208l-31 -221h252l-7 -47h-309l79 562h304l-13 -48h-240zM412 675l-183 85l33 53l172 -105z" />
    <glyph glyph-name="uni0451.sc" horiz-adv-x="465" 
d="M204 514l-28 -199h208l-7 -47h-208l-31 -221h252l-7 -47h-309l79 562h304l-13 -48h-240zM265 761.5q10 -10.5 10 -25.5q0 -19 -11.5 -31t-30.5 -12q-16 0 -26.5 10.5t-10.5 25.5q0 19 12.5 31t30.5 12q16 0 26 -10.5zM453.5 761.5q10.5 -10.5 10.5 -25.5q0 -18 -12 -30.5
t-30 -12.5q-16 0 -26.5 10.5t-10.5 25.5q0 19 12 31t30 12q16 0 26.5 -10.5z" />
    <glyph glyph-name="uni0436.sc" horiz-adv-x="674" 
d="M646.5 502.5q-18.5 -15.5 -49.5 -61.5l-101 -144l136 -297h-60l-124 273h-79l-38 -273h-56l39 273h-76l-198 -273h-65l218 300l-77 150q-21 41 -34.5 54.5t-39.5 21.5l17 44q39 -11 58 -28.5t44 -64.5l80 -157h79l35 242h55l-35 -242h75l105 151q36 51 58.5 69.5
t62.5 29.5l16 -43q-27 -9 -45.5 -24.5z" />
    <glyph glyph-name="uni0437.sc" horiz-adv-x="463" 
d="M376.5 536q41.5 -36 41.5 -90q0 -114 -133 -144q50 -5 81.5 -36.5t31.5 -85.5q0 -58 -30 -101t-80.5 -65.5t-111.5 -22.5q-113 0 -182 77l39 32q28 -29 62.5 -44t79.5 -15q69 0 115 38t46 103q0 45 -33 70t-96 24h-56l15 49h44q70 0 107.5 34t37.5 83q0 36 -26 58.5
t-72 22.5q-44 0 -80.5 -13.5t-75.5 -42.5l-31 37q49 36 94 52t99 16q72 0 113.5 -36z" />
    <glyph glyph-name="uni0438.sc" horiz-adv-x="615" 
d="M410 0l38 273q20 140 40 228l-340 -501h-74l79 562h58l-39 -273q-17 -117 -40 -230l342 503h72l-79 -562h-57z" />
    <glyph glyph-name="uni0439.sc" horiz-adv-x="615" 
d="M410 0l38 273q20 140 40 228l-340 -501h-74l79 562h58l-39 -273q-17 -117 -40 -230l342 503h72l-79 -562h-57zM280 709q-32 26 -35 69l40 5q6 -27 25.5 -39.5t54.5 -12.5q75 0 100 55l38 -12q-12 -42 -49.5 -66.5t-89.5 -24.5t-84 26z" />
    <glyph glyph-name="uni045D.sc" horiz-adv-x="615" 
d="M410 0l38 273q20 140 40 228l-340 -501h-74l79 562h58l-39 -273q-17 -117 -40 -230l342 503h72l-79 -562h-57zM455 675l-183 85l33 53l172 -105z" />
    <glyph glyph-name="uni043A.sc" horiz-adv-x="483" 
d="M476.5 515q-12.5 -6 -26.5 -21t-36 -45l-112 -152l149 -297h-60l-137 273h-97l-39 -273h-57l79 562h57l-34 -242h93l116 159q25 34 42.5 50.5t33.5 24t46 16.5l16 -43q-21 -6 -33.5 -12z" />
    <glyph glyph-name="uni045C.sc" horiz-adv-x="483" 
d="M476.5 515q-12.5 -6 -26.5 -21t-36 -45l-112 -152l149 -297h-60l-137 273h-97l-39 -273h-57l79 562h57l-34 -242h93l116 159q25 34 42.5 50.5t33.5 24t46 16.5l16 -43q-21 -6 -33.5 -12zM246 675l-14 34l201 104l19 -53z" />
    <glyph glyph-name="uni043B.sc" horiz-adv-x="575" 
d="M370 0l71 513h-209l-61 -246q-28 -113 -46 -162.5t-44.5 -75t-78.5 -39.5l-8 49q33 10 50.5 29.5t31.5 60.5t39 139l75 294h316l-79 -562h-57z" />
    <glyph glyph-name="uni043C.sc" horiz-adv-x="696" 
d="M528 0l11 266q5 142 17 247l-212 -447h-56l-85 446q-7 -35 -40 -187q-10 -40 -14 -61l-62 -264h-55l134 562h77l81 -436l203 436h78l-23 -562h-54z" />
    <glyph glyph-name="uni043D.sc" horiz-adv-x="614" 
d="M408 0l38 271h-276l-38 -271h-58l79 562h58l-35 -242h276l34 242h59l-79 -562h-58z" />
    <glyph glyph-name="uni043E.sc" horiz-adv-x="615" 
d="M501 512q56 -59 56 -167q0 -81 -28 -162t-92 -136.5t-164 -55.5q-97 0 -153.5 59t-56.5 168q0 79 29 160t93 137t163 56q97 0 153 -59zM216.5 474.5q-50.5 -48.5 -72 -119t-21.5 -141.5q0 -88 39.5 -131.5t110.5 -43.5q82 0 132.5 48.5t71.5 119t21 142.5
q0 87 -39.5 130.5t-111.5 43.5q-80 0 -130.5 -48.5z" />
    <glyph glyph-name="uni043F.sc" horiz-adv-x="609" 
d="M403 0l72 512h-272l-71 -512h-58l79 562h387l-79 -562h-58z" />
    <glyph glyph-name="uni0440.sc" horiz-adv-x="517" 
d="M441.5 526q51.5 -36 51.5 -107q0 -88 -57.5 -145.5t-188.5 -57.5h-85l-30 -216h-58l79 562h141q96 0 147.5 -36zM391.5 306.5q41.5 43.5 41.5 111.5q0 52 -36 74.5t-107 22.5h-86l-36 -252h82q100 0 141.5 43.5z" />
    <glyph glyph-name="uni0441.sc" horiz-adv-x="490" 
d="M496 516l-35 -35q-27 22 -52.5 32t-58.5 10q-79 0 -130 -46.5t-74 -116.5t-23 -142q0 -89 41 -133.5t110 -44.5q41 0 72 12t64 36l28 -38q-69 -59 -167 -59q-95 0 -151.5 60t-56.5 171q0 81 30 161.5t93.5 134t159.5 53.5q85 0 150 -55z" />
    <glyph glyph-name="uni0442.sc" horiz-adv-x="433" 
d="M281 512l-72 -512h-58l72 512h-174l8 50h408l-14 -50h-170z" />
    <glyph glyph-name="uni0443.sc" horiz-adv-x="453" 
d="M206 65q-27 -31 -60 -47.5t-88 -27.5l-6 44q41 9 65.5 21t44.5 35.5t45 67.5l-18 -1l-139 405h60l120 -368l203 368h59l-226 -406q-33 -60 -60 -91z" />
    <glyph glyph-name="uni045E.sc" horiz-adv-x="453" 
d="M206 65q-27 -31 -60 -47.5t-88 -27.5l-6 44q41 9 65.5 21t44.5 35.5t45 67.5l-18 -1l-139 405h60l120 -368l203 368h59l-226 -406q-33 -60 -60 -91zM202 709q-32 26 -35 69l40 5q6 -27 25.5 -39.5t54.5 -12.5q75 0 100 55l38 -12q-12 -42 -49.5 -66.5t-89.5 -24.5t-84 26
z" />
    <glyph glyph-name="uni0444.sc" horiz-adv-x="709" 
d="M607 478q63 -52 63 -147q0 -121 -71.5 -204.5t-247.5 -89.5l-8 -58h-57l9 58q-122 5 -186 58t-64 145q0 122 72.5 205t247.5 89l7 57h57l-8 -57q123 -4 186 -56zM556.5 157q56.5 68 56.5 174q0 79 -50 118.5t-150 41.5l-58 -410q145 8 201.5 76zM158.5 415
q-56.5 -68 -56.5 -175q0 -76 51 -116t150 -43l58 410q-146 -8 -202.5 -76z" />
    <glyph glyph-name="uni0445.sc" horiz-adv-x="449" 
d="M404 0h-63l-115 262l-188 -262h-65l221 302l-125 260h63l99 -220l163 220h66l-198 -259z" />
    <glyph glyph-name="uni0447.sc" horiz-adv-x="539" 
d="M391 0h-58l33 236q-37 -28 -75 -42t-85 -14q-69 1 -109.5 40.5t-40.5 106.5q0 10 2 32l29 203h58l-29 -203q-2 -20 -2 -29q0 -49 27.5 -74.5t78.5 -25.5q46 0 85.5 17t68.5 44l38 271h58z" />
    <glyph glyph-name="uni0446.sc" horiz-adv-x="645" 
d="M543 49l-26 -194h-46l7 145h-404l79 562h57l-72 -513h279l72 513h57l-72 -513h69z" />
    <glyph glyph-name="uni0448.sc" horiz-adv-x="821" 
d="M74 0l79 562h57l-72 -513h215l72 513h55l-72 -513h216l72 513h56l-79 -562h-599z" />
    <glyph glyph-name="uni0449.sc" horiz-adv-x="840" 
d="M748 49l-26 -194h-46l7 145h-609l79 562h57l-72 -513h215l72 513h55l-72 -513h216l72 513h56l-72 -513h68z" />
    <glyph glyph-name="uni045F.sc" horiz-adv-x="615" 
d="M298 0l-20 -145h-45l7 145h-166l79 562h57l-72 -513h279l72 513h57l-79 -562h-169z" />
    <glyph glyph-name="uni044F.sc" horiz-adv-x="536" 
d="M330 0l33 231h-141l-155 -231h-67l166 241q-47 16 -72.5 51t-25.5 87q0 77 54.5 130t180.5 53h164l-79 -562h-58zM166.5 476.5q-39.5 -39.5 -39.5 -96.5q0 -48 31 -75.5t82 -27.5h129l33 239h-100q-96 0 -135.5 -39.5z" />
    <glyph glyph-name="uni044C.sc" horiz-adv-x="507" 
d="M271 350q91 0 142 -39t51 -112q0 -86 -57 -142.5t-183 -56.5h-150l79 562h58l-30 -212h90zM138 47h96q91 0 130.5 43.5t39.5 108.5q0 52 -35 78t-100 26h-95z" />
    <glyph glyph-name="uni044A.sc" horiz-adv-x="540" 
d="M446 311q51 -39 51 -111q0 -87 -57 -143.5t-183 -56.5h-150l72 514h-144l7 48h144h58l-30 -212h91q90 0 141 -39zM398 91q39 43 39 108q0 52 -35 78.5t-100 26.5h-95l-35 -256h95q92 0 131 43z" />
    <glyph glyph-name="uni044B.sc" horiz-adv-x="726" 
d="M261 350q91 0 142 -39t51 -112q0 -86 -57 -142.5t-183 -56.5h-140l79 562h58l-30 -212h80zM520 0l79 562h58l-79 -562h-58zM138 47h86q91 0 130.5 43.5t39.5 108.5q0 52 -35 78t-100 26h-85z" />
    <glyph glyph-name="uni0459.sc" horiz-adv-x="776" 
d="M539 350q91 0 141.5 -39t50.5 -112q0 -86 -57 -142.5t-182 -56.5h-140l71 513h-187l-61 -246q-28 -113 -46 -162.5t-45 -75t-79 -39.5l-8 49q34 10 51.5 29.5t31.5 61t39 138.5l74 294h295l-30 -212h81zM416 47h85q92 0 131 43.5t39 108.5q0 52 -35 78t-100 26h-84z" />
    <glyph glyph-name="uni045A.sc" horiz-adv-x="825" 
d="M731 292.5q49 -37.5 49 -110.5q0 -49 -23.5 -90t-75.5 -66.5t-131 -25.5h-149l40 283h-270l-39 -283h-58l79 562h58l-33 -232h270l32 232h58l-33 -232h91q86 0 135 -37.5zM593 283h-94l-33 -236h94q83 0 121.5 40.5t38.5 94.5q0 101 -127 101z" />
    <glyph glyph-name="uni0455.sc" horiz-adv-x="485" 
d="M452 505l-36 -33q-58 51 -140 51q-65 0 -98 -27t-33 -70q0 -35 27 -57.5t93 -45.5q78 -26 116.5 -61t38.5 -99q0 -46 -24.5 -85t-74 -63t-119.5 -24q-58 0 -107 19.5t-84 53.5l36 35q65 -60 154 -60q77 0 118 35.5t41 85.5q0 43 -27.5 68t-95.5 49q-79 27 -115.5 61
t-36.5 86q0 66 53 106.5t136 40.5q102 0 178 -66z" />
    <glyph glyph-name="uni0454.sc" horiz-adv-x="498" 
d="M430.5 556.5q34.5 -13.5 65.5 -40.5l-35 -35q-27 22 -52.5 31.5t-59.5 9.5q-76 0 -135 -51.5t-80 -155.5h234l-7 -48h-234q-4 -36 -4 -51q0 -87 41.5 -131.5t109.5 -44.5q42 0 73 12.5t64 35.5l28 -39q-72 -58 -167 -58t-151.5 60t-56.5 171q0 26 5 63q13 91 53.5 155.5
t98.5 97t125 32.5q50 0 84.5 -13.5z" />
    <glyph glyph-name="uni044D.sc" horiz-adv-x="477" 
d="M372 519.5q49 -50.5 49 -159.5q0 -36 -6 -83q-19 -139 -86 -212.5t-170 -73.5q-53 0 -90.5 16.5t-66.5 43.5l33 35q28 -24 55 -35t68 -11q77 0 127 57t69 170h-239l6 48h239q3 27 3 50q0 83 -33.5 120t-94.5 37q-40 0 -71.5 -10t-71.5 -35l-27 38q40 28 81.5 41.5
t90.5 13.5q86 0 135 -50.5z" />
    </font>
</defs>
</svg>
